<?xml version="1.0" encoding="utf-8"?>
<svg version="1.1" xmlns:xlink="http://www.w3.org/1999/xlink" width="12px" height="12px" viewBox="345 313  12 12" xmlns="http://www.w3.org/2000/svg">
  <path d="M 351 313  C 354.36 313  357 315.64  357 319  C 357 322.36  354.36 325  351 325  C 347.64 325  345 322.36  345 319  C 345 315.64  347.64 313  351 313  Z " fill-rule="nonzero" fill="#ffffff" stroke="none" />
  <path d="M 351 313.5  C 354.08 313.5  356.5 315.92  356.5 319  C 356.5 322.08  354.08 324.5  351 324.5  C 347.92 324.5  345.5 322.08  345.5 319  C 345.5 315.92  347.92 313.5  351 313.5  Z " stroke-width="1" stroke="#797979" fill="none" />
  <path d="M 351 322  C 349.32 322  348 320.68  348 319  C 348 317.32  349.32 316  351 316  C 352.68 316  354 317.32  354 319  C 354 320.68  352.68 322  351 322  " fill-rule="nonzero" fill="#797979" stroke="none" />
</svg>