<?xml version="1.0" encoding="utf-8"?>
<svg version="1.1" xmlns:xlink="http://www.w3.org/1999/xlink" width="12px" height="12px" viewBox="455 313  12 12" xmlns="http://www.w3.org/2000/svg">
  <path d="M 461 313  C 464.36 313  467 315.64  467 319  C 467 322.36  464.36 325  461 325  C 457.64 325  455 322.36  455 319  C 455 315.64  457.64 313  461 313  Z " fill-rule="nonzero" fill="#ffffff" stroke="none" />
  <path d="M 461 313.5  C 464.08 313.5  466.5 315.92  466.5 319  C 466.5 322.08  464.08 324.5  461 324.5  C 457.92 324.5  455.5 322.08  455.5 319  C 455.5 315.92  457.92 313.5  461 313.5  Z " stroke-width="1" stroke="#797979" fill="none" />
  <path d="M 461 322  C 459.32 322  458 320.68  458 319  C 458 317.32  459.32 316  461 316  C 462.68 316  464 317.32  464 319  C 464 320.68  462.68 322  461 322  " fill-rule="nonzero" fill="#797979" stroke="none" />
</svg>