<?xml version="1.0" encoding="utf-8"?>
<svg version="1.1" xmlns:xlink="http://www.w3.org/1999/xlink" width="12px" height="12px" viewBox="347 456  12 12" xmlns="http://www.w3.org/2000/svg">
  <path d="M 353 456  C 356.36 456  359 458.64  359 462  C 359 465.36  356.36 468  353 468  C 349.64 468  347 465.36  347 462  C 347 458.64  349.64 456  353 456  Z " fill-rule="nonzero" fill="#ffffff" stroke="none" />
  <path d="M 353 456.5  C 356.08 456.5  358.5 458.92  358.5 462  C 358.5 465.08  356.08 467.5  353 467.5  C 349.92 467.5  347.5 465.08  347.5 462  C 347.5 458.92  349.92 456.5  353 456.5  Z " stroke-width="1" stroke="#797979" fill="none" />
  <path d="M 353 465  C 351.32 465  350 463.68  350 462  C 350 460.32  351.32 459  353 459  C 354.68 459  356 460.32  356 462  C 356 463.68  354.68 465  353 465  " fill-rule="nonzero" fill="#797979" stroke="none" />
</svg>