<?xml version="1.0" encoding="utf-8"?>
<svg version="1.1" xmlns:xlink="http://www.w3.org/1999/xlink" width="12px" height="12px" viewBox="712 457  12 12" xmlns="http://www.w3.org/2000/svg">
  <path d="M 718 457  C 721.36 457  724 459.64  724 463  C 724 466.36  721.36 469  718 469  C 714.64 469  712 466.36  712 463  C 712 459.64  714.64 457  718 457  Z " fill-rule="nonzero" fill="#ffffff" stroke="none" />
  <path d="M 718 457.5  C 721.08 457.5  723.5 459.92  723.5 463  C 723.5 466.08  721.08 468.5  718 468.5  C 714.92 468.5  712.5 466.08  712.5 463  C 712.5 459.92  714.92 457.5  718 457.5  Z " stroke-width="1" stroke="#797979" fill="none" />
  <path d="M 718 466  C 716.32 466  715 464.68  715 463  C 715 461.32  716.32 460  718 460  C 719.68 460  721 461.32  721 463  C 721 464.68  719.68 466  718 466  " fill-rule="nonzero" fill="#797979" stroke="none" />
</svg>