<?xml version="1.0" encoding="utf-8"?>
<svg version="1.1" xmlns:xlink="http://www.w3.org/1999/xlink" width="12px" height="12px" viewBox="897 457  12 12" xmlns="http://www.w3.org/2000/svg">
  <path d="M 903 457  C 906.36 457  909 459.64  909 463  C 909 466.36  906.36 469  903 469  C 899.64 469  897 466.36  897 463  C 897 459.64  899.64 457  903 457  Z " fill-rule="nonzero" fill="#ffffff" stroke="none" />
  <path d="M 903 457.5  C 906.08 457.5  908.5 459.92  908.5 463  C 908.5 466.08  906.08 468.5  903 468.5  C 899.92 468.5  897.5 466.08  897.5 463  C 897.5 459.92  899.92 457.5  903 457.5  Z " stroke-width="1" stroke="#797979" fill="none" />
  <path d="M 903 466  C 901.32 466  900 464.68  900 463  C 900 461.32  901.32 460  903 460  C 904.68 460  906 461.32  906 463  C 906 464.68  904.68 466  903 466  " fill-rule="nonzero" fill="#797979" stroke="none" />
</svg>