<?xml version="1.0" encoding="utf-8"?>
<svg version="1.1" xmlns:xlink="http://www.w3.org/1999/xlink" width="12px" height="12px" viewBox="519 457  12 12" xmlns="http://www.w3.org/2000/svg">
  <path d="M 525 457  C 528.36 457  531 459.64  531 463  C 531 466.36  528.36 469  525 469  C 521.64 469  519 466.36  519 463  C 519 459.64  521.64 457  525 457  Z " fill-rule="nonzero" fill="#ffffff" stroke="none" />
  <path d="M 525 457.5  C 528.08 457.5  530.5 459.92  530.5 463  C 530.5 466.08  528.08 468.5  525 468.5  C 521.92 468.5  519.5 466.08  519.5 463  C 519.5 459.92  521.92 457.5  525 457.5  Z " stroke-width="1" stroke="#797979" fill="none" />
  <path d="M 525 466  C 523.32 466  522 464.68  522 463  C 522 461.32  523.32 460  525 460  C 526.68 460  528 461.32  528 463  C 528 464.68  526.68 466  525 466  " fill-rule="nonzero" fill="#797979" stroke="none" />
</svg>