<?xml version="1.0" encoding="utf-8"?>
<svg version="1.1" xmlns:xlink="http://www.w3.org/1999/xlink" width="12px" height="12px" viewBox="211 369  12 12" xmlns="http://www.w3.org/2000/svg">
  <path d="M 217 369  C 220.36 369  223 371.64  223 375  C 223 378.36  220.36 381  217 381  C 213.64 381  211 378.36  211 375  C 211 371.64  213.64 369  217 369  Z " fill-rule="nonzero" fill="#ffffff" stroke="none" />
  <path d="M 217 369.5  C 220.08 369.5  222.5 371.92  222.5 375  C 222.5 378.08  220.08 380.5  217 380.5  C 213.92 380.5  211.5 378.08  211.5 375  C 211.5 371.92  213.92 369.5  217 369.5  Z " stroke-width="1" stroke="#797979" fill="none" />
  <path d="M 217 378  C 215.32 378  214 376.68  214 375  C 214 373.32  215.32 372  217 372  C 218.68 372  220 373.32  220 375  C 220 376.68  218.68 378  217 378  " fill-rule="nonzero" fill="#797979" stroke="none" />
</svg>