<?xml version="1.0" encoding="utf-8"?>
<svg version="1.1" xmlns:xlink="http://www.w3.org/1999/xlink" width="20px" height="20px" xmlns="http://www.w3.org/2000/svg">
  <g transform="matrix(1 0 0 1 -43 -210 )">
    <path d="M 2.69607843137255 15.5269607843137  C 2.46732026143791 15.2982026143791  2.35294117647059 15.0245098039216  2.35294117647059 14.7058823529412  C 2.35294117647059 14.3790849673203  2.46732026143791 14.1013071895425  2.69607843137255 13.8725490196078  L 5.24509803921569 11.3235294117647  C 5.47385620915033 11.0947712418301  5.7516339869281 10.9803921568627  6.07843137254902 10.9803921568627  C 6.42156862745098 10.9803921568627  6.7156862745098 11.1111111111111  6.96078431372549 11.3725490196078  C 6.93627450980392 11.3970588235294  6.85866013071895 11.4726307189542  6.72794117647059 11.5992647058824  C 6.59722222222222 11.7258986928105  6.5093954248366 11.8137254901961  6.46446078431373 11.8627450980392  C 6.41952614379085 11.9117647058824  6.35825163398693 11.9893790849673  6.28063725490196 12.0955882352941  C 6.20302287581699 12.2017973856209  6.14991830065359 12.3059640522876  6.12132352941176 12.4080882352941  C 6.09272875816993 12.5102124183007  6.07843137254902 12.6225490196078  6.07843137254902 12.7450980392157  C 6.07843137254902 13.0718954248366  6.19281045751634 13.3496732026144  6.42156862745098 13.578431372549  C 6.65032679738562 13.8071895424837  6.9281045751634 13.921568627451  7.25490196078431 13.921568627451  C 7.37745098039216 13.921568627451  7.48978758169935 13.9072712418301  7.59191176470588 13.8786764705882  C 7.69403594771242 13.8500816993464  7.79820261437908 13.796977124183  7.90441176470588 13.719362745098  C 8.01062091503268 13.6417483660131  8.08823529411765 13.5804738562091  8.13725490196078 13.5355392156863  C 8.18627450980392 13.4906045751634  8.27410130718954 13.4027777777778  8.40073529411765 13.2720588235294  C 8.52736928104575 13.141339869281  8.60294117647059 13.0637254901961  8.62745098039216 13.0392156862745  C 8.89705882352941 13.2924836601307  9.03186274509804 13.5906862745098  9.03186274509804 13.9338235294118  C 9.03186274509804 14.2606209150327  8.91748366013072 14.5383986928105  8.68872549019608 14.7671568627451  L 6.16421568627451 17.3039215686275  C 5.94362745098039 17.5245098039216  5.66584967320261 17.6348039215686  5.33088235294118 17.6348039215686  C 5.00408496732026 17.6348039215686  4.72630718954248 17.5285947712418  4.49754901960784 17.3161764705882  L 2.69607843137255 15.5269607843137  Z M 11.3725490196078 6.96078431372549  C 11.1029411764706 6.70751633986928  10.968137254902 6.4093137254902  10.968137254902 6.06617647058824  C 10.968137254902 5.73937908496732  11.0825163398693 5.46160130718954  11.3112745098039 5.2328431372549  L 13.8357843137255 2.69607843137255  C 14.0645424836601 2.46732026143791  14.3423202614379 2.35294117647059  14.6691176470588 2.35294117647059  C 14.9877450980392 2.35294117647059  15.265522875817 2.46323529411765  15.5024509803922 2.68382352941176  L 17.3039215686275 4.47303921568627  C 17.5326797385621 4.70179738562091  17.6470588235294 4.97549019607843  17.6470588235294 5.29411764705882  C 17.6470588235294 5.62091503267974  17.5326797385621 5.89869281045751  17.3039215686275 6.12745098039216  L 14.7549019607843 8.67647058823529  C 14.5343137254902 8.89705882352941  14.2565359477124 9.00735294117647  13.921568627451 9.00735294117647  C 13.578431372549 9.00735294117647  13.2843137254902 8.88071895424837  13.0392156862745 8.62745098039216  C 13.0637254901961 8.60294117647059  13.141339869281 8.52736928104575  13.2720588235294 8.40073529411765  C 13.4027777777778 8.27410130718954  13.4906045751634 8.18627450980392  13.5355392156863 8.13725490196078  C 13.5804738562091 8.08823529411765  13.6417483660131 8.01062091503268  13.719362745098 7.90441176470588  C 13.796977124183 7.79820261437908  13.8500816993464 7.69403594771242  13.8786764705882 7.59191176470588  C 13.9072712418301 7.48978758169935  13.921568627451 7.37745098039216  13.921568627451 7.25490196078431  C 13.921568627451 6.9281045751634  13.8071895424837 6.65032679738562  13.578431372549 6.42156862745098  C 13.3496732026144 6.19281045751634  13.0718954248366 6.07843137254902  12.7450980392157 6.07843137254902  C 12.6225490196078 6.07843137254902  12.5102124183007 6.09272875816993  12.4080882352941 6.12132352941176  C 12.3059640522876 6.14991830065359  12.2017973856209 6.20302287581699  12.0955882352941 6.28063725490196  C 11.9893790849673 6.35825163398693  11.9117647058824 6.41952614379085  11.8627450980392 6.46446078431373  C 11.8137254901961 6.5093954248366  11.7258986928105 6.59722222222222  11.5992647058824 6.72794117647059  C 11.4726307189542 6.85866013071895  11.3970588235294 6.93627450980392  11.3725490196078 6.96078431372549  Z M 1.02941176470588 12.2058823529412  C 0.343137254901962 12.8921568627451  0 13.7254901960784  0 14.7058823529412  C 0 15.6862745098039  0.347222222222221 16.515522875817  1.04166666666667 17.1936274509804  L 2.84313725490196 18.9828431372549  C 3.52124183006536 19.6609477124183  4.35049019607843 20  5.33088235294118 20  C 6.31944444444444 20  7.15277777777778 19.6527777777778  7.83088235294118 18.9583333333333  L 10.3553921568627 16.421568627451  C 11.0334967320261 15.7434640522876  11.3725490196078 14.9142156862745  11.3725490196078 13.9338235294118  C 11.3725490196078 12.9289215686275  11.0130718954248 12.0751633986928  10.2941176470588 11.3725490196078  L 11.3725490196078 10.2941176470588  C 12.0751633986928 11.0130718954248  12.9248366013072 11.3725490196078  13.921568627451 11.3725490196078  C 14.9019607843137 11.3725490196078  15.7352941176471 11.0294117647059  16.421568627451 10.343137254902  L 18.9705882352941 7.79411764705882  C 19.656862745098 7.1078431372549  20 6.27450980392157  20 5.29411764705882  C 20 4.31372549019608  19.6527777777778 3.48447712418301  18.9583333333333 2.80637254901961  L 17.156862745098 1.0171568627451  C 16.4787581699346 0.339052287581698  15.6495098039216 0  14.6691176470588 0  C 13.6805555555556 0  12.8472222222222 0.347222222222221  12.1691176470588 1.04166666666667  L 9.64460784313725 3.57843137254902  C 8.96650326797386 4.25653594771242  8.62745098039216 5.08578431372549  8.62745098039216 6.06617647058824  C 8.62745098039216 7.07107843137255  8.98692810457516 7.92483660130719  9.70588235294118 8.62745098039216  L 8.62745098039216 9.70588235294118  C 7.92483660130719 8.98692810457516  7.07516339869281 8.62745098039215  6.07843137254902 8.62745098039216  C 5.09803921568627 8.62745098039215  4.26470588235294 8.97058823529412  3.57843137254902 9.65686274509804  L 1.02941176470588 12.2058823529412  Z " fill-rule="nonzero" fill="#999999" stroke="none" transform="matrix(1 0 0 1 43 210 )" />
  </g>
</svg>