<?xml version="1.0" encoding="utf-8"?>
<svg version="1.1" xmlns:xlink="http://www.w3.org/1999/xlink" width="40px" height="40px" xmlns="http://www.w3.org/2000/svg">
  <g transform="matrix(1 0 0 1 -850 -210 )">
    <path d="M 870 210  C 881.2 210  890 218.8  890 230  C 890 241.2  881.2 250  870 250  C 858.8 250  850 241.2  850 230  C 850 218.8  858.8 210  870 210  Z " fill-rule="nonzero" fill="#ffffff" stroke="none" />
    <path d="M 870 210.5  C 880.92 210.5  889.5 219.08  889.5 230  C 889.5 240.92  880.92 249.5  870 249.5  C 859.08 249.5  850.5 240.92  850.5 230  C 850.5 219.08  859.08 210.5  870 210.5  Z " stroke-width="1" stroke="#797979" fill="none" />
  </g>
</svg>