<?xml version="1.0" encoding="utf-8"?>
<svg version="1.1" xmlns:xlink="http://www.w3.org/1999/xlink" width="20px" height="20px" xmlns="http://www.w3.org/2000/svg">
  <g transform="matrix(1 0 0 1 -1095 -210 )">
    <path d="M 3.63636363636364 14.5454545454545  L 5.45454545454545 14.5454545454545  L 5.45454545454545 16.3636363636364  L 3.63636363636364 16.3636363636364  L 3.63636363636364 14.5454545454545  Z M 3.63636363636364 3.63636363636364  L 5.45454545454545 3.63636363636364  L 5.45454545454545 5.45454545454545  L 3.63636363636364 5.45454545454545  L 3.63636363636364 3.63636363636364  Z M 14.5454545454545 3.63636363636364  L 16.3636363636364 3.63636363636364  L 16.3636363636364 5.45454545454545  L 14.5454545454545 5.45454545454545  L 14.5454545454545 3.63636363636364  Z M 1.81818181818182 12.7272727272727  L 1.81818181818182 18.1676136363636  L 7.27272727272727 18.1676136363636  L 7.27272727272727 12.7272727272727  L 1.81818181818182 12.7272727272727  Z M 1.81818181818182 1.81818181818182  L 1.81818181818182 7.27272727272727  L 7.27272727272727 7.27272727272727  L 7.27272727272727 1.81818181818182  L 1.81818181818182 1.81818181818182  Z M 12.7272727272727 1.81818181818182  L 12.7272727272727 7.27272727272727  L 18.1818181818182 7.27272727272727  L 18.1818181818182 1.81818181818182  L 12.7272727272727 1.81818181818182  Z M 0 10.9090909090909  L 9.09090909090909 10.9090909090909  L 9.09090909090909 20  L 0 20  L 0 10.9090909090909  Z M 14.5454545454545 18.1818181818182  L 16.3636363636364 18.1818181818182  L 16.3636363636364 20  L 14.5454545454545 20  L 14.5454545454545 18.1818181818182  Z M 18.1818181818182 18.1818181818182  L 20 18.1818181818182  L 20 20  L 18.1818181818182 20  L 18.1818181818182 18.1818181818182  Z M 18.1818181818182 10.9090909090909  L 20 10.9090909090909  L 20 16.3636363636364  L 14.5454545454545 16.3636363636364  L 14.5454545454545 14.5454545454545  L 12.7272727272727 14.5454545454545  L 12.7272727272727 20  L 10.9090909090909 20  L 10.9090909090909 10.9090909090909  L 16.3636363636364 10.9090909090909  L 16.3636363636364 12.7272727272727  L 18.1818181818182 12.7272727272727  L 18.1818181818182 10.9090909090909  Z M 0 0  L 9.09090909090909 0  L 9.09090909090909 9.09090909090909  L 0 9.09090909090909  L 0 0  Z M 10.9090909090909 0  L 20 0  L 20 9.09090909090909  L 10.9090909090909 9.09090909090909  L 10.9090909090909 0  Z " fill-rule="nonzero" fill="#333333" stroke="none" transform="matrix(1 0 0 1 1095 210 )" />
  </g>
</svg>