<?xml version="1.0" encoding="utf-8"?>
<svg version="1.1" xmlns:xlink="http://www.w3.org/1999/xlink" width="30px" height="35px" xmlns="http://www.w3.org/2000/svg">
  <defs>
    <filter x="1182px" y="45px" width="30px" height="35px" filterUnits="userSpaceOnUse" id="filter48">
      <feOffset dx="1" dy="1" in="SourceAlpha" result="shadowOffsetInner" />
      <feGaussianBlur stdDeviation="2.5" in="shadowOffsetInner" result="shadowGaussian" />
      <feComposite in2="shadowGaussian" operator="atop" in="SourceAlpha" result="shadowComposite" />
      <feColorMatrix type="matrix" values="0 0 0 0 0  0 0 0 0 0  0 0 0 0 0  0 0 0 0.698039215686274 0  " in="shadowComposite" />
    </filter>
    <g id="widget49">
      <path d="M 1196 73.0775987188454  C 1192.2 67.1823684423664  1186.5 63.645230276479  1186.5 57.75  C 1186.5 54.6857142857143  1188.4 49.5  1196 49.5  C 1203.6 49.5  1205.5 54.6857142857143  1205.5 57.75  C 1205.5 63.645230276479  1199.8 67.1823684423664  1196 73.0775987188454  Z " fill-rule="nonzero" fill="#3498db" stroke="none" />
      <path d="M 1196 74  C 1192 67.75  1186 64  1186 57.75  C 1186 54.5  1188 49  1196 49  C 1204 49  1206 54.5  1206 57.75  C 1206 64  1200 67.75  1196 74  Z M 1196 72.1551974376908  C 1199.6 66.6147368847328  1205 63.290460552958  1205 57.75  C 1205 54.8714285714286  1203.2 50  1196 50  C 1188.8 50  1187 54.8714285714286  1187 57.75  C 1187 63.290460552958  1192.4 66.6147368847328  1196 72.1551974376908  Z " fill-rule="nonzero" fill="#ffffff" stroke="none" />
    </g>
  </defs>
  <g transform="matrix(1 0 0 1 -1182 -45 )">
    <use xlink:href="#widget49" filter="url(#filter48)" />
    <use xlink:href="#widget49" />
  </g>
</svg>