<?xml version="1.0" encoding="utf-8"?>
<svg version="1.1" xmlns:xlink="http://www.w3.org/1999/xlink" width="160px" height="52px" xmlns="http://www.w3.org/2000/svg">
  <g transform="matrix(1 0 0 1 -830 -233 )">
    <path d="M 830.5 275.15078183172  C 830.5 275.15078183172  830.5 236  830.5 236  C 830.5 234.619288125423  831.619288125423 233.5  833 233.5  C 833 233.5  987 233.5  987 233.5  C 988.380711874577 233.5  989.5 234.619288125423  989.5 236  C 989.5 236  989.5 275.15078183172  989.5 275.15078183172  C 989.5 276.531493706297  988.380711874577 277.65078183172  987 277.65078183172  C 987 277.65078183172  920.725782165217 277.65078183172  920.725782165217 277.65078183172  C 920.725782165217 277.65078183172  911.043801140719 284.393946036389  911.043801140719 284.393946036389  C 911.043801140719 284.393946036389  901.035464120164 277.65078183172  901.035464120164 277.65078183172  C 901.035464120164 277.65078183172  833 277.65078183172  833 277.65078183172  C 831.619288125423 277.65078183172  830.5 276.531493706297  830.5 275.15078183172  Z " fill-rule="nonzero" fill="#333333" stroke="none" />
    <path d="M 830 275.15078183172  C 830 275.15078183172  830 236  830 236  C 830 234.343145750508  831.343145750508 233  833 233  C 833 233  987 233  987 233  C 988.656854249492 233  990 234.343145750508  990 236  C 990 236  990 275.15078183172  990 275.15078183172  C 990 276.807636081212  988.656854249492 278.15078183172  987 278.15078183172  C 987 278.15078183172  920.882740447958 278.15078183172  920.882740447958 278.15078183172  C 920.882740447958 278.15078183172  911.048484848485 285  911.048484848485 285  C 911.048484848485 285  900.882740447958 278.15078183172  900.882740447958 278.15078183172  C 900.882740447958 278.15078183172  833 278.15078183172  833 278.15078183172  C 831.343145750508 278.15078183172  830 276.807636081212  830 275.15078183172  Z M 831 275.15078183172  C 831 276.255351331382  831.895430500338 277.15078183172  833 277.15078183172  C 833 277.15078183172  901.188187792371 277.15078183172  901.188187792371 277.15078183172  C 901.188187792371 277.15078183172  911.039117432953 283.787892072778  911.039117432953 283.787892072778  C 911.039117432953 283.787892072778  920.568823882476 277.15078183172  920.568823882476 277.15078183172  C 920.568823882476 277.15078183172  987 277.15078183172  987 277.15078183172  C 988.104569499662 277.15078183172  989 276.255351331382  989 275.15078183172  C 989 275.15078183172  989 236  989 236  C 989 234.895430500338  988.104569499662 234  987 234  C 987 234  833 234  833 234  C 831.895430500338 234  831 234.895430500338  831 236  C 831 236  831 275.15078183172  831 275.15078183172  Z " fill-rule="nonzero" fill="#797979" stroke="none" />
  </g>
</svg>