<?xml version="1.0" encoding="utf-8"?>
<svg version="1.1" xmlns:xlink="http://www.w3.org/1999/xlink" width="12px" height="12px" viewBox="260 47  12 12" xmlns="http://www.w3.org/2000/svg">
  <path d="M 266 47  C 269.36 47  272 49.64  272 53  C 272 56.36  269.36 59  266 59  C 262.64 59  260 56.36  260 53  C 260 49.64  262.64 47  266 47  Z " fill-rule="nonzero" fill="#ffffff" stroke="none" />
  <path d="M 266 47.5  C 269.08 47.5  271.5 49.92  271.5 53  C 271.5 56.08  269.08 58.5  266 58.5  C 262.92 58.5  260.5 56.08  260.5 53  C 260.5 49.92  262.92 47.5  266 47.5  Z " stroke-width="1" stroke="#797979" fill="none" />
  <path d="M 266 56  C 264.32 56  263 54.68  263 53  C 263 51.32  264.32 50  266 50  C 267.68 50  269 51.32  269 53  C 269 54.68  267.68 56  266 56  " fill-rule="nonzero" fill="#797979" stroke="none" />
</svg>