<?xml version="1.0" encoding="utf-8"?>
<svg version="1.1" xmlns:xlink="http://www.w3.org/1999/xlink" width="12px" height="12px" viewBox="150 47  12 12" xmlns="http://www.w3.org/2000/svg">
  <path d="M 156 47  C 159.36 47  162 49.64  162 53  C 162 56.36  159.36 59  156 59  C 152.64 59  150 56.36  150 53  C 150 49.64  152.64 47  156 47  Z " fill-rule="nonzero" fill="#ffffff" stroke="none" />
  <path d="M 156 47.5  C 159.08 47.5  161.5 49.92  161.5 53  C 161.5 56.08  159.08 58.5  156 58.5  C 152.92 58.5  150.5 56.08  150.5 53  C 150.5 49.92  152.92 47.5  156 47.5  Z " stroke-width="1" stroke="#797979" fill="none" />
  <path d="M 156 56  C 154.32 56  153 54.68  153 53  C 153 51.32  154.32 50  156 50  C 157.68 50  159 51.32  159 53  C 159 54.68  157.68 56  156 56  " fill-rule="nonzero" fill="#797979" stroke="none" />
</svg>