<?xml version="1.0" encoding="utf-8"?>
<svg version="1.1" xmlns:xlink="http://www.w3.org/1999/xlink" width="12px" height="12px" viewBox="1377 742  12 12" xmlns="http://www.w3.org/2000/svg">
  <path d="M 1383 742  C 1386.36 742  1389 744.64  1389 748  C 1389 751.36  1386.36 754  1383 754  C 1379.64 754  1377 751.36  1377 748  C 1377 744.64  1379.64 742  1383 742  Z " fill-rule="nonzero" fill="#ffffff" stroke="none" />
  <path d="M 1383 742.5  C 1386.08 742.5  1388.5 744.92  1388.5 748  C 1388.5 751.08  1386.08 753.5  1383 753.5  C 1379.92 753.5  1377.5 751.08  1377.5 748  C 1377.5 744.92  1379.92 742.5  1383 742.5  Z " stroke-width="1" stroke="#797979" fill="none" />
  <path d="M 1383 751  C 1381.32 751  1380 749.68  1380 748  C 1380 746.32  1381.32 745  1383 745  C 1384.68 745  1386 746.32  1386 748  C 1386 749.68  1384.68 751  1383 751  " fill-rule="nonzero" fill="#797979" stroke="none" />
</svg>