<?xml version="1.0" encoding="utf-8"?>
<svg version="1.1" xmlns:xlink="http://www.w3.org/1999/xlink" width="12px" height="12px" viewBox="1457 947  12 12" xmlns="http://www.w3.org/2000/svg">
  <path d="M 1463 947  C 1466.36 947  1469 949.64  1469 953  C 1469 956.36  1466.36 959  1463 959  C 1459.64 959  1457 956.36  1457 953  C 1457 949.64  1459.64 947  1463 947  Z " fill-rule="nonzero" fill="#ffffff" stroke="none" />
  <path d="M 1463 947.5  C 1466.08 947.5  1468.5 949.92  1468.5 953  C 1468.5 956.08  1466.08 958.5  1463 958.5  C 1459.92 958.5  1457.5 956.08  1457.5 953  C 1457.5 949.92  1459.92 947.5  1463 947.5  Z " stroke-width="1" stroke="#797979" fill="none" />
  <path d="M 1463 956  C 1461.32 956  1460 954.68  1460 953  C 1460 951.32  1461.32 950  1463 950  C 1464.68 950  1466 951.32  1466 953  C 1466 954.68  1464.68 956  1463 956  " fill-rule="nonzero" fill="#797979" stroke="none" />
</svg>