<?xml version="1.0" encoding="utf-8"?>
<svg version="1.1" xmlns:xlink="http://www.w3.org/1999/xlink" width="12px" height="12px" viewBox="1377 947  12 12" xmlns="http://www.w3.org/2000/svg">
  <path d="M 1383 947  C 1386.36 947  1389 949.64  1389 953  C 1389 956.36  1386.36 959  1383 959  C 1379.64 959  1377 956.36  1377 953  C 1377 949.64  1379.64 947  1383 947  Z " fill-rule="nonzero" fill="#ffffff" stroke="none" />
  <path d="M 1383 947.5  C 1386.08 947.5  1388.5 949.92  1388.5 953  C 1388.5 956.08  1386.08 958.5  1383 958.5  C 1379.92 958.5  1377.5 956.08  1377.5 953  C 1377.5 949.92  1379.92 947.5  1383 947.5  Z " stroke-width="1" stroke="#797979" fill="none" />
  <path d="M 1383 956  C 1381.32 956  1380 954.68  1380 953  C 1380 951.32  1381.32 950  1383 950  C 1384.68 950  1386 951.32  1386 953  C 1386 954.68  1384.68 956  1383 956  " fill-rule="nonzero" fill="#797979" stroke="none" />
</svg>