<?xml version="1.0" encoding="utf-8"?>
<svg version="1.1" xmlns:xlink="http://www.w3.org/1999/xlink" width="12px" height="12px" viewBox="236 567  12 12" xmlns="http://www.w3.org/2000/svg">
  <path d="M 242 567  C 245.36 567  248 569.64  248 573  C 248 576.36  245.36 579  242 579  C 238.64 579  236 576.36  236 573  C 236 569.64  238.64 567  242 567  Z " fill-rule="nonzero" fill="#ffffff" stroke="none" />
  <path d="M 242 567.5  C 245.08 567.5  247.5 569.92  247.5 573  C 247.5 576.08  245.08 578.5  242 578.5  C 238.92 578.5  236.5 576.08  236.5 573  C 236.5 569.92  238.92 567.5  242 567.5  Z " stroke-width="1" stroke="#797979" fill="none" />
  <path d="M 242 576  C 240.32 576  239 574.68  239 573  C 239 571.32  240.32 570  242 570  C 243.68 570  245 571.32  245 573  C 245 574.68  243.68 576  242 576  " fill-rule="nonzero" fill="#797979" stroke="none" />
</svg>