<?xml version="1.0" encoding="utf-8"?>
<svg version="1.1" xmlns:xlink="http://www.w3.org/1999/xlink" width="12px" height="12px" viewBox="158 567  12 12" xmlns="http://www.w3.org/2000/svg">
  <path d="M 164 567  C 167.36 567  170 569.64  170 573  C 170 576.36  167.36 579  164 579  C 160.64 579  158 576.36  158 573  C 158 569.64  160.64 567  164 567  Z " fill-rule="nonzero" fill="#ffffff" stroke="none" />
  <path d="M 164 567.5  C 167.08 567.5  169.5 569.92  169.5 573  C 169.5 576.08  167.08 578.5  164 578.5  C 160.92 578.5  158.5 576.08  158.5 573  C 158.5 569.92  160.92 567.5  164 567.5  Z " stroke-width="1" stroke="#797979" fill="none" />
  <path d="M 164 576  C 162.32 576  161 574.68  161 573  C 161 571.32  162.32 570  164 570  C 165.68 570  167 571.32  167 573  C 167 574.68  165.68 576  164 576  " fill-rule="nonzero" fill="#797979" stroke="none" />
</svg>