<?xml version="1.0" encoding="utf-8"?>
<svg version="1.1" xmlns:xlink="http://www.w3.org/1999/xlink" width="12px" height="12px" viewBox="158 517  12 12" xmlns="http://www.w3.org/2000/svg">
  <path d="M 164 517  C 167.36 517  170 519.64  170 523  C 170 526.36  167.36 529  164 529  C 160.64 529  158 526.36  158 523  C 158 519.64  160.64 517  164 517  Z " fill-rule="nonzero" fill="#ffffff" stroke="none" />
  <path d="M 164 517.5  C 167.08 517.5  169.5 519.92  169.5 523  C 169.5 526.08  167.08 528.5  164 528.5  C 160.92 528.5  158.5 526.08  158.5 523  C 158.5 519.92  160.92 517.5  164 517.5  Z " stroke-width="1" stroke="#797979" fill="none" />
  <path d="M 164 526  C 162.32 526  161 524.68  161 523  C 161 521.32  162.32 520  164 520  C 165.68 520  167 521.32  167 523  C 167 524.68  165.68 526  164 526  " fill-rule="nonzero" fill="#797979" stroke="none" />
</svg>