<?xml version="1.0" encoding="utf-8"?>
<svg version="1.1" xmlns:xlink="http://www.w3.org/1999/xlink" width="12px" height="12px" viewBox="396 517  12 12" xmlns="http://www.w3.org/2000/svg">
  <path d="M 402 517  C 405.36 517  408 519.64  408 523  C 408 526.36  405.36 529  402 529  C 398.64 529  396 526.36  396 523  C 396 519.64  398.64 517  402 517  Z " fill-rule="nonzero" fill="#ffffff" stroke="none" />
  <path d="M 402 517.5  C 405.08 517.5  407.5 519.92  407.5 523  C 407.5 526.08  405.08 528.5  402 528.5  C 398.92 528.5  396.5 526.08  396.5 523  C 396.5 519.92  398.92 517.5  402 517.5  Z " stroke-width="1" stroke="#797979" fill="none" />
  <path d="M 402 526  C 400.32 526  399 524.68  399 523  C 399 521.32  400.32 520  402 520  C 403.68 520  405 521.32  405 523  C 405 524.68  403.68 526  402 526  " fill-rule="nonzero" fill="#797979" stroke="none" />
</svg>