<?xml version="1.0" encoding="utf-8"?>
<svg version="1.1" xmlns:xlink="http://www.w3.org/1999/xlink" width="12px" height="12px" viewBox="236 574  12 12" xmlns="http://www.w3.org/2000/svg">
  <path d="M 242 574  C 245.36 574  248 576.64  248 580  C 248 583.36  245.36 586  242 586  C 238.64 586  236 583.36  236 580  C 236 576.64  238.64 574  242 574  Z " fill-rule="nonzero" fill="#ffffff" stroke="none" />
  <path d="M 242 574.5  C 245.08 574.5  247.5 576.92  247.5 580  C 247.5 583.08  245.08 585.5  242 585.5  C 238.92 585.5  236.5 583.08  236.5 580  C 236.5 576.92  238.92 574.5  242 574.5  Z " stroke-width="1" stroke="#797979" fill="none" />
  <path d="M 242 583  C 240.32 583  239 581.68  239 580  C 239 578.32  240.32 577  242 577  C 243.68 577  245 578.32  245 580  C 245 581.68  243.68 583  242 583  " fill-rule="nonzero" fill="#797979" stroke="none" />
</svg>