<?xml version="1.0" encoding="utf-8"?>
<svg version="1.1" xmlns:xlink="http://www.w3.org/1999/xlink" width="12px" height="12px" viewBox="316 468  12 12" xmlns="http://www.w3.org/2000/svg">
  <path d="M 322 468  C 325.36 468  328 470.64  328 474  C 328 477.36  325.36 480  322 480  C 318.64 480  316 477.36  316 474  C 316 470.64  318.64 468  322 468  Z " fill-rule="nonzero" fill="#ffffff" stroke="none" />
  <path d="M 322 468.5  C 325.08 468.5  327.5 470.92  327.5 474  C 327.5 477.08  325.08 479.5  322 479.5  C 318.92 479.5  316.5 477.08  316.5 474  C 316.5 470.92  318.92 468.5  322 468.5  Z " stroke-width="1" stroke="#797979" fill="none" />
  <path d="M 322 477  C 320.32 477  319 475.68  319 474  C 319 472.32  320.32 471  322 471  C 323.68 471  325 472.32  325 474  C 325 475.68  323.68 477  322 477  " fill-rule="nonzero" fill="#797979" stroke="none" />
</svg>