<?xml version="1.0" encoding="utf-8"?>
<svg version="1.1" xmlns:xlink="http://www.w3.org/1999/xlink" width="12px" height="12px" viewBox="236 468  12 12" xmlns="http://www.w3.org/2000/svg">
  <path d="M 242 468  C 245.36 468  248 470.64  248 474  C 248 477.36  245.36 480  242 480  C 238.64 480  236 477.36  236 474  C 236 470.64  238.64 468  242 468  Z " fill-rule="nonzero" fill="#ffffff" stroke="none" />
  <path d="M 242 468.5  C 245.08 468.5  247.5 470.92  247.5 474  C 247.5 477.08  245.08 479.5  242 479.5  C 238.92 479.5  236.5 477.08  236.5 474  C 236.5 470.92  238.92 468.5  242 468.5  Z " stroke-width="1" stroke="#797979" fill="none" />
  <path d="M 242 477  C 240.32 477  239 475.68  239 474  C 239 472.32  240.32 471  242 471  C 243.68 471  245 472.32  245 474  C 245 475.68  243.68 477  242 477  " fill-rule="nonzero" fill="#797979" stroke="none" />
</svg>