<?xml version="1.0" encoding="utf-8"?>
<svg version="1.1" xmlns:xlink="http://www.w3.org/1999/xlink" width="12px" height="12px" viewBox="316 574  12 12" xmlns="http://www.w3.org/2000/svg">
  <path d="M 322 574  C 325.36 574  328 576.64  328 580  C 328 583.36  325.36 586  322 586  C 318.64 586  316 583.36  316 580  C 316 576.64  318.64 574  322 574  Z " fill-rule="nonzero" fill="#ffffff" stroke="none" />
  <path d="M 322 574.5  C 325.08 574.5  327.5 576.92  327.5 580  C 327.5 583.08  325.08 585.5  322 585.5  C 318.92 585.5  316.5 583.08  316.5 580  C 316.5 576.92  318.92 574.5  322 574.5  Z " stroke-width="1" stroke="#797979" fill="none" />
  <path d="M 322 583  C 320.32 583  319 581.68  319 580  C 319 578.32  320.32 577  322 577  C 323.68 577  325 578.32  325 580  C 325 581.68  323.68 583  322 583  " fill-rule="nonzero" fill="#797979" stroke="none" />
</svg>