<?xml version="1.0" encoding="utf-8"?>
<svg version="1.1" xmlns:xlink="http://www.w3.org/1999/xlink" width="12px" height="12px" viewBox="282 1205  12 12" xmlns="http://www.w3.org/2000/svg">
  <path d="M 288 1205  C 291.36 1205  294 1207.64  294 1211  C 294 1214.36  291.36 1217  288 1217  C 284.64 1217  282 1214.36  282 1211  C 282 1207.64  284.64 1205  288 1205  Z " fill-rule="nonzero" fill="#ffffff" stroke="none" />
  <path d="M 288 1205.5  C 291.08 1205.5  293.5 1207.92  293.5 1211  C 293.5 1214.08  291.08 1216.5  288 1216.5  C 284.92 1216.5  282.5 1214.08  282.5 1211  C 282.5 1207.92  284.92 1205.5  288 1205.5  Z " stroke-width="1" stroke="#797979" fill="none" />
  <path d="M 288 1214  C 286.32 1214  285 1212.68  285 1211  C 285 1209.32  286.32 1208  288 1208  C 289.68 1208  291 1209.32  291 1211  C 291 1212.68  289.68 1214  288 1214  " fill-rule="nonzero" fill="#797979" stroke="none" />
</svg>