<?xml version="1.0" encoding="utf-8"?>
<svg version="1.1" xmlns:xlink="http://www.w3.org/1999/xlink" width="12px" height="12px" viewBox="396 468  12 12" xmlns="http://www.w3.org/2000/svg">
  <path d="M 402 468  C 405.36 468  408 470.64  408 474  C 408 477.36  405.36 480  402 480  C 398.64 480  396 477.36  396 474  C 396 470.64  398.64 468  402 468  Z " fill-rule="nonzero" fill="#ffffff" stroke="none" />
  <path d="M 402 468.5  C 405.08 468.5  407.5 470.92  407.5 474  C 407.5 477.08  405.08 479.5  402 479.5  C 398.92 479.5  396.5 477.08  396.5 474  C 396.5 470.92  398.92 468.5  402 468.5  Z " stroke-width="1" stroke="#797979" fill="none" />
  <path d="M 402 477  C 400.32 477  399 475.68  399 474  C 399 472.32  400.32 471  402 471  C 403.68 471  405 472.32  405 474  C 405 475.68  403.68 477  402 477  " fill-rule="nonzero" fill="#797979" stroke="none" />
</svg>