<?xml version="1.0" encoding="utf-8"?>
<svg version="1.1" xmlns:xlink="http://www.w3.org/1999/xlink" width="12px" height="12px" viewBox="167 1205  12 12" xmlns="http://www.w3.org/2000/svg">
  <path d="M 173 1205  C 176.36 1205  179 1207.64  179 1211  C 179 1214.36  176.36 1217  173 1217  C 169.64 1217  167 1214.36  167 1211  C 167 1207.64  169.64 1205  173 1205  Z " fill-rule="nonzero" fill="#ffffff" stroke="none" />
  <path d="M 173 1205.5  C 176.08 1205.5  178.5 1207.92  178.5 1211  C 178.5 1214.08  176.08 1216.5  173 1216.5  C 169.92 1216.5  167.5 1214.08  167.5 1211  C 167.5 1207.92  169.92 1205.5  173 1205.5  Z " stroke-width="1" stroke="#797979" fill="none" />
  <path d="M 173 1214  C 171.32 1214  170 1212.68  170 1211  C 170 1209.32  171.32 1208  173 1208  C 174.68 1208  176 1209.32  176 1211  C 176 1212.68  174.68 1214  173 1214  " fill-rule="nonzero" fill="#797979" stroke="none" />
</svg>