<?xml version="1.0" encoding="utf-8"?>
<svg version="1.1" xmlns:xlink="http://www.w3.org/1999/xlink" width="12px" height="12px" viewBox="291 117  12 12" xmlns="http://www.w3.org/2000/svg">
  <path d="M 297 117  C 300.36 117  303 119.64  303 123  C 303 126.36  300.36 129  297 129  C 293.64 129  291 126.36  291 123  C 291 119.64  293.64 117  297 117  Z " fill-rule="nonzero" fill="#ffffff" stroke="none" />
  <path d="M 297 117.5  C 300.08 117.5  302.5 119.92  302.5 123  C 302.5 126.08  300.08 128.5  297 128.5  C 293.92 128.5  291.5 126.08  291.5 123  C 291.5 119.92  293.92 117.5  297 117.5  Z " stroke-width="1" stroke="#797979" fill="none" />
  <path d="M 297 126  C 295.32 126  294 124.68  294 123  C 294 121.32  295.32 120  297 120  C 298.68 120  300 121.32  300 123  C 300 124.68  298.68 126  297 126  " fill-rule="nonzero" fill="#797979" stroke="none" />
</svg>