<?xml version="1.0" encoding="utf-8"?>
<svg version="1.1" xmlns:xlink="http://www.w3.org/1999/xlink" width="12px" height="12px" viewBox="210 328  12 12" xmlns="http://www.w3.org/2000/svg">
  <path d="M 216 328  C 219.36 328  222 330.64  222 334  C 222 337.36  219.36 340  216 340  C 212.64 340  210 337.36  210 334  C 210 330.64  212.64 328  216 328  Z " fill-rule="nonzero" fill="#ffffff" stroke="none" />
  <path d="M 216 328.5  C 219.08 328.5  221.5 330.92  221.5 334  C 221.5 337.08  219.08 339.5  216 339.5  C 212.92 339.5  210.5 337.08  210.5 334  C 210.5 330.92  212.92 328.5  216 328.5  Z " stroke-width="1" stroke="#797979" fill="none" />
  <path d="M 216 337  C 214.32 337  213 335.68  213 334  C 213 332.32  214.32 331  216 331  C 217.68 331  219 332.32  219 334  C 219 335.68  217.68 337  216 337  " fill-rule="nonzero" fill="#797979" stroke="none" />
</svg>