<?xml version="1.0" encoding="utf-8"?>
<svg version="1.1" xmlns:xlink="http://www.w3.org/1999/xlink" width="12px" height="12px" viewBox="210 219  12 12" xmlns="http://www.w3.org/2000/svg">
  <path d="M 216 219  C 219.36 219  222 221.64  222 225  C 222 228.36  219.36 231  216 231  C 212.64 231  210 228.36  210 225  C 210 221.64  212.64 219  216 219  Z " fill-rule="nonzero" fill="#ffffff" stroke="none" />
  <path d="M 216 219.5  C 219.08 219.5  221.5 221.92  221.5 225  C 221.5 228.08  219.08 230.5  216 230.5  C 212.92 230.5  210.5 228.08  210.5 225  C 210.5 221.92  212.92 219.5  216 219.5  Z " stroke-width="1" stroke="#797979" fill="none" />
  <path d="M 216 228  C 214.32 228  213 226.68  213 225  C 213 223.32  214.32 222  216 222  C 217.68 222  219 223.32  219 225  C 219 226.68  217.68 228  216 228  " fill-rule="nonzero" fill="#797979" stroke="none" />
</svg>