<?xml version="1.0" encoding="utf-8"?>
<svg version="1.1" xmlns:xlink="http://www.w3.org/1999/xlink" width="12px" height="12px" viewBox="346 219  12 12" xmlns="http://www.w3.org/2000/svg">
  <path d="M 352 219  C 355.36 219  358 221.64  358 225  C 358 228.36  355.36 231  352 231  C 348.64 231  346 228.36  346 225  C 346 221.64  348.64 219  352 219  Z " fill-rule="nonzero" fill="#ffffff" stroke="none" />
  <path d="M 352 219.5  C 355.08 219.5  357.5 221.92  357.5 225  C 357.5 228.08  355.08 230.5  352 230.5  C 348.92 230.5  346.5 228.08  346.5 225  C 346.5 221.92  348.92 219.5  352 219.5  Z " stroke-width="1" stroke="#797979" fill="none" />
  <path d="M 352 228  C 350.32 228  349 226.68  349 225  C 349 223.32  350.32 222  352 222  C 353.68 222  355 223.32  355 225  C 355 226.68  353.68 228  352 228  " fill-rule="nonzero" fill="#797979" stroke="none" />
</svg>