<?xml version="1.0" encoding="utf-8"?>
<svg version="1.1" xmlns:xlink="http://www.w3.org/1999/xlink" width="12px" height="12px" viewBox="448 97  12 12" xmlns="http://www.w3.org/2000/svg">
  <path d="M 454 97  C 457.36 97  460 99.64  460 103  C 460 106.36  457.36 109  454 109  C 450.64 109  448 106.36  448 103  C 448 99.64  450.64 97  454 97  Z " fill-rule="nonzero" fill="#ffffff" stroke="none" />
  <path d="M 454 97.5  C 457.08 97.5  459.5 99.92  459.5 103  C 459.5 106.08  457.08 108.5  454 108.5  C 450.92 108.5  448.5 106.08  448.5 103  C 448.5 99.92  450.92 97.5  454 97.5  Z " stroke-width="1" stroke="#797979" fill="none" />
  <path d="M 454 106  C 452.32 106  451 104.68  451 103  C 451 101.32  452.32 100  454 100  C 455.68 100  457 101.32  457 103  C 457 104.68  455.68 106  454 106  " fill-rule="nonzero" fill="#797979" stroke="none" />
</svg>