<?xml version="1.0" encoding="utf-8"?>
<svg version="1.1" xmlns:xlink="http://www.w3.org/1999/xlink" width="12px" height="12px" viewBox="288 97  12 12" xmlns="http://www.w3.org/2000/svg">
  <path d="M 294 97  C 297.36 97  300 99.64  300 103  C 300 106.36  297.36 109  294 109  C 290.64 109  288 106.36  288 103  C 288 99.64  290.64 97  294 97  Z " fill-rule="nonzero" fill="#ffffff" stroke="none" />
  <path d="M 294 97.5  C 297.08 97.5  299.5 99.92  299.5 103  C 299.5 106.08  297.08 108.5  294 108.5  C 290.92 108.5  288.5 106.08  288.5 103  C 288.5 99.92  290.92 97.5  294 97.5  Z " stroke-width="1" stroke="#797979" fill="none" />
  <path d="M 294 106  C 292.32 106  291 104.68  291 103  C 291 101.32  292.32 100  294 100  C 295.68 100  297 101.32  297 103  C 297 104.68  295.68 106  294 106  " fill-rule="nonzero" fill="#797979" stroke="none" />
</svg>