<?xml version="1.0" encoding="utf-8"?>
<svg version="1.1" xmlns:xlink="http://www.w3.org/1999/xlink" width="12px" height="12px" viewBox="210 97  12 12" xmlns="http://www.w3.org/2000/svg">
  <path d="M 216 97  C 219.36 97  222 99.64  222 103  C 222 106.36  219.36 109  216 109  C 212.64 109  210 106.36  210 103  C 210 99.64  212.64 97  216 97  Z " fill-rule="nonzero" fill="#ffffff" stroke="none" />
  <path d="M 216 97.5  C 219.08 97.5  221.5 99.92  221.5 103  C 221.5 106.08  219.08 108.5  216 108.5  C 212.92 108.5  210.5 106.08  210.5 103  C 210.5 99.92  212.92 97.5  216 97.5  Z " stroke-width="1" stroke="#797979" fill="none" />
  <path d="M 216 106  C 214.32 106  213 104.68  213 103  C 213 101.32  214.32 100  216 100  C 217.68 100  219 101.32  219 103  C 219 104.68  217.68 106  216 106  " fill-rule="nonzero" fill="#797979" stroke="none" />
</svg>