<?xml version="1.0" encoding="utf-8"?>
<svg version="1.1" xmlns:xlink="http://www.w3.org/1999/xlink" width="12px" height="12px" viewBox="210 147  12 12" xmlns="http://www.w3.org/2000/svg">
  <path d="M 216 147  C 219.36 147  222 149.64  222 153  C 222 156.36  219.36 159  216 159  C 212.64 159  210 156.36  210 153  C 210 149.64  212.64 147  216 147  Z " fill-rule="nonzero" fill="#ffffff" stroke="none" />
  <path d="M 216 147.5  C 219.08 147.5  221.5 149.92  221.5 153  C 221.5 156.08  219.08 158.5  216 158.5  C 212.92 158.5  210.5 156.08  210.5 153  C 210.5 149.92  212.92 147.5  216 147.5  Z " stroke-width="1" stroke="#797979" fill="none" />
  <path d="M 216 156  C 214.32 156  213 154.68  213 153  C 213 151.32  214.32 150  216 150  C 217.68 150  219 151.32  219 153  C 219 154.68  217.68 156  216 156  " fill-rule="nonzero" fill="#797979" stroke="none" />
</svg>