<?xml version="1.0" encoding="utf-8"?>
<svg version="1.1" xmlns:xlink="http://www.w3.org/1999/xlink" width="12px" height="12px" viewBox="210 347  12 12" xmlns="http://www.w3.org/2000/svg">
  <path d="M 216 347  C 219.36 347  222 349.64  222 353  C 222 356.36  219.36 359  216 359  C 212.64 359  210 356.36  210 353  C 210 349.64  212.64 347  216 347  Z " fill-rule="nonzero" fill="#ffffff" stroke="none" />
  <path d="M 216 347.5  C 219.08 347.5  221.5 349.92  221.5 353  C 221.5 356.08  219.08 358.5  216 358.5  C 212.92 358.5  210.5 356.08  210.5 353  C 210.5 349.92  212.92 347.5  216 347.5  Z " stroke-width="1" stroke="#797979" fill="none" />
  <path d="M 216 356  C 214.32 356  213 354.68  213 353  C 213 351.32  214.32 350  216 350  C 217.68 350  219 351.32  219 353  C 219 354.68  217.68 356  216 356  " fill-rule="nonzero" fill="#797979" stroke="none" />
</svg>