<?xml version="1.0" encoding="utf-8"?>
<svg version="1.1" xmlns:xlink="http://www.w3.org/1999/xlink" width="12px" height="12px" viewBox="368 347  12 12" xmlns="http://www.w3.org/2000/svg">
  <path d="M 374 347  C 377.36 347  380 349.64  380 353  C 380 356.36  377.36 359  374 359  C 370.64 359  368 356.36  368 353  C 368 349.64  370.64 347  374 347  Z " fill-rule="nonzero" fill="#ffffff" stroke="none" />
  <path d="M 374 347.5  C 377.08 347.5  379.5 349.92  379.5 353  C 379.5 356.08  377.08 358.5  374 358.5  C 370.92 358.5  368.5 356.08  368.5 353  C 368.5 349.92  370.92 347.5  374 347.5  Z " stroke-width="1" stroke="#797979" fill="none" />
  <path d="M 374 356  C 372.32 356  371 354.68  371 353  C 371 351.32  372.32 350  374 350  C 375.68 350  377 351.32  377 353  C 377 354.68  375.68 356  374 356  " fill-rule="nonzero" fill="#797979" stroke="none" />
</svg>