<?xml version="1.0" encoding="utf-8"?>
<svg version="1.1" xmlns:xlink="http://www.w3.org/1999/xlink" width="12px" height="12px" viewBox="288 597  12 12" xmlns="http://www.w3.org/2000/svg">
  <path d="M 294 597  C 297.36 597  300 599.64  300 603  C 300 606.36  297.36 609  294 609  C 290.64 609  288 606.36  288 603  C 288 599.64  290.64 597  294 597  Z " fill-rule="nonzero" fill="#ffffff" stroke="none" />
  <path d="M 294 597.5  C 297.08 597.5  299.5 599.92  299.5 603  C 299.5 606.08  297.08 608.5  294 608.5  C 290.92 608.5  288.5 606.08  288.5 603  C 288.5 599.92  290.92 597.5  294 597.5  Z " stroke-width="1" stroke="#797979" fill="none" />
  <path d="M 294 606  C 292.32 606  291 604.68  291 603  C 291 601.32  292.32 600  294 600  C 295.68 600  297 601.32  297 603  C 297 604.68  295.68 606  294 606  " fill-rule="nonzero" fill="#797979" stroke="none" />
</svg>