<?xml version="1.0" encoding="utf-8"?>
<svg version="1.1" xmlns:xlink="http://www.w3.org/1999/xlink" width="12px" height="12px" viewBox="210 597  12 12" xmlns="http://www.w3.org/2000/svg">
  <path d="M 216 597  C 219.36 597  222 599.64  222 603  C 222 606.36  219.36 609  216 609  C 212.64 609  210 606.36  210 603  C 210 599.64  212.64 597  216 597  Z " fill-rule="nonzero" fill="#ffffff" stroke="none" />
  <path d="M 216 597.5  C 219.08 597.5  221.5 599.92  221.5 603  C 221.5 606.08  219.08 608.5  216 608.5  C 212.92 608.5  210.5 606.08  210.5 603  C 210.5 599.92  212.92 597.5  216 597.5  Z " stroke-width="1" stroke="#797979" fill="none" />
  <path d="M 216 606  C 214.32 606  213 604.68  213 603  C 213 601.32  214.32 600  216 600  C 217.68 600  219 601.32  219 603  C 219 604.68  217.68 606  216 606  " fill-rule="nonzero" fill="#797979" stroke="none" />
</svg>