<?xml version="1.0" encoding="utf-8"?>
<svg version="1.1" xmlns:xlink="http://www.w3.org/1999/xlink" width="10px" height="10px" xmlns="http://www.w3.org/2000/svg">
  <g transform="matrix(1 0 0 1 -87 -9 )">
    <path d="M 9.76430976430976 7.47474747474746  C 9.92143658810329 7.63187429854099  10 7.8226711560045  10 8.04713804713805  C 10 8.27160493827159  9.92143658810329 8.4624017957351  9.76430976430976 8.61952861952864  L 8.61952861952861 9.76430976430976  C 8.46240179573513 9.92143658810323  8.27160493827159 10  8.04713804713805 10  C 7.8226711560045 10  7.63187429854096 9.92143658810323  7.47474747474746 9.76430976430976  L 5 7.2895622895623  L 2.52525252525254 9.76430976430976  C 2.36812570145904 9.92143658810323  2.17732884399553 10  1.95286195286195 10  C 1.72839506172838 10  1.53759820426487 9.92143658810323  1.38047138047139 9.76430976430976  L 0.235690235690242 8.61952861952864  C 0.0785634118967664 8.4624017957351  0 8.27160493827159  0 8.04713804713805  C 0 7.8226711560045  0.0785634118967664 7.63187429854099  0.235690235690242 7.47474747474746  L 2.7104377104377 5  L 0.235690235690242 2.52525252525254  C 0.0785634118967664 2.36812570145901  0 2.1773288439955  0 1.95286195286195  C 0 1.72839506172841  0.0785634118967664 1.5375982042649  0.235690235690242 1.38047138047136  L 1.38047138047139 0.235690235690242  C 1.53759820426487 0.0785634118967664  1.72839506172838 0  1.95286195286195 0  C 2.17732884399553 0  2.36812570145904 0.0785634118967664  2.52525252525254 0.235690235690242  L 5 2.7104377104377  L 7.47474747474746 0.235690235690242  C 7.63187429854096 0.0785634118967664  7.8226711560045 0  8.04713804713805 0  C 8.27160493827159 0  8.46240179573513 0.0785634118967664  8.61952861952861 0.235690235690242  L 9.76430976430976 1.38047138047136  C 9.92143658810329 1.5375982042649  10 1.72839506172841  10 1.95286195286195  C 10 2.1773288439955  9.92143658810329 2.36812570145901  9.76430976430976 2.52525252525254  L 7.2895622895623 5  L 9.76430976430976 7.47474747474746  Z " fill-rule="nonzero" fill="#cccccc" stroke="none" transform="matrix(1 0 0 1 87 9 )" />
  </g>
</svg>