<?xml version="1.0" encoding="utf-8"?>
<svg version="1.1" xmlns:xlink="http://www.w3.org/1999/xlink" width="50px" height="40px" xmlns="http://www.w3.org/2000/svg">
  <g transform="matrix(1 0 0 1 -221 -233 )">
    <path d="M 15.2083333333333 8.125  C 16.1805555555556 9.09722222222222  16.6666666666667 10.2777777777778  16.6666666666667 11.6666666666667  C 16.6666666666667 13.0555555555556  16.1805555555556 14.2361111111111  15.2083333333333 15.2083333333333  C 14.2361111111111 16.1805555555556  13.0555555555556 16.6666666666667  11.6666666666667 16.6666666666667  C 10.2777777777778 16.6666666666667  9.09722222222222 16.1805555555556  8.125 15.2083333333333  C 7.15277777777778 14.2361111111111  6.66666666666667 13.0555555555556  6.66666666666667 11.6666666666667  C 6.66666666666667 10.2777777777778  7.15277777777778 9.09722222222222  8.125 8.125  C 9.09722222222222 7.15277777777777  10.2777777777778 6.66666666666667  11.6666666666667 6.66666666666667  C 13.0555555555556 6.66666666666667  14.2361111111111 7.15277777777777  15.2083333333333 8.125  Z M 32.5 10.8333333333333  L 43 21.6666666666667  L 43 33  L 6.66666666666667 33  L 6.66666666666667 28.3333333333333  L 15 20  L 19.1666666666667 24.1666666666667  L 32.5 10.8333333333333  Z M 46.4192708333333 3.58072916666667  C 46.2543402777778 3.41579861111111  46.0590277777778 3.33333333333333  45.8333333333333 4  L 4.16666666666667 4  C 3.94097222222222 3.33333333333333  3.74565972222222 3.41579861111111  3.58072916666667 3.58072916666667  C 3.41579861111111 3.74565972222222  3.33333333333333 3.94097222222222  4 4.16666666666667  L 4 35.8333333333333  C 3.33333333333333 36.0590277777778  3.41579861111111 36.2543402777778  3.58072916666667 36.4192708333333  C 3.74565972222222 36.5842013888889  3.94097222222222 36.6666666666667  4.16666666666667 36  L 45.8333333333333 36  C 46.0590277777778 36.6666666666667  46.2543402777778 36.5842013888889  46.4192708333333 36.4192708333333  C 46.5842013888889 36.2543402777778  46.6666666666667 36.0590277777778  46 35.8333333333333  L 46 4.16666666666667  C 46.6666666666667 3.94097222222222  46.5842013888889 3.74565972222222  46.4192708333333 3.58072916666667  Z M 48.7760416666667 1.22395833333333  C 49.5920138888889 2.03993055555555  50 3.02083333333333  50 4.16666666666667  L 50 35.8333333333333  C 50 36.9791666666667  49.5920138888889 37.9600694444444  48.7760416666667 38.7760416666667  C 47.9600694444445 39.5920138888889  46.9791666666667 40  45.8333333333333 40  L 4.16666666666667 40  C 3.02083333333333 40  2.03993055555556 39.5920138888889  1.22395833333333 38.7760416666667  C 0.407986111111111 37.9600694444444  0 36.9791666666667  0 35.8333333333333  L 0 4.16666666666667  C 0 3.02083333333333  0.407986111111111 2.03993055555555  1.22395833333333 1.22395833333333  C 2.03993055555556 0.407986111111107  3.02083333333333 0  4.16666666666667 0  L 45.8333333333333 0  C 46.9791666666667 0  47.9600694444445 0.407986111111107  48.7760416666667 1.22395833333333  Z " fill-rule="nonzero" fill="#333333" stroke="none" transform="matrix(1 0 0 1 221 233 )" />
  </g>
</svg>