<?xml version="1.0" encoding="utf-8"?>
<svg version="1.1" xmlns:xlink="http://www.w3.org/1999/xlink" width="35px" height="29px" xmlns="http://www.w3.org/2000/svg">
  <g transform="matrix(1 0 0 1 -1033 -218 )">
    <path d="M 9.48486328125 8.07583932853717  C 9.76969401041667 7.79186650679456  9.912109375 7.41227018385292  9.912109375 6.93705035971223  C 9.912109375 6.46183053557154  9.76969401041667 6.07933653077538  9.48486328125 5.78956834532374  C 9.20003255208333 5.4998001598721  8.82405598958333 5.35491606714628  8.35693359375 5.35491606714628  C 7.86702473958333 5.35491606714628  7.43408203125 5.50269784172662  7.05810546875 5.79826139088729  C 6.68212890625 6.09382494004796  6.494140625 6.47342126298961  6.494140625 6.93705035971223  C 6.494140625 7.38908872901679  6.68212890625 7.7628896882494  7.05810546875 8.05845323741007  C 7.43408203125 8.35401678657074  7.86702473958333 8.50179856115108  8.35693359375 8.50179856115108  C 8.82405598958333 8.50179856115108  9.20003255208333 8.35981215027977  9.48486328125 8.07583932853717  Z M 22.174072265625 16.6384892086331  C 22.464599609375 16.3834932054356  22.60986328125 16.087929656275  22.60986328125 15.7517985611511  C 22.60986328125 15.4272581934452  22.464599609375 15.1374900079936  22.174072265625 14.8824940047962  C 21.883544921875 14.6274980015987  21.5104166666667 14.5  21.0546875 14.5  C 20.7470703125 14.5  20.465087890625 14.6303956834532  20.208740234375 14.8911870503597  C 19.952392578125 15.1519784172662  19.82421875 15.4388489208633  19.82421875 15.7517985611511  C 19.82421875 16.0763389288569  19.952392578125 16.3690047961631  20.208740234375 16.6297961630695  C 20.465087890625 16.890587529976  20.7470703125 17.0209832134293  21.0546875 17.0209832134293  C 21.5104166666667 17.0209832134293  21.883544921875 16.8934852118305  22.174072265625 16.6384892086331  Z M 18.157958984375 8.07583932853717  C 18.4370930989583 7.79186650679456  18.57666015625 7.41227018385292  18.57666015625 6.93705035971223  C 18.57666015625 6.46183053557154  18.4370930989583 6.07933653077538  18.157958984375 5.78956834532374  C 17.8788248697917 5.4998001598721  17.5056966145833 5.35491606714628  17.03857421875 5.35491606714628  C 16.5486653645833 5.35491606714628  16.11572265625 5.50269784172662  15.73974609375 5.79826139088729  C 15.36376953125 6.09382494004796  15.17578125 6.47342126298961  15.17578125 6.93705035971223  C 15.17578125 7.38908872901679  15.36376953125 7.7628896882494  15.73974609375 8.05845323741007  C 16.11572265625 8.35401678657074  16.5486653645833 8.50179856115108  17.03857421875 8.50179856115108  C 17.5056966145833 8.50179856115108  17.8788248697917 8.35981215027977  18.157958984375 8.07583932853717  Z M 28.984375 16.6384892086331  C 29.2805989583333 16.3834932054356  29.4287109375 16.087929656275  29.4287109375 15.7517985611511  C 29.4287109375 15.4272581934452  29.2805989583333 15.1374900079936  28.984375 14.8824940047962  C 28.6881510416667 14.6274980015987  28.31787109375 14.5  27.87353515625 14.5  C 27.56591796875 14.5  27.283935546875 14.6303956834532  27.027587890625 14.8911870503597  C 26.771240234375 15.1519784172662  26.64306640625 15.4388489208633  26.64306640625 15.7517985611511  C 26.64306640625 16.0763389288569  26.771240234375 16.3690047961631  27.027587890625 16.6297961630695  C 27.283935546875 16.890587529976  27.56591796875 17.0209832134293  27.87353515625 17.0209832134293  C 28.31787109375 17.0209832134293  28.6881510416667 16.8934852118305  28.984375 16.6384892086331  Z M 22.550048828125 4.32044364508393  C 23.7520345052083 5.67076338928857  24.5296223958333 7.18045563549161  24.8828125 8.84952038369305  C 24.5296223958333 8.80315747402078  24.130859375 8.77997601918465  23.6865234375 8.77997601918465  C 21.7610677083333 8.77997601918465  19.9894205729167 9.22621902478017  18.37158203125 10.1187050359712  C 16.7537434895833 11.0111910471623  15.4805501302083 12.2195243804956  14.552001953125 13.7437050359712  C 13.6234537760417 15.2678856914468  13.1591796875 16.9340527577938  13.1591796875 18.742206235012  C 13.1591796875 19.6462829736211  13.2902018229167 20.5271782573941  13.55224609375 21.3848920863309  C 13.1534830729167 21.4196642685851  12.76611328125 21.4370503597122  12.39013671875 21.4370503597122  C 12.0939127604167 21.4370503597122  11.80908203125 21.4283573141487  11.53564453125 21.4109712230216  C 11.26220703125 21.3935851318945  10.9488932291667 21.3559152677858  10.595703125 21.2979616306954  C 10.2425130208333 21.2400079936051  9.989013671875 21.1994404476419  9.835205078125 21.1762589928058  C 9.681396484375 21.1530775379696  9.37093098958333 21.0922262190248  8.90380859375 20.9937050359712  C 8.43668619791667 20.8951838529177  8.15185546875 20.8343325339728  8.04931640625 20.8111510791367  L 3.7255859375 23.0191846522782  L 4.9560546875 19.2290167865707  C 1.65201822916667 16.8760991207034  0 14.0363709032774  0 10.7098321342926  C 0 8.75099920063949  0.555419921875 6.94864108713029  1.666259765625 5.30275779376499  C 2.777099609375 3.65687450039968  4.281005859375 2.36161071143085  6.177978515625 1.41696642685851  C 8.074951171875 0.472322142286169  10.1456705729167 0  12.39013671875 0  C 14.3953450520833 0  16.2894694010417 0.382494004796164  18.072509765625 1.14748201438849  C 19.8555501302083 1.91247002398082  21.3480631510417 2.9701239008793  22.550048828125 4.32044364508393  Z M 33.538818359375 14.0218824940048  C 34.512939453125 15.4301558752998  35 16.9572342126299  35 18.6031175059952  C 35 19.9592326139089  34.6097819010417 21.2544964028777  33.829345703125 22.4889088729017  C 33.0489095052083 23.7233213429257  31.9921875 24.8447242206235  30.6591796875 25.8531175059952  L 31.59912109375 29  L 28.1982421875 27.1049160671463  C 26.4892578125 27.5337729816147  25.2473958333333 27.7482014388489  24.47265625 27.7482014388489  C 22.5472005208333 27.7482014388489  20.7755533854167 27.3396282973621  19.15771484375 26.5224820143885  C 17.5398763020833 25.7053357314149  16.2666829427083 24.5955235811351  15.338134765625 23.1930455635492  C 14.4095865885417 21.7905675459632  13.9453125 20.2605915267786  13.9453125 18.6031175059952  C 13.9453125 16.9456434852118  14.4095865885417 15.4156674660272  15.338134765625 14.0131894484412  C 16.2666829427083 12.6107114308553  17.5398763020833 11.5008992805755  19.15771484375 10.6837529976019  C 20.7755533854167 9.8666067146283  22.5472005208333 9.45803357314149  24.47265625 9.45803357314149  C 26.3069661458333 9.45803357314149  28.0330403645833 9.8666067146283  29.65087890625 10.6837529976019  C 31.2687174479167 11.5008992805755  32.564697265625 12.6136091127098  33.538818359375 14.0218824940048  Z " fill-rule="nonzero" fill="#008000" stroke="none" transform="matrix(1 0 0 1 1033 218 )" />
  </g>
</svg>