<?xml version="1.0" encoding="utf-8"?>
<svg version="1.1" xmlns:xlink="http://www.w3.org/1999/xlink" width="10px" height="10px" xmlns="http://www.w3.org/2000/svg">
  <g transform="matrix(1 0 0 1 -50 -40 )">
    <path d="M 55 40  C 57.8 40  60 42.2  60 45  C 60 47.8  57.8 50  55 50  C 52.2 50  50 47.8  50 45  C 50 42.2  52.2 40  55 40  Z " fill-rule="nonzero" fill="#ff9500" stroke="none" />
    <path d="M 55 40.5  C 57.52 40.5  59.5 42.48  59.5 45  C 59.5 47.52  57.52 49.5  55 49.5  C 52.48 49.5  50.5 47.52  50.5 45  C 50.5 42.48  52.48 40.5  55 40.5  Z " stroke-width="1" stroke="#797979" fill="none" />
  </g>
</svg>