<?xml version="1.0" encoding="utf-8"?>
<svg version="1.1" xmlns:xlink="http://www.w3.org/1999/xlink" width="15px" height="15px" xmlns="http://www.w3.org/2000/svg">
  <g transform="matrix(1 0 0 1 -450 -10 )">
    <path d="M 14.6630859375 8.84277343750003  C 14.7249348958333 8.90462239583334  14.755859375 8.97786458333334  14.755859375 9.06250000000003  C 14.755859375 9.09505208333336  14.7526041666667 9.11783854166667  14.74609375 9.13085937500002  C 14.3294270833333 10.8756510416667  13.45703125 12.2900390625  12.12890625 13.3740234375  C 10.80078125 14.4580078125  9.24479166666669 15  7.4609375 15  C 6.51041666666669 15  5.5908203125 14.8209635416667  4.7021484375 14.462890625  C 3.8134765625 14.1048177083334  3.02083333333331 13.59375  2.32421875 12.9296875  L 1.064453125 14.189453125  C 0.940755208333315 14.3131510416667  0.794270833333314 14.375  0.625 14.375  C 0.455729166666686 14.375  0.309244791666686 14.3131510416667  0.185546875 14.189453125  C 0.0618489583333144 14.0657552083334  0 13.9192708333334  0 13.75  L 0 9.375  C 0 9.20572916666669  0.0618489583333144 9.05924479166669  0.185546875 8.935546875  C 0.309244791666686 8.81184895833331  0.455729166666686 8.75  0.625 8.75  L 5 8.75  C 5.16927083333331 8.75  5.31575520833331 8.81184895833331  5.439453125 8.935546875  C 5.56315104166669 9.05924479166669  5.625 9.20572916666669  5.625 9.375  C 5.625 9.54427083333337  5.56315104166669 9.69075520833337  5.439453125 9.814453125  L 4.1015625 11.15234375  C 4.56380208333331 11.58203125  5.087890625 11.9140625  5.673828125 12.1484375  C 6.259765625 12.3828125  6.86848958333331 12.5  7.5 12.5  C 8.37239583333331 12.5  9.18619791666669 12.2884114583333  9.94140625 11.865234375  C 10.6966145833333 11.4420572916667  11.3020833333333 10.859375  11.7578125 10.1171875  C 11.8294270833333 10.0065104166667  12.001953125 9.62565104166666  12.275390625 8.97460937500001  C 12.3274739583333 8.82486979166667  12.4251302083333 8.75  12.568359375 8.75  L 14.443359375 8.75  C 14.5279947916667 8.75  14.6012369791667 8.78092447916666  14.6630859375 8.84277343750003  Z M 14.814453125 0.810546875000003  C 14.9381510416667 0.93424479166669  15 1.08072916666669  15 1.25  L 15 5.625  C 15 5.79427083333331  14.9381510416667 5.94075520833337  14.814453125 6.064453125  C 14.6907552083333 6.18815104166668  14.5442708333333 6.25  14.375 6.25  L 10 6.25  C 9.83072916666669 6.25  9.68424479166669 6.18815104166668  9.560546875 6.064453125  C 9.43684895833331 5.94075520833337  9.375 5.79427083333331  9.375 5.625  C 9.375 5.45572916666669  9.43684895833331 5.30924479166669  9.560546875 5.185546875  L 10.908203125 3.83789062500002  C 9.94466145833331 2.94596354166667  8.80859375 2.5  7.5 2.5  C 6.62760416666669 2.5  5.81380208333331 2.71158854166665  5.05859375 3.13476562500002  C 4.30338541666669 3.55794270833332  3.69791666666669 4.14062499999998  3.2421875 4.88281249999999  C 3.17057291666669 4.99348958333332  2.998046875 5.37434895833334  2.724609375 6.02539062499999  C 2.67252604166669 6.17513020833333  2.57486979166669 6.25  2.431640625 6.25  L 0.48828125 6.25  C 0.403645833333314 6.25  0.330403645833314 6.21907552083334  0.2685546875 6.15722656250003  C 0.206705729166686 6.09537760416665  0.17578125 6.02213541666666  0.17578125 5.93750000000003  L 0.17578125 5.86914062499998  C 0.598958333333314 4.12434895833334  1.47786458333331 2.70996093749998  2.8125 1.62597656250001  C 4.14713541666669 0.541992187499985  5.70963541666669 0  7.5 0  C 8.45052083333331 0  9.375 0.180664062499995  10.2734375 0.541992187499985  C 11.171875 0.903320312499976  11.9694010416667 1.41276041666669  12.666015625 2.07031250000002  L 13.935546875 0.810546875000003  C 14.0592447916667 0.686848958333315  14.2057291666667 0.625  14.375 0.625  C 14.5442708333333 0.625  14.6907552083333 0.686848958333315  14.814453125 0.810546875000003  Z " fill-rule="nonzero" fill="#34aadc" stroke="none" transform="matrix(1 0 0 1 450 10 )" />
  </g>
</svg>