<?xml version="1.0" encoding="utf-8"?>
<svg version="1.1" xmlns:xlink="http://www.w3.org/1999/xlink" width="48px" height="48px" xmlns="http://www.w3.org/2000/svg">
  <g transform="matrix(1 0 0 1 -231 -385 )">
    <path d="M 231 385  L 279 385  L 279 433  L 231 433  L 231 385  " fill-rule="nonzero" fill="#cccccc" stroke="none" />
    <path d="M 234 388  L 276 388  L 276 430  L 234 430  L 234 388  " fill-rule="nonzero" fill="#ffffff" stroke="none" />
    <path d="M 259.56 399.4  C 257.544 399.4  255.96 397.816  255.96 395.8  C 255.96 393.784  257.544 392.2  259.56 392.2  C 261.576 392.2  263.16 393.784  263.16 395.8  C 263.16 397.816  261.576 399.4  259.56 399.4  " fill-rule="nonzero" fill="#cccccc" stroke="none" />
    <path d="M 235 429  L 235 407  L 245 397  L 259 405  L 267 403  L 275 405  L 275 429  L 235 429  " fill-rule="nonzero" fill="#169bd5" stroke="none" />
  </g>
</svg>