<?xml version="1.0" encoding="utf-8"?>
<svg version="1.1" xmlns:xlink="http://www.w3.org/1999/xlink" width="27px" height="33px" xmlns="http://www.w3.org/2000/svg">
  <defs>
    <filter x="530px" y="161px" width="27px" height="33px" filterUnits="userSpaceOnUse" id="filter151">
      <feOffset dx="1" dy="1" in="SourceAlpha" result="shadowOffsetInner" />
      <feGaussianBlur stdDeviation="2.5" in="shadowOffsetInner" result="shadowGaussian" />
      <feComposite in2="shadowGaussian" operator="atop" in="SourceAlpha" result="shadowComposite" />
      <feColorMatrix type="matrix" values="0 0 0 0 0  0 0 0 0 0  0 0 0 0 0  0 0 0 0.698039215686274 0  " in="shadowComposite" />
    </filter>
    <g id="widget152">
      <path d="M 542.5 187.02735899765  C 539.3 181.651451690861  534.5 178.425907306788  534.5 173.05  C 534.5 170.245714285714  536.1 165.5  542.5 165.5  C 548.9 165.5  550.5 170.245714285714  550.5 173.05  C 550.5 178.425907306788  545.7 181.651451690861  542.5 187.02735899765  Z " fill-rule="nonzero" fill="#009dd9" stroke="none" />
      <path d="M 542.5 188  C 539.1 182.25  534 178.8  534 173.05  C 534 170.06  535.7 165  542.5 165  C 549.3 165  551 170.06  551 173.05  C 551 178.8  545.9 182.25  542.5 188  Z M 542.5 186.054717995299  C 545.5 181.052903381723  550 178.051814613577  550 173.05  C 550 170.431428571429  548.5 166  542.5 166  C 536.5 166  535 170.431428571429  535 173.05  C 535 178.051814613577  539.5 181.052903381723  542.5 186.054717995299  Z " fill-rule="nonzero" fill="#ffffff" stroke="none" />
    </g>
  </defs>
  <g transform="matrix(1 0 0 1 -530 -161 )">
    <use xlink:href="#widget152" filter="url(#filter151)" />
    <use xlink:href="#widget152" />
  </g>
</svg>