<?xml version="1.0" encoding="utf-8"?>
<svg version="1.1" xmlns:xlink="http://www.w3.org/1999/xlink" width="52px" height="53px" xmlns="http://www.w3.org/2000/svg">
  <g transform="matrix(1 0 0 1 -22 -267 )">
    <path d="M 48 267  C 62.56 267  74 278.66  74 293.5  C 74 308.34  62.56 320  48 320  C 33.44 320  22 308.34  22 293.5  C 22 278.66  33.44 267  48 267  Z " fill-rule="nonzero" fill="#ffffff" stroke="none" />
    <path d="M 48 267.5  C 62.28 267.5  73.5 278.94  73.5 293.5  C 73.5 308.06  62.28 319.5  48 319.5  C 33.72 319.5  22.5 308.06  22.5 293.5  C 22.5 278.94  33.72 267.5  48 267.5  Z " stroke-width="1" stroke="#c9c9c9" fill="none" />
  </g>
</svg>