<?xml version="1.0" encoding="utf-8"?>
<svg version="1.1" xmlns:xlink="http://www.w3.org/1999/xlink" width="52px" height="53px" xmlns="http://www.w3.org/2000/svg">
  <g transform="matrix(1 0 0 1 -22 -159 )">
    <path d="M 48 159  C 62.56 159  74 170.66  74 185.5  C 74 200.34  62.56 212  48 212  C 33.44 212  22 200.34  22 185.5  C 22 170.66  33.44 159  48 159  Z " fill-rule="nonzero" fill="#ffffff" stroke="none" />
    <path d="M 48 159.5  C 62.28 159.5  73.5 170.94  73.5 185.5  C 73.5 200.06  62.28 211.5  48 211.5  C 33.72 211.5  22.5 200.06  22.5 185.5  C 22.5 170.94  33.72 159.5  48 159.5  Z " stroke-width="1" stroke="#d7d7d7" fill="none" />
  </g>
</svg>