<?xml version="1.0" encoding="utf-8"?>
<svg version="1.1" xmlns:xlink="http://www.w3.org/1999/xlink" width="52px" height="51px" xmlns="http://www.w3.org/2000/svg">
  <g transform="matrix(1 0 0 1 -14 -67 )">
    <path d="M 40 67  C 54.56 67  66 78.22  66 92.5  C 66 106.78  54.56 118  40 118  C 25.44 118  14 106.78  14 92.5  C 14 78.22  25.44 67  40 67  Z " fill-rule="nonzero" fill="#ffffff" stroke="none" />
    <path d="M 40 67.5  C 54.28 67.5  65.5 78.5  65.5 92.5  C 65.5 106.5  54.28 117.5  40 117.5  C 25.72 117.5  14.5 106.5  14.5 92.5  C 14.5 78.5  25.72 67.5  40 67.5  Z " stroke-width="1" stroke="#bcbcbc" fill="none" />
  </g>
</svg>