<?xml version="1.0" encoding="utf-8"?>
<svg version="1.1" xmlns:xlink="http://www.w3.org/1999/xlink" width="20px" height="20px" xmlns="http://www.w3.org/2000/svg">
  <g transform="matrix(1 0 0 1 -892 -215 )">
    <path d="M 19.5250320924262 9.34782608695652  C 19.8416773641421 9.70108695652174  20 10.1132246376812  20 10.5842391304348  C 20 11.0461956521739  19.8416773641421 11.4538043478261  19.5250320924262 11.8070652173913  L 18.5622593068036 12.8260869565217  C 18.2370560547711 13.1702898550725  17.8476679503637 13.3423913043478  17.3940949935815 13.3423913043478  C 16.9319640564827 13.3423913043478  16.5468549422336 13.1702898550725  16.2387676508344 12.8260869565217  L 12.4646983311938 8.84510869565217  L 12.4646983311938 18.4103260869565  C 12.4646983311938 18.8813405797101  12.3042362002567 19.2640398550725  11.9833119383825 19.5584239130435  C 11.6623876765083 19.8528079710145  11.2751390671801 20  10.8215661103979 20  L 9.17843388960205 20  C 8.72486093281985 20  8.33761232349165 19.8528079710145  8.01668806161746 19.5584239130435  C 7.69576379974326 19.2640398550725  7.53530166880616 18.8813405797101  7.53530166880616 18.4103260869565  L 7.53530166880616 8.84510869565217  L 3.7612323491656 12.8260869565217  C 3.45314505776637 13.1702898550725  3.06803594351733 13.3423913043478  2.60590500641849 13.3423913043478  C 2.14377406931964 13.3423913043478  1.7586649550706 13.1702898550725  1.45057766367137 12.8260869565217  L 0.48780487804878 11.8070652173913  C 0.16260162601626 11.4628623188406  0 11.0552536231884  0 10.5842391304348  C 0 10.1041666666667  0.16260162601626 9.69202898550725  0.48780487804878 9.34782608695652  L 8.84467265725289 0.502717391304348  C 9.14420196833547 0.167572463768115  9.52931108258451 0  10 0  C 10.4621309370988 0  10.8515190415062 0.167572463768115  11.1681643132221 0.502717391304348  L 19.5250320924262 9.34782608695652  Z " fill-rule="nonzero" fill="#009900" stroke="none" transform="matrix(1 0 0 1 892 215 )" />
  </g>
</svg>