<?xml version="1.0" encoding="utf-8"?>
<svg version="1.1" xmlns:xlink="http://www.w3.org/1999/xlink" width="20px" height="20px" xmlns="http://www.w3.org/2000/svg">
  <g transform="matrix(1 0 0 1 -625 -215 )">
    <path d="M 19.5250320924262 8.2670262980445  C 19.8416773641421 8.61766689143628  20 9.02674758372668  20 9.49426837491571  C 20 9.97077995055069  19.8416773641421 10.3753652506181  19.5250320924262 10.708024275118  L 11.1681643132221 19.5010114632502  C 10.8344030808729 19.8336704877501  10.4450149764656 20  10 20  C 9.5464270432178 20  9.16131792896876 19.8336704877501  8.84467265725289 19.5010114632502  L 0.48780487804878 10.708024275118  C 0.16260162601626 10.3843560350641  0 9.97977073499663  0 9.49426837491571  C 0 9.01775679928074  0.16260162601626 8.60867610699033  0.48780487804878 8.2670262980445  L 1.43774069319641 7.25556304787593  C 1.77150192554557 6.92290402337604  2.16089002995293 6.7565745111261  2.60590500641849 6.7565745111261  C 3.05947796320069 6.7565745111261  3.44458707744972 6.92290402337604  3.7612323491656 7.25556304787593  L 7.53530166880616 11.2204989885368  L 7.53530166880616 1.72623061362104  C 7.53530166880616 1.25870982243201  7.69790329482242 0.854124522364574  8.02310654685494 0.512474713418747  C 8.34830979888746 0.170824904472913  8.7334189131365 0  9.17843388960205 0  L 10.8215661103979 0  C 11.2665810868635 0  11.6516902011125 0.170824904472913  11.9768934531451 0.512474713418747  C 12.3020967051776 0.854124522364574  12.4646983311938 1.25870982243201  12.4646983311938 1.72623061362104  L 12.4646983311938 11.2204989885368  L 16.2387676508344 7.25556304787593  C 16.5554129225503 6.92290402337604  16.9405220367993 6.7565745111261  17.3940949935815 6.7565745111261  C 17.8391099700471 6.7565745111261  18.2284980744544 6.92290402337604  18.5622593068036 7.25556304787593  L 19.5250320924262 8.2670262980445  Z " fill-rule="nonzero" fill="#ff0000" stroke="none" transform="matrix(1 0 0 1 625 215 )" />
  </g>
</svg>