<?xml version="1.0" encoding="utf-8"?>
<svg version="1.1" xmlns:xlink="http://www.w3.org/1999/xlink" width="12px" height="12px" viewBox="274 157  12 12" xmlns="http://www.w3.org/2000/svg">
  <path d="M 280 157  C 283.36 157  286 159.64  286 163  C 286 166.36  283.36 169  280 169  C 276.64 169  274 166.36  274 163  C 274 159.64  276.64 157  280 157  Z " fill-rule="nonzero" fill="#ffffff" stroke="none" />
  <path d="M 280 157.5  C 283.08 157.5  285.5 159.92  285.5 163  C 285.5 166.08  283.08 168.5  280 168.5  C 276.92 168.5  274.5 166.08  274.5 163  C 274.5 159.92  276.92 157.5  280 157.5  Z " stroke-width="1" stroke="#797979" fill="none" />
  <path d="M 280 166  C 278.32 166  277 164.68  277 163  C 277 161.32  278.32 160  280 160  C 281.68 160  283 161.32  283 163  C 283 164.68  281.68 166  280 166  " fill-rule="nonzero" fill="#797979" stroke="none" />
</svg>