<?xml version="1.0" encoding="utf-8"?>
<svg version="1.1" xmlns:xlink="http://www.w3.org/1999/xlink" width="12px" height="12px" viewBox="398 108  12 12" xmlns="http://www.w3.org/2000/svg">
  <path d="M 404 108  C 407.36 108  410 110.64  410 114  C 410 117.36  407.36 120  404 120  C 400.64 120  398 117.36  398 114  C 398 110.64  400.64 108  404 108  Z " fill-rule="nonzero" fill="#ffffff" stroke="none" />
  <path d="M 404 108.5  C 407.08 108.5  409.5 110.92  409.5 114  C 409.5 117.08  407.08 119.5  404 119.5  C 400.92 119.5  398.5 117.08  398.5 114  C 398.5 110.92  400.92 108.5  404 108.5  Z " stroke-width="1" stroke="#797979" fill="none" />
  <path d="M 404 117  C 402.32 117  401 115.68  401 114  C 401 112.32  402.32 111  404 111  C 405.68 111  407 112.32  407 114  C 407 115.68  405.68 117  404 117  " fill-rule="nonzero" fill="#797979" stroke="none" />
</svg>