<?xml version="1.0" encoding="utf-8"?>
<svg version="1.1" xmlns:xlink="http://www.w3.org/1999/xlink" width="12px" height="12px" viewBox="150 157  12 12" xmlns="http://www.w3.org/2000/svg">
  <path d="M 156 157  C 159.36 157  162 159.64  162 163  C 162 166.36  159.36 169  156 169  C 152.64 169  150 166.36  150 163  C 150 159.64  152.64 157  156 157  Z " fill-rule="nonzero" fill="#ffffff" stroke="none" />
  <path d="M 156 157.5  C 159.08 157.5  161.5 159.92  161.5 163  C 161.5 166.08  159.08 168.5  156 168.5  C 152.92 168.5  150.5 166.08  150.5 163  C 150.5 159.92  152.92 157.5  156 157.5  Z " stroke-width="1" stroke="#797979" fill="none" />
  <path d="M 156 166  C 154.32 166  153 164.68  153 163  C 153 161.32  154.32 160  156 160  C 157.68 160  159 161.32  159 163  C 159 164.68  157.68 166  156 166  " fill-rule="nonzero" fill="#797979" stroke="none" />
</svg>