<?xml version="1.0" encoding="utf-8"?>
<svg version="1.1" xmlns:xlink="http://www.w3.org/1999/xlink" width="12px" height="12px" viewBox="274 108  12 12" xmlns="http://www.w3.org/2000/svg">
  <path d="M 280 108  C 283.36 108  286 110.64  286 114  C 286 117.36  283.36 120  280 120  C 276.64 120  274 117.36  274 114  C 274 110.64  276.64 108  280 108  Z " fill-rule="nonzero" fill="#ffffff" stroke="none" />
  <path d="M 280 108.5  C 283.08 108.5  285.5 110.92  285.5 114  C 285.5 117.08  283.08 119.5  280 119.5  C 276.92 119.5  274.5 117.08  274.5 114  C 274.5 110.92  276.92 108.5  280 108.5  Z " stroke-width="1" stroke="#797979" fill="none" />
  <path d="M 280 117  C 278.32 117  277 115.68  277 114  C 277 112.32  278.32 111  280 111  C 281.68 111  283 112.32  283 114  C 283 115.68  281.68 117  280 117  " fill-rule="nonzero" fill="#797979" stroke="none" />
</svg>