<?xml version="1.0" encoding="utf-8"?>
<svg version="1.1" xmlns:xlink="http://www.w3.org/1999/xlink" width="15px" height="15px" xmlns="http://www.w3.org/2000/svg">
  <g transform="matrix(1 0 0 1 -216 -218 )">
    <path d="M 223.5 218  C 227.7 218  231 221.3  231 225.5  C 231 229.7  227.7 233  223.5 233  C 219.3 233  216 229.7  216 225.5  C 216 221.3  219.3 218  223.5 218  Z " fill-rule="nonzero" fill="#ff0000" stroke="none" />
    <path d="M 223.5 218.5  C 227.42 218.5  230.5 221.58  230.5 225.5  C 230.5 229.42  227.42 232.5  223.5 232.5  C 219.58 232.5  216.5 229.42  216.5 225.5  C 216.5 221.58  219.58 218.5  223.5 218.5  Z " stroke-width="1" stroke="#797979" fill="none" />
  </g>
</svg>