<?xml version="1.0" encoding="utf-8"?>
<svg version="1.1" xmlns:xlink="http://www.w3.org/1999/xlink" width="12px" height="12px" viewBox="659 108  12 12" xmlns="http://www.w3.org/2000/svg">
  <path d="M 665 108  C 668.36 108  671 110.64  671 114  C 671 117.36  668.36 120  665 120  C 661.64 120  659 117.36  659 114  C 659 110.64  661.64 108  665 108  Z " fill-rule="nonzero" fill="#ffffff" stroke="none" />
  <path d="M 665 108.5  C 668.08 108.5  670.5 110.92  670.5 114  C 670.5 117.08  668.08 119.5  665 119.5  C 661.92 119.5  659.5 117.08  659.5 114  C 659.5 110.92  661.92 108.5  665 108.5  Z " stroke-width="1" stroke="#797979" fill="none" />
  <path d="M 665 117  C 663.32 117  662 115.68  662 114  C 662 112.32  663.32 111  665 111  C 666.68 111  668 112.32  668 114  C 668 115.68  666.68 117  665 117  " fill-rule="nonzero" fill="#797979" stroke="none" />
</svg>