<?xml version="1.0" encoding="utf-8"?>
<svg version="1.1" xmlns:xlink="http://www.w3.org/1999/xlink" width="12px" height="12px" viewBox="282 1198  12 12" xmlns="http://www.w3.org/2000/svg">
  <path d="M 288 1198  C 291.36 1198  294 1200.64  294 1204  C 294 1207.36  291.36 1210  288 1210  C 284.64 1210  282 1207.36  282 1204  C 282 1200.64  284.64 1198  288 1198  Z " fill-rule="nonzero" fill="#ffffff" stroke="none" />
  <path d="M 288 1198.5  C 291.08 1198.5  293.5 1200.92  293.5 1204  C 293.5 1207.08  291.08 1209.5  288 1209.5  C 284.92 1209.5  282.5 1207.08  282.5 1204  C 282.5 1200.92  284.92 1198.5  288 1198.5  Z " stroke-width="1" stroke="#797979" fill="none" />
  <path d="M 288 1207  C 286.32 1207  285 1205.68  285 1204  C 285 1202.32  286.32 1201  288 1201  C 289.68 1201  291 1202.32  291 1204  C 291 1205.68  289.68 1207  288 1207  " fill-rule="nonzero" fill="#797979" stroke="none" />
</svg>