<?xml version="1.0" encoding="utf-8"?>
<svg version="1.1" xmlns:xlink="http://www.w3.org/1999/xlink" width="12px" height="12px" viewBox="167 1198  12 12" xmlns="http://www.w3.org/2000/svg">
  <path d="M 173 1198  C 176.36 1198  179 1200.64  179 1204  C 179 1207.36  176.36 1210  173 1210  C 169.64 1210  167 1207.36  167 1204  C 167 1200.64  169.64 1198  173 1198  Z " fill-rule="nonzero" fill="#ffffff" stroke="none" />
  <path d="M 173 1198.5  C 176.08 1198.5  178.5 1200.92  178.5 1204  C 178.5 1207.08  176.08 1209.5  173 1209.5  C 169.92 1209.5  167.5 1207.08  167.5 1204  C 167.5 1200.92  169.92 1198.5  173 1198.5  Z " stroke-width="1" stroke="#797979" fill="none" />
  <path d="M 173 1207  C 171.32 1207  170 1205.68  170 1204  C 170 1202.32  171.32 1201  173 1201  C 174.68 1201  176 1202.32  176 1204  C 176 1205.68  174.68 1207  173 1207  " fill-rule="nonzero" fill="#797979" stroke="none" />
</svg>