<?xml version="1.0" encoding="utf-8"?>
<svg version="1.1" xmlns:xlink="http://www.w3.org/1999/xlink" width="12px" height="12px" viewBox="264 473  12 12" xmlns="http://www.w3.org/2000/svg">
  <path d="M 270 473  C 273.36 473  276 475.64  276 479  C 276 482.36  273.36 485  270 485  C 266.64 485  264 482.36  264 479  C 264 475.64  266.64 473  270 473  Z " fill-rule="nonzero" fill="#ffffff" stroke="none" />
  <path d="M 270 473.5  C 273.08 473.5  275.5 475.92  275.5 479  C 275.5 482.08  273.08 484.5  270 484.5  C 266.92 484.5  264.5 482.08  264.5 479  C 264.5 475.92  266.92 473.5  270 473.5  Z " stroke-width="1" stroke="#797979" fill="none" />
  <path d="M 270 482  C 268.32 482  267 480.68  267 479  C 267 477.32  268.32 476  270 476  C 271.68 476  273 477.32  273 479  C 273 480.68  271.68 482  270 482  " fill-rule="nonzero" fill="#797979" stroke="none" />
</svg>