<?xml version="1.0" encoding="utf-8"?>
<svg version="1.1" xmlns:xlink="http://www.w3.org/1999/xlink" width="12px" height="12px" viewBox="282 1206  12 12" xmlns="http://www.w3.org/2000/svg">
  <path d="M 288 1206  C 291.36 1206  294 1208.64  294 1212  C 294 1215.36  291.36 1218  288 1218  C 284.64 1218  282 1215.36  282 1212  C 282 1208.64  284.64 1206  288 1206  Z " fill-rule="nonzero" fill="#ffffff" stroke="none" />
  <path d="M 288 1206.5  C 291.08 1206.5  293.5 1208.92  293.5 1212  C 293.5 1215.08  291.08 1217.5  288 1217.5  C 284.92 1217.5  282.5 1215.08  282.5 1212  C 282.5 1208.92  284.92 1206.5  288 1206.5  Z " stroke-width="1" stroke="#797979" fill="none" />
  <path d="M 288 1215  C 286.32 1215  285 1213.68  285 1212  C 285 1210.32  286.32 1209  288 1209  C 289.68 1209  291 1210.32  291 1212  C 291 1213.68  289.68 1215  288 1215  " fill-rule="nonzero" fill="#797979" stroke="none" />
</svg>