<?xml version="1.0" encoding="utf-8"?>
<svg version="1.1" xmlns:xlink="http://www.w3.org/1999/xlink" width="12px" height="12px" viewBox="424 423  12 12" xmlns="http://www.w3.org/2000/svg">
  <path d="M 430 423  C 433.36 423  436 425.64  436 429  C 436 432.36  433.36 435  430 435  C 426.64 435  424 432.36  424 429  C 424 425.64  426.64 423  430 423  Z " fill-rule="nonzero" fill="#ffffff" stroke="none" />
  <path d="M 430 423.5  C 433.08 423.5  435.5 425.92  435.5 429  C 435.5 432.08  433.08 434.5  430 434.5  C 426.92 434.5  424.5 432.08  424.5 429  C 424.5 425.92  426.92 423.5  430 423.5  Z " stroke-width="1" stroke="#797979" fill="none" />
  <path d="M 430 432  C 428.32 432  427 430.68  427 429  C 427 427.32  428.32 426  430 426  C 431.68 426  433 427.32  433 429  C 433 430.68  431.68 432  430 432  " fill-rule="nonzero" fill="#797979" stroke="none" />
</svg>