<?xml version="1.0" encoding="utf-8"?>
<svg version="1.1" xmlns:xlink="http://www.w3.org/1999/xlink" width="12px" height="12px" viewBox="344 423  12 12" xmlns="http://www.w3.org/2000/svg">
  <path d="M 350 423  C 353.36 423  356 425.64  356 429  C 356 432.36  353.36 435  350 435  C 346.64 435  344 432.36  344 429  C 344 425.64  346.64 423  350 423  Z " fill-rule="nonzero" fill="#ffffff" stroke="none" />
  <path d="M 350 423.5  C 353.08 423.5  355.5 425.92  355.5 429  C 355.5 432.08  353.08 434.5  350 434.5  C 346.92 434.5  344.5 432.08  344.5 429  C 344.5 425.92  346.92 423.5  350 423.5  Z " stroke-width="1" stroke="#797979" fill="none" />
  <path d="M 350 432  C 348.32 432  347 430.68  347 429  C 347 427.32  348.32 426  350 426  C 351.68 426  353 427.32  353 429  C 353 430.68  351.68 432  350 432  " fill-rule="nonzero" fill="#797979" stroke="none" />
</svg>