<?xml version="1.0" encoding="utf-8"?>
<svg version="1.1" xmlns:xlink="http://www.w3.org/1999/xlink" width="12px" height="12px" viewBox="264 383  12 12" xmlns="http://www.w3.org/2000/svg">
  <path d="M 270 383  C 273.36 383  276 385.64  276 389  C 276 392.36  273.36 395  270 395  C 266.64 395  264 392.36  264 389  C 264 385.64  266.64 383  270 383  Z " fill-rule="nonzero" fill="#ffffff" stroke="none" />
  <path d="M 270 383.5  C 273.08 383.5  275.5 385.92  275.5 389  C 275.5 392.08  273.08 394.5  270 394.5  C 266.92 394.5  264.5 392.08  264.5 389  C 264.5 385.92  266.92 383.5  270 383.5  Z " stroke-width="1" stroke="#797979" fill="none" />
  <path d="M 270 392  C 268.32 392  267 390.68  267 389  C 267 387.32  268.32 386  270 386  C 271.68 386  273 387.32  273 389  C 273 390.68  271.68 392  270 392  " fill-rule="nonzero" fill="#797979" stroke="none" />
</svg>