<?xml version="1.0" encoding="utf-8"?>
<svg version="1.1" xmlns:xlink="http://www.w3.org/1999/xlink" width="12px" height="12px" viewBox="167 1182  12 12" xmlns="http://www.w3.org/2000/svg">
  <path d="M 173 1182  C 176.36 1182  179 1184.64  179 1188  C 179 1191.36  176.36 1194  173 1194  C 169.64 1194  167 1191.36  167 1188  C 167 1184.64  169.64 1182  173 1182  Z " fill-rule="nonzero" fill="#ffffff" stroke="none" />
  <path d="M 173 1182.5  C 176.08 1182.5  178.5 1184.92  178.5 1188  C 178.5 1191.08  176.08 1193.5  173 1193.5  C 169.92 1193.5  167.5 1191.08  167.5 1188  C 167.5 1184.92  169.92 1182.5  173 1182.5  Z " stroke-width="1" stroke="#797979" fill="none" />
  <path d="M 173 1191  C 171.32 1191  170 1189.68  170 1188  C 170 1186.32  171.32 1185  173 1185  C 174.68 1185  176 1186.32  176 1188  C 176 1189.68  174.68 1191  173 1191  " fill-rule="nonzero" fill="#797979" stroke="none" />
</svg>