<?xml version="1.0" encoding="utf-8"?>
<svg version="1.1" xmlns:xlink="http://www.w3.org/1999/xlink" width="12px" height="12px" viewBox="186 433  12 12" xmlns="http://www.w3.org/2000/svg">
  <path d="M 192 433  C 195.36 433  198 435.64  198 439  C 198 442.36  195.36 445  192 445  C 188.64 445  186 442.36  186 439  C 186 435.64  188.64 433  192 433  Z " fill-rule="nonzero" fill="#ffffff" stroke="none" />
  <path d="M 192 433.5  C 195.08 433.5  197.5 435.92  197.5 439  C 197.5 442.08  195.08 444.5  192 444.5  C 188.92 444.5  186.5 442.08  186.5 439  C 186.5 435.92  188.92 433.5  192 433.5  Z " stroke-width="1" stroke="#797979" fill="none" />
  <path d="M 192 442  C 190.32 442  189 440.68  189 439  C 189 437.32  190.32 436  192 436  C 193.68 436  195 437.32  195 439  C 195 440.68  193.68 442  192 442  " fill-rule="nonzero" fill="#797979" stroke="none" />
</svg>