<?xml version="1.0" encoding="utf-8"?>
<svg version="1.1" xmlns:xlink="http://www.w3.org/1999/xlink" width="12px" height="12px" viewBox="186 383  12 12" xmlns="http://www.w3.org/2000/svg">
  <path d="M 192 383  C 195.36 383  198 385.64  198 389  C 198 392.36  195.36 395  192 395  C 188.64 395  186 392.36  186 389  C 186 385.64  188.64 383  192 383  Z " fill-rule="nonzero" fill="#ffffff" stroke="none" />
  <path d="M 192 383.5  C 195.08 383.5  197.5 385.92  197.5 389  C 197.5 392.08  195.08 394.5  192 394.5  C 188.92 394.5  186.5 392.08  186.5 389  C 186.5 385.92  188.92 383.5  192 383.5  Z " stroke-width="1" stroke="#797979" fill="none" />
  <path d="M 192 392  C 190.32 392  189 390.68  189 389  C 189 387.32  190.32 386  192 386  C 193.68 386  195 387.32  195 389  C 195 390.68  193.68 392  192 392  " fill-rule="nonzero" fill="#797979" stroke="none" />
</svg>