<?xml version="1.0" encoding="utf-8"?>
<svg version="1.1" xmlns:xlink="http://www.w3.org/1999/xlink" width="12px" height="12px" viewBox="282 1182  12 12" xmlns="http://www.w3.org/2000/svg">
  <path d="M 288 1182  C 291.36 1182  294 1184.64  294 1188  C 294 1191.36  291.36 1194  288 1194  C 284.64 1194  282 1191.36  282 1188  C 282 1184.64  284.64 1182  288 1182  Z " fill-rule="nonzero" fill="#ffffff" stroke="none" />
  <path d="M 288 1182.5  C 291.08 1182.5  293.5 1184.92  293.5 1188  C 293.5 1191.08  291.08 1193.5  288 1193.5  C 284.92 1193.5  282.5 1191.08  282.5 1188  C 282.5 1184.92  284.92 1182.5  288 1182.5  Z " stroke-width="1" stroke="#797979" fill="none" />
  <path d="M 288 1191  C 286.32 1191  285 1189.68  285 1188  C 285 1186.32  286.32 1185  288 1185  C 289.68 1185  291 1186.32  291 1188  C 291 1189.68  289.68 1191  288 1191  " fill-rule="nonzero" fill="#797979" stroke="none" />
</svg>