<?xml version="1.0" encoding="utf-8"?>
<svg version="1.1" xmlns:xlink="http://www.w3.org/1999/xlink" width="12px" height="12px" viewBox="264 433  12 12" xmlns="http://www.w3.org/2000/svg">
  <path d="M 270 433  C 273.36 433  276 435.64  276 439  C 276 442.36  273.36 445  270 445  C 266.64 445  264 442.36  264 439  C 264 435.64  266.64 433  270 433  Z " fill-rule="nonzero" fill="#ffffff" stroke="none" />
  <path d="M 270 433.5  C 273.08 433.5  275.5 435.92  275.5 439  C 275.5 442.08  273.08 444.5  270 444.5  C 266.92 444.5  264.5 442.08  264.5 439  C 264.5 435.92  266.92 433.5  270 433.5  Z " stroke-width="1" stroke="#797979" fill="none" />
  <path d="M 270 442  C 268.32 442  267 440.68  267 439  C 267 437.32  268.32 436  270 436  C 271.68 436  273 437.32  273 439  C 273 440.68  271.68 442  270 442  " fill-rule="nonzero" fill="#797979" stroke="none" />
</svg>