<?xml version="1.0" encoding="utf-8"?>
<svg version="1.1" xmlns:xlink="http://www.w3.org/1999/xlink" width="12px" height="12px" viewBox="344 383  12 12" xmlns="http://www.w3.org/2000/svg">
  <path d="M 350 383  C 353.36 383  356 385.64  356 389  C 356 392.36  353.36 395  350 395  C 346.64 395  344 392.36  344 389  C 344 385.64  346.64 383  350 383  Z " fill-rule="nonzero" fill="#ffffff" stroke="none" />
  <path d="M 350 383.5  C 353.08 383.5  355.5 385.92  355.5 389  C 355.5 392.08  353.08 394.5  350 394.5  C 346.92 394.5  344.5 392.08  344.5 389  C 344.5 385.92  346.92 383.5  350 383.5  Z " stroke-width="1" stroke="#797979" fill="none" />
  <path d="M 350 392  C 348.32 392  347 390.68  347 389  C 347 387.32  348.32 386  350 386  C 351.68 386  353 387.32  353 389  C 353 390.68  351.68 392  350 392  " fill-rule="nonzero" fill="#797979" stroke="none" />
</svg>