<?xml version="1.0" encoding="utf-8"?>
<svg version="1.1" xmlns:xlink="http://www.w3.org/1999/xlink" width="12px" height="12px" viewBox="264 399  12 12" xmlns="http://www.w3.org/2000/svg">
  <path d="M 270 399  C 273.36 399  276 401.64  276 405  C 276 408.36  273.36 411  270 411  C 266.64 411  264 408.36  264 405  C 264 401.64  266.64 399  270 399  Z " fill-rule="nonzero" fill="#ffffff" stroke="none" />
  <path d="M 270 399.5  C 273.08 399.5  275.5 401.92  275.5 405  C 275.5 408.08  273.08 410.5  270 410.5  C 266.92 410.5  264.5 408.08  264.5 405  C 264.5 401.92  266.92 399.5  270 399.5  Z " stroke-width="1" stroke="#797979" fill="none" />
  <path d="M 270 408  C 268.32 408  267 406.68  267 405  C 267 403.32  268.32 402  270 402  C 271.68 402  273 403.32  273 405  C 273 406.68  271.68 408  270 408  " fill-rule="nonzero" fill="#797979" stroke="none" />
</svg>