<?xml version="1.0" encoding="utf-8"?>
<svg version="1.1" xmlns:xlink="http://www.w3.org/1999/xlink" width="12px" height="12px" viewBox="186 505  12 12" xmlns="http://www.w3.org/2000/svg">
  <path d="M 192 505  C 195.36 505  198 507.64  198 511  C 198 514.36  195.36 517  192 517  C 188.64 517  186 514.36  186 511  C 186 507.64  188.64 505  192 505  Z " fill-rule="nonzero" fill="#ffffff" stroke="none" />
  <path d="M 192 505.5  C 195.08 505.5  197.5 507.92  197.5 511  C 197.5 514.08  195.08 516.5  192 516.5  C 188.92 516.5  186.5 514.08  186.5 511  C 186.5 507.92  188.92 505.5  192 505.5  Z " stroke-width="1" stroke="#797979" fill="none" />
  <path d="M 192 514  C 190.32 514  189 512.68  189 511  C 189 509.32  190.32 508  192 508  C 193.68 508  195 509.32  195 511  C 195 512.68  193.68 514  192 514  " fill-rule="nonzero" fill="#797979" stroke="none" />
</svg>