<?xml version="1.0" encoding="utf-8"?>
<svg version="1.1" xmlns:xlink="http://www.w3.org/1999/xlink" width="12px" height="12px" viewBox="186 449  12 12" xmlns="http://www.w3.org/2000/svg">
  <path d="M 192 449  C 195.36 449  198 451.64  198 455  C 198 458.36  195.36 461  192 461  C 188.64 461  186 458.36  186 455  C 186 451.64  188.64 449  192 449  Z " fill-rule="nonzero" fill="#ffffff" stroke="none" />
  <path d="M 192 449.5  C 195.08 449.5  197.5 451.92  197.5 455  C 197.5 458.08  195.08 460.5  192 460.5  C 188.92 460.5  186.5 458.08  186.5 455  C 186.5 451.92  188.92 449.5  192 449.5  Z " stroke-width="1" stroke="#797979" fill="none" />
  <path d="M 192 458  C 190.32 458  189 456.68  189 455  C 189 453.32  190.32 452  192 452  C 193.68 452  195 453.32  195 455  C 195 456.68  193.68 458  192 458  " fill-rule="nonzero" fill="#797979" stroke="none" />
</svg>