<?xml version="1.0" encoding="utf-8"?>
<svg version="1.1" xmlns:xlink="http://www.w3.org/1999/xlink" width="12px" height="12px" viewBox="264 505  12 12" xmlns="http://www.w3.org/2000/svg">
  <path d="M 270 505  C 273.36 505  276 507.64  276 511  C 276 514.36  273.36 517  270 517  C 266.64 517  264 514.36  264 511  C 264 507.64  266.64 505  270 505  Z " fill-rule="nonzero" fill="#ffffff" stroke="none" />
  <path d="M 270 505.5  C 273.08 505.5  275.5 507.92  275.5 511  C 275.5 514.08  273.08 516.5  270 516.5  C 266.92 516.5  264.5 514.08  264.5 511  C 264.5 507.92  266.92 505.5  270 505.5  Z " stroke-width="1" stroke="#797979" fill="none" />
  <path d="M 270 514  C 268.32 514  267 512.68  267 511  C 267 509.32  268.32 508  270 508  C 271.68 508  273 509.32  273 511  C 273 512.68  271.68 514  270 514  " fill-rule="nonzero" fill="#797979" stroke="none" />
</svg>