<?xml version="1.0" encoding="utf-8"?>
<svg version="1.1" xmlns:xlink="http://www.w3.org/1999/xlink" width="12px" height="12px" viewBox="264 449  12 12" xmlns="http://www.w3.org/2000/svg">
  <path d="M 270 449  C 273.36 449  276 451.64  276 455  C 276 458.36  273.36 461  270 461  C 266.64 461  264 458.36  264 455  C 264 451.64  266.64 449  270 449  Z " fill-rule="nonzero" fill="#ffffff" stroke="none" />
  <path d="M 270 449.5  C 273.08 449.5  275.5 451.92  275.5 455  C 275.5 458.08  273.08 460.5  270 460.5  C 266.92 460.5  264.5 458.08  264.5 455  C 264.5 451.92  266.92 449.5  270 449.5  Z " stroke-width="1" stroke="#797979" fill="none" />
  <path d="M 270 458  C 268.32 458  267 456.68  267 455  C 267 453.32  268.32 452  270 452  C 271.68 452  273 453.32  273 455  C 273 456.68  271.68 458  270 458  " fill-rule="nonzero" fill="#797979" stroke="none" />
</svg>