<?xml version="1.0" encoding="utf-8"?>
<svg version="1.1" xmlns:xlink="http://www.w3.org/1999/xlink" width="12px" height="12px" viewBox="150 103  12 12" xmlns="http://www.w3.org/2000/svg">
  <path d="M 156 103  C 159.36 103  162 105.64  162 109  C 162 112.36  159.36 115  156 115  C 152.64 115  150 112.36  150 109  C 150 105.64  152.64 103  156 103  Z " fill-rule="nonzero" fill="#ffffff" stroke="none" />
  <path d="M 156 103.5  C 159.08 103.5  161.5 105.92  161.5 109  C 161.5 112.08  159.08 114.5  156 114.5  C 152.92 114.5  150.5 112.08  150.5 109  C 150.5 105.92  152.92 103.5  156 103.5  Z " stroke-width="1" stroke="#797979" fill="none" />
  <path d="M 156 112  C 154.32 112  153 110.68  153 109  C 153 107.32  154.32 106  156 106  C 157.68 106  159 107.32  159 109  C 159 110.68  157.68 112  156 112  " fill-rule="nonzero" fill="#797979" stroke="none" />
</svg>