<?xml version="1.0" encoding="utf-8"?>
<svg version="1.1" xmlns:xlink="http://www.w3.org/1999/xlink" width="12px" height="12px" viewBox="264 95  12 12" xmlns="http://www.w3.org/2000/svg">
  <path d="M 270 95  C 273.36 95  276 97.64  276 101  C 276 104.36  273.36 107  270 107  C 266.64 107  264 104.36  264 101  C 264 97.64  266.64 95  270 95  Z " fill-rule="nonzero" fill="#ffffff" stroke="none" />
  <path d="M 270 95.5  C 273.08 95.5  275.5 97.92  275.5 101  C 275.5 104.08  273.08 106.5  270 106.5  C 266.92 106.5  264.5 104.08  264.5 101  C 264.5 97.92  266.92 95.5  270 95.5  Z " stroke-width="1" stroke="#797979" fill="none" />
  <path d="M 270 104  C 268.32 104  267 102.68  267 101  C 267 99.32  268.32 98  270 98  C 271.68 98  273 99.32  273 101  C 273 102.68  271.68 104  270 104  " fill-rule="nonzero" fill="#797979" stroke="none" />
</svg>