<?xml version="1.0" encoding="utf-8"?>
<svg version="1.1" xmlns:xlink="http://www.w3.org/1999/xlink" width="12px" height="12px" viewBox="260 103  12 12" xmlns="http://www.w3.org/2000/svg">
  <path d="M 266 103  C 269.36 103  272 105.64  272 109  C 272 112.36  269.36 115  266 115  C 262.64 115  260 112.36  260 109  C 260 105.64  262.64 103  266 103  Z " fill-rule="nonzero" fill="#ffffff" stroke="none" />
  <path d="M 266 103.5  C 269.08 103.5  271.5 105.92  271.5 109  C 271.5 112.08  269.08 114.5  266 114.5  C 262.92 114.5  260.5 112.08  260.5 109  C 260.5 105.92  262.92 103.5  266 103.5  Z " stroke-width="1" stroke="#797979" fill="none" />
  <path d="M 266 112  C 264.32 112  263 110.68  263 109  C 263 107.32  264.32 106  266 106  C 267.68 106  269 107.32  269 109  C 269 110.68  267.68 112  266 112  " fill-rule="nonzero" fill="#797979" stroke="none" />
</svg>