<?xml version="1.0" encoding="utf-8"?>
<svg version="1.1" xmlns:xlink="http://www.w3.org/1999/xlink" width="12px" height="12px" viewBox="154 95  12 12" xmlns="http://www.w3.org/2000/svg">
  <path d="M 160 95  C 163.36 95  166 97.64  166 101  C 166 104.36  163.36 107  160 107  C 156.64 107  154 104.36  154 101  C 154 97.64  156.64 95  160 95  Z " fill-rule="nonzero" fill="#ffffff" stroke="none" />
  <path d="M 160 95.5  C 163.08 95.5  165.5 97.92  165.5 101  C 165.5 104.08  163.08 106.5  160 106.5  C 156.92 106.5  154.5 104.08  154.5 101  C 154.5 97.92  156.92 95.5  160 95.5  Z " stroke-width="1" stroke="#797979" fill="none" />
  <path d="M 160 104  C 158.32 104  157 102.68  157 101  C 157 99.32  158.32 98  160 98  C 161.68 98  163 99.32  163 101  C 163 102.68  161.68 104  160 104  " fill-rule="nonzero" fill="#797979" stroke="none" />
</svg>