<?xml version="1.0" encoding="utf-8"?>
<svg version="1.1" xmlns:xlink="http://www.w3.org/1999/xlink" width="12px" height="12px" viewBox="119 25  12 12" xmlns="http://www.w3.org/2000/svg">
  <path d="M 125 25  C 128.36 25  131 27.64  131 31  C 131 34.36  128.36 37  125 37  C 121.64 37  119 34.36  119 31  C 119 27.64  121.64 25  125 25  Z " fill-rule="nonzero" fill="#ffffff" stroke="none" />
  <path d="M 125 25.5  C 128.08 25.5  130.5 27.92  130.5 31  C 130.5 34.08  128.08 36.5  125 36.5  C 121.92 36.5  119.5 34.08  119.5 31  C 119.5 27.92  121.92 25.5  125 25.5  Z " stroke-width="1" stroke="#797979" fill="none" />
  <path d="M 125 34  C 123.32 34  122 32.68  122 31  C 122 29.32  123.32 28  125 28  C 126.68 28  128 29.32  128 31  C 128 32.68  126.68 34  125 34  " fill-rule="nonzero" fill="#797979" stroke="none" />
</svg>