<?xml version="1.0" encoding="utf-8"?>
<svg version="1.1" xmlns:xlink="http://www.w3.org/1999/xlink" width="12px" height="12px" viewBox="254 121  12 12" xmlns="http://www.w3.org/2000/svg">
  <path d="M 260 121  C 263.36 121  266 123.64  266 127  C 266 130.36  263.36 133  260 133  C 256.64 133  254 130.36  254 127  C 254 123.64  256.64 121  260 121  Z " fill-rule="nonzero" fill="#ffffff" stroke="none" />
  <path d="M 260 121.5  C 263.08 121.5  265.5 123.92  265.5 127  C 265.5 130.08  263.08 132.5  260 132.5  C 256.92 132.5  254.5 130.08  254.5 127  C 254.5 123.92  256.92 121.5  260 121.5  Z " stroke-width="1" stroke="#797979" fill="none" />
  <path d="M 260 130  C 258.32 130  257 128.68  257 127  C 257 125.32  258.32 124  260 124  C 261.68 124  263 125.32  263 127  C 263 128.68  261.68 130  260 130  " fill-rule="nonzero" fill="#797979" stroke="none" />
</svg>