<?xml version="1.0" encoding="utf-8"?>
<svg version="1.1" xmlns:xlink="http://www.w3.org/1999/xlink" width="20px" height="24px" xmlns="http://www.w3.org/2000/svg">
  <g transform="matrix(1 0 0 1 -1830 -19 )">
    <path d="M 19.2057291666665 7.34375  C 19.7352430555557 8.82291666666667  20 10.375  20 12  C 20 13.625  19.7352430555557 15.1770833333333  19.2057291666665 16.65625  C 18.6762152777778 18.1354166666667  17.9644097222222 19.4114583333333  17.0703125 20.484375  C 16.1762152777778 21.5572916666667  15.1128472222222 22.4114583333333  13.8802083333335 23.046875  C 12.6475694444443 23.6822916666667  11.3541666666665 24  10 24  C 8.50694444444434 24  7.08767361111109 23.6223958333333  5.7421875 22.8671875  C 4.39670138888891 22.1119791666667  3.25086805555566 21.046875  2.3046875 19.671875  C 2.24392361111109 19.5677083333333  2.21571180555566 19.4505208333333  2.22005208333348 19.3203125  C 2.22439236111109 19.1901041666667  2.26128472222217 19.0833333333333  2.33072916666652 19  L 4.11458333333348 16.84375  C 4.20138888888891 16.75  4.30989583333348 16.703125  4.44010416666652 16.703125  C 4.57899305555566 16.7239583333333  4.67881944444434 16.7864583333333  4.73958333333348 16.890625  C 5.37326388888891 17.8802083333333  6.15017361111109 18.6458333333333  7.0703125 19.1875  C 7.99045138888891 19.7291666666667  8.96701388888891 20  10 20  C 10.9027777777778 20  11.7643229166665 19.7890625  12.5846354166665 19.3671875  C 13.4049479166665 18.9453125  14.1145833333335 18.375  14.7135416666665 17.65625  C 15.3125 16.9375  15.7877604166665 16.0859375  16.1393229166665 15.1015625  C 16.4908854166665 14.1171875  16.6666666666665 13.0833333333333  16.6666666666665 12  C 16.6666666666665 10.9166666666667  16.4908854166665 9.8828125  16.1393229166665 8.8984375  C 15.7877604166665 7.9140625  15.3125 7.0625  14.7135416666665 6.34375  C 14.1145833333335 5.625  13.4049479166665 5.0546875  12.5846354166665 4.6328125  C 11.7643229166665 4.2109375  10.9027777777778 4  10 4  C 9.14930555555566 4  8.33333333333348 4.18489583333333  7.55208333333348 4.5546875  C 6.77083333333348 4.92447916666666  6.07638888888891 5.453125  5.46875 6.140625  L 7.25260416666652 8.296875  C 7.52170138888891 8.609375  7.58246527777783 8.96875  7.43489583333348 9.375  C 7.28732638888891 9.79166666666667  7.03125 10  6.66666666666652 10  L 0.833333333333485 10  C 0.607638888888914 10  0.412326388888914 9.90104166666667  0.247395833333485 9.703125  C 0.0824652777778283 9.50520833333333  0 9.27083333333333  0 9  L 0 2  C 0 1.5625  0.173611111111086 1.25520833333333  0.520833333333485 1.078125  C 0.859375 0.901041666666664  1.15885416666652 0.973958333333332  1.41927083333348 1.296875  L 3.11197916666652 3.3125  C 4.04079861111109 2.26041666666666  5.10199652777783 1.4453125  6.29557291666652 0.8671875  C 7.48914930555566 0.2890625  8.72395833333348 0  10 0  C 11.3541666666665 0  12.6475694444443 0.317708333333332  13.8802083333335 0.953125  C 15.1128472222222 1.58854166666666  16.1762152777778 2.44270833333333  17.0703125 3.515625  C 17.9644097222222 4.58854166666666  18.6762152777778 5.86458333333333  19.2057291666665 7.34375  Z " fill-rule="nonzero" fill="#999999" stroke="none" transform="matrix(1 0 0 1 1830 19 )" />
  </g>
</svg>