<?xml version="1.0" encoding="utf-8"?>
<svg version="1.1" xmlns:xlink="http://www.w3.org/1999/xlink" width="20px" height="20px" xmlns="http://www.w3.org/2000/svg">
  <g transform="matrix(1 0 0 1 -1737 -21 )">
    <path d="M 18.8839285714287 7.68465909090909  C 19.3080357142858 7.31534090909091  19.6800595238096 6.90340909090909  20 6.44886363636363  L 20 17.7272727272727  C 20 18.3522727272727  19.8251488095239 18.8873106060606  19.4754464285713 19.3323863636364  C 19.125744047619 19.7774621212121  18.7053571428571 20  18.2142857142858 20  L 1.78571428571422 20  C 1.29464285714289 20  0.874255952380736 19.7774621212121  0.524553571428669 19.3323863636364  C 0.174851190476147 18.8873106060606  0 18.3522727272727  0 17.7272727272727  L 0 6.44886363636363  C 0.327380952380736 6.91287878787879  0.703125 7.3248106060606  1.12723214285711 7.68465909090909  C 3.82068452380963 10.0142045454545  5.66964285714289 11.6477272727273  6.67410714285711 12.5852272727273  C 7.09821428571422 12.9829545454545  7.44233630952385 13.2930871212121  7.70647321428578 13.515625  C 7.97061011904771 13.7381628787879  8.32217261904771 13.9654356060606  8.76116071428578 14.1974431818182  C 9.20014880952385 14.4294507575758  9.609375 14.5454545454545  9.98883928571422 14.5454545454545  L 10 14.5454545454545  L 10.0111607142858 14.5454545454545  C 10.390625 14.5454545454545  10.7998511904761 14.4294507575758  11.2388392857142 14.1974431818182  C 11.6778273809523 13.9654356060606  12.0293898809523 13.7381628787879  12.2935267857142 13.515625  C 12.5576636904761 13.2930871212121  12.9017857142858 12.9829545454545  13.3258928571429 12.5852272727273  C 14.5907738095239 11.4204545454545  16.4434523809523 9.78693181818182  18.8839285714287 7.68465909090909  Z M 19.4698660714287 0.667613636363637  C 19.8232886904761 1.11268939393939  20 1.64772727272727  20 2.27272727272727  C 20 3.02083333333333  19.8177083333335 3.73579545454545  19.453125 4.41761363636363  C 19.0885416666665 5.09943181818182  18.6346726190477 5.68181818181818  18.0915178571429 6.16477272727273  C 15.2938988095239 8.63636363636363  13.5528273809523 10.1751893939394  12.8683035714287 10.78125  C 12.7938988095239 10.8475378787879  12.6357886904761 10.9919507575758  12.3939732142858 11.2144886363636  C 12.1521577380954 11.4370265151515  11.9512648809523 11.6169507575758  11.7912946428571 11.7542613636364  C 11.6313244047619 11.891571969697  11.4378720238096 12.0454545454545  11.2109375 12.2159090909091  C 10.9840029761904 12.3863636363636  10.7700892857142 12.5142045454545  10.5691964285713 12.5994318181818  C 10.3683035714287 12.6846590909091  10.1822916666665 12.7272727272727  10.0111607142858 12.7272727272727  L 10 12.7272727272727  L 9.98883928571422 12.7272727272727  C 9.81770833333348 12.7272727272727  9.63169642857133 12.6846590909091  9.43080357142867 12.5994318181818  C 9.22991071428578 12.5142045454545  9.01599702380963 12.3863636363636  8.7890625 12.2159090909091  C 8.56212797619037 12.0454545454545  8.36867559523807 11.891571969697  8.20870535714289 11.7542613636364  C 8.04873511904771 11.6169507575758  7.84784226190459 11.4370265151515  7.60602678571422 11.2144886363636  C 7.36421130952385 10.9919507575758  7.20610119047615 10.8475378787879  7.13169642857133 10.78125  C 6.45461309523807 10.1751893939394  5.47991071428578 9.31107954545455  4.20758928571422 8.18892045454545  C 2.93526785714289 7.06676136363636  2.17261904761926 6.39204545454545  1.91964285714289 6.16477272727273  C 1.45833333333348 5.76704545454545  1.02306547619037 5.22017045454545  0.613839285714221 4.52414772727273  C 0.204613095238074 3.828125  0 3.18181818181818  0 2.58522727272727  C 0 1.84659090909091  0.154389880952294 1.2310606060606  0.46316964285711 0.738636363636363  C 0.771949404761926 0.246212121212118  1.21279761904771 0  1.78571428571422 0  L 18.2142857142858 0  C 18.6979166666665 0  19.116443452381 0.222537878787875  19.4698660714287 0.667613636363637  Z " fill-rule="nonzero" fill="#999999" stroke="none" transform="matrix(1 0 0 1 1737 21 )" />
  </g>
</svg>