<?xml version="1.0" encoding="utf-8"?>
<svg version="1.1" xmlns:xlink="http://www.w3.org/1999/xlink" width="44px" height="45px" xmlns="http://www.w3.org/2000/svg">
  <g transform="matrix(1 0 0 1 -98 -9 )">
    <path d="M 38.53125 5.59303977272727  C 37.5520833333333 4.59161931818181  36.375 4.09090909090909  35 4  L 9 4  C 7.625 4.09090909090909  6.44791666666667 4.59161931818181  5.46875 5.59303977272727  C 4.48958333333333 6.59446022727272  4 7.79829545454546  4 9.20454545454546  L 4 35.7954545454545  C 4 37.2017045454545  4.48958333333333 38.4055397727273  5.46875 39.4069602272727  C 6.44791666666667 40.4083806818182  7.625 40.9090909090909  9 41  L 35 41  C 36.375 40.9090909090909  37.5520833333333 40.4083806818182  38.53125 39.4069602272727  C 39.5104166666667 38.4055397727273  40 37.2017045454545  40 35.7954545454545  L 40 9.20454545454546  C 40 7.79829545454546  39.5104166666667 6.59446022727272  38.53125 5.59303977272727  Z M 41.359375 2.70063920454546  C 43.1197916666667 4.50106534090909  44 6.66903409090909  44 9.20454545454546  L 44 35.7954545454545  C 44 38.3309659090909  43.1197916666667 40.4989346590909  41.359375 42.2993607954545  C 39.5989583333333 44.0997869318182  37.4791666666667 45  35 45  L 9 45  C 6.52083333333333 45  4.40104166666667 44.0997869318182  2.640625 42.2993607954545  C 0.880208333333329 40.4989346590909  0 38.3309659090909  0 35.7954545454545  L 0 9.20454545454546  C 0 6.66903409090909  0.880208333333329 4.50106534090909  2.640625 2.70063920454546  C 4.40104166666667 0.900213068181813  6.52083333333333 0  9 0  L 35 0  C 37.4791666666667 0  39.5989583333333 0.900213068181813  41.359375 2.70063920454546  Z " fill-rule="nonzero" fill="#333333" stroke="none" transform="matrix(1 0 0 1 98 9 )" />
  </g>
</svg>