<?xml version="1.0" encoding="utf-8"?>
<svg version="1.1" xmlns:xlink="http://www.w3.org/1999/xlink" width="12px" height="12px" viewBox="12 119  12 12" xmlns="http://www.w3.org/2000/svg">
  <path d="M 18 119  C 21.36 119  24 121.64  24 125  C 24 128.36  21.36 131  18 131  C 14.64 131  12 128.36  12 125  C 12 121.64  14.64 119  18 119  Z " fill-rule="nonzero" fill="#ffffff" stroke="none" />
  <path d="M 18 119.5  C 21.08 119.5  23.5 121.92  23.5 125  C 23.5 128.08  21.08 130.5  18 130.5  C 14.92 130.5  12.5 128.08  12.5 125  C 12.5 121.92  14.92 119.5  18 119.5  Z " stroke-width="1" stroke="#797979" fill="none" />
  <path d="M 18 128  C 16.32 128  15 126.68  15 125  C 15 123.32  16.32 122  18 122  C 19.68 122  21 123.32  21 125  C 21 126.68  19.68 128  18 128  " fill-rule="nonzero" fill="#797979" stroke="none" />
</svg>