<?xml version="1.0" encoding="utf-8"?>
<svg version="1.1" xmlns:xlink="http://www.w3.org/1999/xlink" width="12px" height="12px" viewBox="12 48  12 12" xmlns="http://www.w3.org/2000/svg">
  <path d="M 18 48  C 21.36 48  24 50.64  24 54  C 24 57.36  21.36 60  18 60  C 14.64 60  12 57.36  12 54  C 12 50.64  14.64 48  18 48  Z " fill-rule="nonzero" fill="#ffffff" stroke="none" />
  <path d="M 18 48.5  C 21.08 48.5  23.5 50.92  23.5 54  C 23.5 57.08  21.08 59.5  18 59.5  C 14.92 59.5  12.5 57.08  12.5 54  C 12.5 50.92  14.92 48.5  18 48.5  Z " stroke-width="1" stroke="#797979" fill="none" />
  <path d="M 18 57  C 16.32 57  15 55.68  15 54  C 15 52.32  16.32 51  18 51  C 19.68 51  21 52.32  21 54  C 21 55.68  19.68 57  18 57  " fill-rule="nonzero" fill="#797979" stroke="none" />
</svg>