<?xml version="1.0" encoding="utf-8"?>
<svg version="1.1" xmlns:xlink="http://www.w3.org/1999/xlink" width="60px" height="60px" xmlns="http://www.w3.org/2000/svg">
  <g transform="matrix(1 0 0 1 -520 -245 )">
    <path d="M 520 245  L 580 245  L 580 305  L 520 305  L 520 245  " fill-rule="nonzero" fill="#cccccc" stroke="none" />
    <path d="M 524 249  L 576 249  L 576 301  L 524 301  L 524 249  " fill-rule="nonzero" fill="#ffffff" stroke="none" />
    <path d="M 555.7 263  C 553.18 263  551.2 261.02  551.2 258.5  C 551.2 255.98  553.18 254  555.7 254  C 558.22 254  560.2 255.98  560.2 258.5  C 560.2 261.02  558.22 263  555.7 263  " fill-rule="nonzero" fill="#cccccc" stroke="none" />
    <path d="M 526 300  L 526 273.05  L 538.25 260.8  L 555.4 270.6  L 565.2 268.15  L 575 270.6  L 575 300  L 526 300  " fill-rule="nonzero" fill="#169bd5" stroke="none" />
  </g>
</svg>