<?xml version="1.0" encoding="utf-8"?>
<svg version="1.1" xmlns:xlink="http://www.w3.org/1999/xlink" width="12px" height="12px" viewBox="260 7  12 12" xmlns="http://www.w3.org/2000/svg">
  <path d="M 266 7  C 269.36 7  272 9.64  272 13  C 272 16.36  269.36 19  266 19  C 262.64 19  260 16.36  260 13  C 260 9.64  262.64 7  266 7  Z " fill-rule="nonzero" fill="#ffffff" stroke="none" />
  <path d="M 266 7.5  C 269.08 7.5  271.5 9.92  271.5 13  C 271.5 16.08  269.08 18.5  266 18.5  C 262.92 18.5  260.5 16.08  260.5 13  C 260.5 9.92  262.92 7.5  266 7.5  Z " stroke-width="1" stroke="#797979" fill="none" />
  <path d="M 266 16  C 264.32 16  263 14.68  263 13  C 263 11.32  264.32 10  266 10  C 267.68 10  269 11.32  269 13  C 269 14.68  267.68 16  266 16  " fill-rule="nonzero" fill="#797979" stroke="none" />
</svg>