<?xml version="1.0" encoding="utf-8"?>
<svg version="1.1" xmlns:xlink="http://www.w3.org/1999/xlink" width="12px" height="12px" viewBox="260 613  12 12" xmlns="http://www.w3.org/2000/svg">
  <path d="M 266 613  C 269.36 613  272 615.64  272 619  C 272 622.36  269.36 625  266 625  C 262.64 625  260 622.36  260 619  C 260 615.64  262.64 613  266 613  Z " fill-rule="nonzero" fill="#ffffff" stroke="none" />
  <path d="M 266 613.5  C 269.08 613.5  271.5 615.92  271.5 619  C 271.5 622.08  269.08 624.5  266 624.5  C 262.92 624.5  260.5 622.08  260.5 619  C 260.5 615.92  262.92 613.5  266 613.5  Z " stroke-width="1" stroke="#797979" fill="none" />
  <path d="M 266 622  C 264.32 622  263 620.68  263 619  C 263 617.32  264.32 616  266 616  C 267.68 616  269 617.32  269 619  C 269 620.68  267.68 622  266 622  " fill-rule="nonzero" fill="#797979" stroke="none" />
</svg>