<?xml version="1.0" encoding="utf-8"?>
<svg version="1.1" xmlns:xlink="http://www.w3.org/1999/xlink" width="12px" height="12px" viewBox="320 418  12 12" xmlns="http://www.w3.org/2000/svg">
  <path d="M 326 418  C 329.36 418  332 420.64  332 424  C 332 427.36  329.36 430  326 430  C 322.64 430  320 427.36  320 424  C 320 420.64  322.64 418  326 418  Z " fill-rule="nonzero" fill="#ffffff" stroke="none" />
  <path d="M 326 418.5  C 329.08 418.5  331.5 420.92  331.5 424  C 331.5 427.08  329.08 429.5  326 429.5  C 322.92 429.5  320.5 427.08  320.5 424  C 320.5 420.92  322.92 418.5  326 418.5  Z " stroke-width="1" stroke="#797979" fill="none" />
  <path d="M 326 427  C 324.32 427  323 425.68  323 424  C 323 422.32  324.32 421  326 421  C 327.68 421  329 422.32  329 424  C 329 425.68  327.68 427  326 427  " fill-rule="nonzero" fill="#797979" stroke="none" />
</svg>