<?xml version="1.0" encoding="utf-8"?>
<svg version="1.1" xmlns:xlink="http://www.w3.org/1999/xlink" width="12px" height="12px" viewBox="210 418  12 12" xmlns="http://www.w3.org/2000/svg">
  <path d="M 216 418  C 219.36 418  222 420.64  222 424  C 222 427.36  219.36 430  216 430  C 212.64 430  210 427.36  210 424  C 210 420.64  212.64 418  216 418  Z " fill-rule="nonzero" fill="#ffffff" stroke="none" />
  <path d="M 216 418.5  C 219.08 418.5  221.5 420.92  221.5 424  C 221.5 427.08  219.08 429.5  216 429.5  C 212.92 429.5  210.5 427.08  210.5 424  C 210.5 420.92  212.92 418.5  216 418.5  Z " stroke-width="1" stroke="#797979" fill="none" />
  <path d="M 216 427  C 214.32 427  213 425.68  213 424  C 213 422.32  214.32 421  216 421  C 217.68 421  219 422.32  219 424  C 219 425.68  217.68 427  216 427  " fill-rule="nonzero" fill="#797979" stroke="none" />
</svg>