<?xml version="1.0" encoding="utf-8"?>
<svg version="1.1" xmlns:xlink="http://www.w3.org/1999/xlink" width="12px" height="12px" viewBox="320 232  12 12" xmlns="http://www.w3.org/2000/svg">
  <path d="M 326 232  C 329.36 232  332 234.64  332 238  C 332 241.36  329.36 244  326 244  C 322.64 244  320 241.36  320 238  C 320 234.64  322.64 232  326 232  Z " fill-rule="nonzero" fill="#ffffff" stroke="none" />
  <path d="M 326 232.5  C 329.08 232.5  331.5 234.92  331.5 238  C 331.5 241.08  329.08 243.5  326 243.5  C 322.92 243.5  320.5 241.08  320.5 238  C 320.5 234.92  322.92 232.5  326 232.5  Z " stroke-width="1" stroke="#797979" fill="none" />
  <path d="M 326 241  C 324.32 241  323 239.68  323 238  C 323 236.32  324.32 235  326 235  C 327.68 235  329 236.32  329 238  C 329 239.68  327.68 241  326 241  " fill-rule="nonzero" fill="#797979" stroke="none" />
</svg>