<?xml version="1.0" encoding="utf-8"?>
<svg version="1.1" xmlns:xlink="http://www.w3.org/1999/xlink" width="12px" height="12px" viewBox="210 232  12 12" xmlns="http://www.w3.org/2000/svg">
  <path d="M 216 232  C 219.36 232  222 234.64  222 238  C 222 241.36  219.36 244  216 244  C 212.64 244  210 241.36  210 238  C 210 234.64  212.64 232  216 232  Z " fill-rule="nonzero" fill="#ffffff" stroke="none" />
  <path d="M 216 232.5  C 219.08 232.5  221.5 234.92  221.5 238  C 221.5 241.08  219.08 243.5  216 243.5  C 212.92 243.5  210.5 241.08  210.5 238  C 210.5 234.92  212.92 232.5  216 232.5  Z " stroke-width="1" stroke="#797979" fill="none" />
  <path d="M 216 241  C 214.32 241  213 239.68  213 238  C 213 236.32  214.32 235  216 235  C 217.68 235  219 236.32  219 238  C 219 239.68  217.68 241  216 241  " fill-rule="nonzero" fill="#797979" stroke="none" />
</svg>