<?xml version="1.0" encoding="utf-8"?>
<svg version="1.1" xmlns:xlink="http://www.w3.org/1999/xlink" width="50px" height="50px" xmlns="http://www.w3.org/2000/svg">
  <g transform="matrix(1 0 0 1 -769 -166 )">
    <path d="M 43.7855113636364 6.21448863636363  C 42.672821969697 5.10179924242424  41.3352272727273 4.54545454545455  39.7727272727273 5  L 10.2272727272727 5  C 8.66477272727273 4.54545454545455  7.32717803030303 5.10179924242424  6.21448863636364 6.21448863636363  C 5.10179924242424 7.32717803030303  4.54545454545455 8.66477272727273  5 10.2272727272727  L 5 39.7727272727273  C 4.54545454545455 41.3352272727273  5.10179924242424 42.672821969697  6.21448863636364 43.7855113636364  C 7.32717803030303 44.8982007575758  8.66477272727273 45.4545454545455  10.2272727272727 45  L 39.7727272727273 45  C 41.3352272727273 45.4545454545455  42.672821969697 44.8982007575758  43.7855113636364 43.7855113636364  C 44.8982007575758 42.672821969697  45.4545454545455 41.3352272727273  45 39.7727272727273  L 45 10.2272727272727  C 45.4545454545455 8.66477272727273  44.8982007575758 7.32717803030303  43.7855113636364 6.21448863636363  Z M 46.9992897727273 3.00071022727273  C 48.9997632575758 5.00118371212121  50 7.41003787878787  50 10.2272727272727  L 50 39.7727272727273  C 50 42.5899621212121  48.9997632575758 44.9988162878788  46.9992897727273 46.9992897727273  C 44.9988162878788 48.9997632575758  42.5899621212121 50  39.7727272727273 50  L 10.2272727272727 50  C 7.41003787878788 50  5.00118371212121 48.9997632575758  3.00071022727273 46.9992897727273  C 1.00023674242424 44.9988162878788  0 42.5899621212121  0 39.7727272727273  L 0 10.2272727272727  C 0 7.41003787878787  1.00023674242424 5.00118371212121  3.00071022727273 3.00071022727273  C 5.00118371212121 1.00023674242424  7.41003787878788 0  10.2272727272727 0  L 39.7727272727273 0  C 42.5899621212121 0  44.9988162878788 1.00023674242424  46.9992897727273 3.00071022727273  Z " fill-rule="nonzero" fill="#333333" stroke="none" transform="matrix(1 0 0 1 769 166 )" />
  </g>
</svg>