<?xml version="1.0" encoding="utf-8"?>
<svg version="1.1" xmlns:xlink="http://www.w3.org/1999/xlink" width="12px" height="12px" viewBox="204 272  12 12" xmlns="http://www.w3.org/2000/svg">
  <path d="M 210 272  C 213.36 272  216 274.64  216 278  C 216 281.36  213.36 284  210 284  C 206.64 284  204 281.36  204 278  C 204 274.64  206.64 272  210 272  Z " fill-rule="nonzero" fill="#ffffff" stroke="none" />
  <path d="M 210 272.5  C 213.08 272.5  215.5 274.92  215.5 278  C 215.5 281.08  213.08 283.5  210 283.5  C 206.92 283.5  204.5 281.08  204.5 278  C 204.5 274.92  206.92 272.5  210 272.5  Z " stroke-width="1" stroke="#797979" fill="none" />
  <path d="M 210 281  C 208.32 281  207 279.68  207 278  C 207 276.32  208.32 275  210 275  C 211.68 275  213 276.32  213 278  C 213 279.68  211.68 281  210 281  " fill-rule="nonzero" fill="#797979" stroke="none" />
</svg>