<?xml version="1.0" encoding="utf-8"?>
<svg version="1.1" xmlns:xlink="http://www.w3.org/1999/xlink" width="12px" height="12px" viewBox="204 172  12 12" xmlns="http://www.w3.org/2000/svg">
  <path d="M 210 172  C 213.36 172  216 174.64  216 178  C 216 181.36  213.36 184  210 184  C 206.64 184  204 181.36  204 178  C 204 174.64  206.64 172  210 172  Z " fill-rule="nonzero" fill="#ffffff" stroke="none" />
  <path d="M 210 172.5  C 213.08 172.5  215.5 174.92  215.5 178  C 215.5 181.08  213.08 183.5  210 183.5  C 206.92 183.5  204.5 181.08  204.5 178  C 204.5 174.92  206.92 172.5  210 172.5  Z " stroke-width="1" stroke="#797979" fill="none" />
  <path d="M 210 181  C 208.32 181  207 179.68  207 178  C 207 176.32  208.32 175  210 175  C 211.68 175  213 176.32  213 178  C 213 179.68  211.68 181  210 181  " fill-rule="nonzero" fill="#797979" stroke="none" />
</svg>