<?xml version="1.0" encoding="utf-8"?>
<svg version="1.1" xmlns:xlink="http://www.w3.org/1999/xlink" width="12px" height="12px" viewBox="364 122  12 12" xmlns="http://www.w3.org/2000/svg">
  <path d="M 370 122  C 373.36 122  376 124.64  376 128  C 376 131.36  373.36 134  370 134  C 366.64 134  364 131.36  364 128  C 364 124.64  366.64 122  370 122  Z " fill-rule="nonzero" fill="#ffffff" stroke="none" />
  <path d="M 370 122.5  C 373.08 122.5  375.5 124.92  375.5 128  C 375.5 131.08  373.08 133.5  370 133.5  C 366.92 133.5  364.5 131.08  364.5 128  C 364.5 124.92  366.92 122.5  370 122.5  Z " stroke-width="1" stroke="#797979" fill="none" />
  <path d="M 370 131  C 368.32 131  367 129.68  367 128  C 367 126.32  368.32 125  370 125  C 371.68 125  373 126.32  373 128  C 373 129.68  371.68 131  370 131  " fill-rule="nonzero" fill="#797979" stroke="none" />
</svg>