<?xml version="1.0" encoding="utf-8"?>
<svg version="1.1" xmlns:xlink="http://www.w3.org/1999/xlink" width="12px" height="12px" viewBox="126 172  12 12" xmlns="http://www.w3.org/2000/svg">
  <path d="M 132 172  C 135.36 172  138 174.64  138 178  C 138 181.36  135.36 184  132 184  C 128.64 184  126 181.36  126 178  C 126 174.64  128.64 172  132 172  Z " fill-rule="nonzero" fill="#ffffff" stroke="none" />
  <path d="M 132 172.5  C 135.08 172.5  137.5 174.92  137.5 178  C 137.5 181.08  135.08 183.5  132 183.5  C 128.92 183.5  126.5 181.08  126.5 178  C 126.5 174.92  128.92 172.5  132 172.5  Z " stroke-width="1" stroke="#797979" fill="none" />
  <path d="M 132 181  C 130.32 181  129 179.68  129 178  C 129 176.32  130.32 175  132 175  C 133.68 175  135 176.32  135 178  C 135 179.68  133.68 181  132 181  " fill-rule="nonzero" fill="#797979" stroke="none" />
</svg>