<?xml version="1.0" encoding="utf-8"?>
<svg version="1.1" xmlns:xlink="http://www.w3.org/1999/xlink" width="12px" height="12px" viewBox="126 272  12 12" xmlns="http://www.w3.org/2000/svg">
  <path d="M 132 272  C 135.36 272  138 274.64  138 278  C 138 281.36  135.36 284  132 284  C 128.64 284  126 281.36  126 278  C 126 274.64  128.64 272  132 272  Z " fill-rule="nonzero" fill="#ffffff" stroke="none" />
  <path d="M 132 272.5  C 135.08 272.5  137.5 274.92  137.5 278  C 137.5 281.08  135.08 283.5  132 283.5  C 128.92 283.5  126.5 281.08  126.5 278  C 126.5 274.92  128.92 272.5  132 272.5  Z " stroke-width="1" stroke="#797979" fill="none" />
  <path d="M 132 281  C 130.32 281  129 279.68  129 278  C 129 276.32  130.32 275  132 275  C 133.68 275  135 276.32  135 278  C 135 279.68  133.68 281  132 281  " fill-rule="nonzero" fill="#797979" stroke="none" />
</svg>