<?xml version="1.0" encoding="utf-8"?>
<svg version="1.1" xmlns:xlink="http://www.w3.org/1999/xlink" width="12px" height="12px" viewBox="204 122  12 12" xmlns="http://www.w3.org/2000/svg">
  <path d="M 210 122  C 213.36 122  216 124.64  216 128  C 216 131.36  213.36 134  210 134  C 206.64 134  204 131.36  204 128  C 204 124.64  206.64 122  210 122  Z " fill-rule="nonzero" fill="#ffffff" stroke="none" />
  <path d="M 210 122.5  C 213.08 122.5  215.5 124.92  215.5 128  C 215.5 131.08  213.08 133.5  210 133.5  C 206.92 133.5  204.5 131.08  204.5 128  C 204.5 124.92  206.92 122.5  210 122.5  Z " stroke-width="1" stroke="#797979" fill="none" />
  <path d="M 210 131  C 208.32 131  207 129.68  207 128  C 207 126.32  208.32 125  210 125  C 211.68 125  213 126.32  213 128  C 213 129.68  211.68 131  210 131  " fill-rule="nonzero" fill="#797979" stroke="none" />
</svg>