<?xml version="1.0" encoding="utf-8"?>
<svg version="1.1" xmlns:xlink="http://www.w3.org/1999/xlink" width="12px" height="12px" viewBox="284 122  12 12" xmlns="http://www.w3.org/2000/svg">
  <path d="M 290 122  C 293.36 122  296 124.64  296 128  C 296 131.36  293.36 134  290 134  C 286.64 134  284 131.36  284 128  C 284 124.64  286.64 122  290 122  Z " fill-rule="nonzero" fill="#ffffff" stroke="none" />
  <path d="M 290 122.5  C 293.08 122.5  295.5 124.92  295.5 128  C 295.5 131.08  293.08 133.5  290 133.5  C 286.92 133.5  284.5 131.08  284.5 128  C 284.5 124.92  286.92 122.5  290 122.5  Z " stroke-width="1" stroke="#797979" fill="none" />
  <path d="M 290 131  C 288.32 131  287 129.68  287 128  C 287 126.32  288.32 125  290 125  C 291.68 125  293 126.32  293 128  C 293 129.68  291.68 131  290 131  " fill-rule="nonzero" fill="#797979" stroke="none" />
</svg>