<?xml version="1.0" encoding="utf-8"?>
<svg version="1.1" xmlns:xlink="http://www.w3.org/1999/xlink" width="12px" height="12px" viewBox="23 269  12 12" xmlns="http://www.w3.org/2000/svg">
  <path d="M 29 269  C 32.36 269  35 271.64  35 275  C 35 278.36  32.36 281  29 281  C 25.64 281  23 278.36  23 275  C 23 271.64  25.64 269  29 269  Z " fill-rule="nonzero" fill="#ffffff" stroke="none" />
  <path d="M 29 269.5  C 32.08 269.5  34.5 271.92  34.5 275  C 34.5 278.08  32.08 280.5  29 280.5  C 25.92 280.5  23.5 278.08  23.5 275  C 23.5 271.92  25.92 269.5  29 269.5  Z " stroke-width="1" stroke="#797979" fill="none" />
  <path d="M 29 278  C 27.32 278  26 276.68  26 275  C 26 273.32  27.32 272  29 272  C 30.68 272  32 273.32  32 275  C 32 276.68  30.68 278  29 278  " fill-rule="nonzero" fill="#797979" stroke="none" />
</svg>