<?xml version="1.0" encoding="utf-8"?>
<svg version="1.1" xmlns:xlink="http://www.w3.org/1999/xlink" width="47px" height="50px" xmlns="http://www.w3.org/2000/svg">
  <g transform="matrix(1 0 0 1 -30 -99 )">
    <path d="M 45.9622961956522 20.0417201540436  C 46.6540987318841 20.8440308087291  47 21.8121523320496  47 22.9460847240051  L 47 27.0539152759949  C 47 28.1878476679504  46.6540987318841 29.1559691912709  45.9622961956522 29.9582798459564  C 45.2704936594203 30.7605905006419  44.3711503623188 31.1617458279846  43.2642663043478 31  L 20.7860054347826 31  L 30.1413043478261 40.596919127086  C 30.9501811594203 41.3671373555841  31.3546195652174 42.3299101412067  31.3546195652174 43.4852374839538  C 31.3546195652174 44.6405648267009  30.9501811594203 45.6033376123235  30.1413043478261 46.3735558408216  L 27.7466032608696 48.8125802310655  C 26.9590126811594 49.6041934103552  26.0011322463768 50  24.8729619565217 50  C 23.7660778985507 50  22.7975543478261 49.6041934103552  21.9673913043478 48.8125802310655  L 1.18138586956522 27.8883183568678  C 0.393795289855073 27.0967051775781  0 26.1339323919555  0 25  C 0 23.8874625588361  0.393795289855073 22.9139922978177  1.18138586956522 22.0795892169448  L 21.9673913043478 1.21951219512195  C 22.776268115942 0.406504065040647  23.7447916666667 0  24.8729619565217 0  C 25.9798460144928 0  26.9377264492754 0.406504065040647  27.7466032608696 1.21951219512195  L 30.1413043478261 3.59435173299101  C 30.9501811594203 4.40735986307231  31.3546195652174 5.38083012409071  31.3546195652174 6.51476251604621  C 31.3546195652174 7.64869490800171  30.9501811594203 8.62216516902011  30.1413043478261 9.43517329910141  L 20.7860054347826 19  L 43.2642663043478 19  C 44.3711503623188 18.8382541720154  45.2704936594203 19.2394094993582  45.9622961956522 20.0417201540436  Z " fill-rule="nonzero" fill="#333333" stroke="none" transform="matrix(1 0 0 1 30 99 )" />
  </g>
</svg>