<?xml version="1.0" encoding="utf-8"?>
<svg version="1.1" xmlns:xlink="http://www.w3.org/1999/xlink" width="12px" height="12px" viewBox="23 312  12 12" xmlns="http://www.w3.org/2000/svg">
  <path d="M 29 312  C 32.36 312  35 314.64  35 318  C 35 321.36  32.36 324  29 324  C 25.64 324  23 321.36  23 318  C 23 314.64  25.64 312  29 312  Z " fill-rule="nonzero" fill="#ffffff" stroke="none" />
  <path d="M 29 312.5  C 32.08 312.5  34.5 314.92  34.5 318  C 34.5 321.08  32.08 323.5  29 323.5  C 25.92 323.5  23.5 321.08  23.5 318  C 23.5 314.92  25.92 312.5  29 312.5  Z " stroke-width="1" stroke="#797979" fill="none" />
  <path d="M 29 321  C 27.32 321  26 319.68  26 318  C 26 316.32  27.32 315  29 315  C 30.68 315  32 316.32  32 318  C 32 319.68  30.68 321  29 321  " fill-rule="nonzero" fill="#797979" stroke="none" />
</svg>