<?xml version="1.0" encoding="utf-8"?>
<svg version="1.1" xmlns:xlink="http://www.w3.org/1999/xlink" width="12px" height="12px" viewBox="20 149  12 12" xmlns="http://www.w3.org/2000/svg">
  <path d="M 26 149  C 29.36 149  32 151.64  32 155  C 32 158.36  29.36 161  26 161  C 22.64 161  20 158.36  20 155  C 20 151.64  22.64 149  26 149  Z " fill-rule="nonzero" fill="#ffffff" stroke="none" />
  <path d="M 26 149.5  C 29.08 149.5  31.5 151.92  31.5 155  C 31.5 158.08  29.08 160.5  26 160.5  C 22.92 160.5  20.5 158.08  20.5 155  C 20.5 151.92  22.92 149.5  26 149.5  Z " stroke-width="1" stroke="#797979" fill="none" />
  <path d="M 26 158  C 24.32 158  23 156.68  23 155  C 23 153.32  24.32 152  26 152  C 27.68 152  29 153.32  29 155  C 29 156.68  27.68 158  26 158  " fill-rule="nonzero" fill="#797979" stroke="none" />
</svg>