<?xml version="1.0" encoding="utf-8"?>
<svg version="1.1" xmlns:xlink="http://www.w3.org/1999/xlink" width="12px" height="12px" viewBox="20 152  12 12" xmlns="http://www.w3.org/2000/svg">
  <path d="M 26 152  C 29.36 152  32 154.64  32 158  C 32 161.36  29.36 164  26 164  C 22.64 164  20 161.36  20 158  C 20 154.64  22.64 152  26 152  Z " fill-rule="nonzero" fill="#ffffff" stroke="none" />
  <path d="M 26 152.5  C 29.08 152.5  31.5 154.92  31.5 158  C 31.5 161.08  29.08 163.5  26 163.5  C 22.92 163.5  20.5 161.08  20.5 158  C 20.5 154.92  22.92 152.5  26 152.5  Z " stroke-width="1" stroke="#797979" fill="none" />
  <path d="M 26 161  C 24.32 161  23 159.68  23 158  C 23 156.32  24.32 155  26 155  C 27.68 155  29 156.32  29 158  C 29 159.68  27.68 161  26 161  " fill-rule="nonzero" fill="#797979" stroke="none" />
</svg>