<?xml version="1.0" encoding="utf-8"?>
<svg version="1.1" xmlns:xlink="http://www.w3.org/1999/xlink" width="30px" height="30px" xmlns="http://www.w3.org/2000/svg">
  <g transform="matrix(1 0 0 1 -779 -226 )">
    <path d="M 794 226.5  C 802.12 226.5  808.5 232.88  808.5 241  C 808.5 249.12  802.12 255.5  794 255.5  C 785.88 255.5  779.5 249.12  779.5 241  C 779.5 232.88  785.88 226.5  794 226.5  Z " fill-rule="nonzero" fill="#ffffff" stroke="none" />
    <path d="M 794 226.5  C 802.12 226.5  808.5 232.88  808.5 241  C 808.5 249.12  802.12 255.5  794 255.5  C 785.88 255.5  779.5 249.12  779.5 241  C 779.5 232.88  785.88 226.5  794 226.5  Z " stroke-width="1" stroke-dasharray="9,4" stroke="#797979" fill="none" stroke-dashoffset="0.5" />
  </g>
</svg>