<?xml version="1.0" encoding="utf-8"?>
<svg version="1.1" xmlns:xlink="http://www.w3.org/1999/xlink" width="40px" height="40px" xmlns="http://www.w3.org/2000/svg">
  <g transform="matrix(1 0 0 1 -739 -46 )">
    <path d="M 26.4713541666667 4.66145833333333  C 24.4140625 3.77604166666667  22.2569444444444 3.33333333333333  20 3.33333333333333  C 17.7430555555556 3.33333333333333  15.5859375 3.77604166666667  13.5286458333333 4.66145833333333  C 11.4713541666667 5.546875  9.70052083333333 6.73177083333333  8.21614583333333 8.21614583333334  C 6.73177083333333 9.70052083333334  5.546875 11.4713541666667  4.66145833333333 13.5286458333333  C 3.77604166666667 15.5859375  3.33333333333333 17.7430555555556  3.33333333333333 20  C 3.33333333333333 22.2569444444444  3.77604166666667 24.4140625  4.66145833333333 26.4713541666667  C 5.546875 28.5286458333333  6.73177083333333 30.2994791666667  8.21614583333333 31.7838541666667  C 9.70052083333333 33.2682291666667  11.4713541666667 34.453125  13.5286458333333 35.3385416666667  C 15.5859375 36.2239583333333  17.7430555555556 36.6666666666667  20 36.6666666666667  C 22.2569444444444 36.6666666666667  24.4140625 36.2239583333333  26.4713541666667 35.3385416666667  C 28.5286458333333 34.453125  30.2994791666667 33.2682291666667  31.7838541666667 31.7838541666667  C 33.2682291666667 30.2994791666667  34.453125 28.5286458333333  35.3385416666667 26.4713541666667  C 36.2239583333333 24.4140625  36.6666666666667 22.2569444444444  36.6666666666667 20  C 36.6666666666667 17.7430555555556  36.2239583333333 15.5859375  35.3385416666667 13.5286458333333  C 34.453125 11.4713541666667  33.2682291666667 9.70052083333334  31.7838541666667 8.21614583333334  C 30.2994791666667 6.73177083333333  28.5286458333333 5.546875  26.4713541666667 4.66145833333333  Z M 37.3177083333333 9.9609375  C 39.1059027777778 13.0251736111111  40 16.3715277777778  40 20  C 40 23.6284722222222  39.1059027777778 26.9748263888889  37.3177083333333 30.0390625  C 35.5295138888889 33.1032986111111  33.1032986111111 35.5295138888889  30.0390625 37.3177083333333  C 26.9748263888889 39.1059027777778  23.6284722222222 40  20 40  C 16.3715277777778 40  13.0251736111111 39.1059027777778  9.9609375 37.3177083333333  C 6.89670138888889 35.5295138888889  4.47048611111111 33.1032986111111  2.68229166666667 30.0390625  C 0.894097222222222 26.9748263888889  0 23.6284722222222  0 20  C 0 16.3715277777778  0.894097222222222 13.0251736111111  2.68229166666667 9.9609375  C 4.47048611111111 6.89670138888889  6.89670138888889 4.47048611111111  9.9609375 2.68229166666667  C 13.0251736111111 0.894097222222219  16.3715277777778 0  20 0  C 23.6284722222222 0  26.9748263888889 0.894097222222219  30.0390625 2.68229166666667  C 33.1032986111111 4.47048611111111  35.5295138888889 6.89670138888889  37.3177083333333 9.9609375  Z " fill-rule="nonzero" fill="#999999" stroke="none" transform="matrix(1 0 0 1 739 46 )" />
  </g>
</svg>