<?xml version="1.0" encoding="utf-8"?>
<svg version="1.1" xmlns:xlink="http://www.w3.org/1999/xlink" width="597px" height="35px" xmlns="http://www.w3.org/2000/svg">
  <g transform="matrix(1 0 0 1 -783 -274 )">
    <path d="M 783.5 277  A 2.5 2.5 0 0 1 786 274.5 L 1377 274.5  A 2.5 2.5 0 0 1 1379.5 277 L 1379.5 306  A 2.5 2.5 0 0 1 1377 308.5 L 786 308.5  A 2.5 2.5 0 0 1 783.5 306 L 783.5 277  Z " fill-rule="nonzero" fill="#ffffff" stroke="none" />
    <path d="M 783.5 277  A 2.5 2.5 0 0 1 786 274.5 L 1377 274.5  A 2.5 2.5 0 0 1 1379.5 277 L 1379.5 306  A 2.5 2.5 0 0 1 1377 308.5 L 786 308.5  A 2.5 2.5 0 0 1 783.5 306 L 783.5 277  Z " stroke-width="1" stroke="#3498db" fill="none" />
  </g>
</svg>