<?xml version="1.0" encoding="utf-8"?>
<svg version="1.1" xmlns:xlink="http://www.w3.org/1999/xlink" width="12px" height="12px" viewBox="182 28  12 12" xmlns="http://www.w3.org/2000/svg">
  <path d="M 188 28  C 191.36 28  194 30.64  194 34  C 194 37.36  191.36 40  188 40  C 184.64 40  182 37.36  182 34  C 182 30.64  184.64 28  188 28  Z " fill-rule="nonzero" fill="#ffffff" stroke="none" />
  <path d="M 188 28.5  C 191.08 28.5  193.5 30.92  193.5 34  C 193.5 37.08  191.08 39.5  188 39.5  C 184.92 39.5  182.5 37.08  182.5 34  C 182.5 30.92  184.92 28.5  188 28.5  Z " stroke-width="1" stroke="#797979" fill="none" />
  <path d="M 188 37  C 186.32 37  185 35.68  185 34  C 185 32.32  186.32 31  188 31  C 189.68 31  191 32.32  191 34  C 191 35.68  189.68 37  188 37  " fill-rule="nonzero" fill="#797979" stroke="none" />
</svg>