<?xml version="1.0" encoding="utf-8"?>
<svg version="1.1" xmlns:xlink="http://www.w3.org/1999/xlink" width="12px" height="12px" viewBox="102 28  12 12" xmlns="http://www.w3.org/2000/svg">
  <path d="M 108 28  C 111.36 28  114 30.64  114 34  C 114 37.36  111.36 40  108 40  C 104.64 40  102 37.36  102 34  C 102 30.64  104.64 28  108 28  Z " fill-rule="nonzero" fill="#ffffff" stroke="none" />
  <path d="M 108 28.5  C 111.08 28.5  113.5 30.92  113.5 34  C 113.5 37.08  111.08 39.5  108 39.5  C 104.92 39.5  102.5 37.08  102.5 34  C 102.5 30.92  104.92 28.5  108 28.5  Z " stroke-width="1" stroke="#797979" fill="none" />
  <path d="M 108 37  C 106.32 37  105 35.68  105 34  C 105 32.32  106.32 31  108 31  C 109.68 31  111 32.32  111 34  C 111 35.68  109.68 37  108 37  " fill-rule="nonzero" fill="#797979" stroke="none" />
</svg>