<?xml version="1.0" encoding="utf-8"?>
<svg version="1.1" xmlns:xlink="http://www.w3.org/1999/xlink" width="12px" height="12px" viewBox="96 28  12 12" xmlns="http://www.w3.org/2000/svg">
  <path d="M 102 28  C 105.36 28  108 30.64  108 34  C 108 37.36  105.36 40  102 40  C 98.64 40  96 37.36  96 34  C 96 30.64  98.64 28  102 28  Z " fill-rule="nonzero" fill="#ffffff" stroke="none" />
  <path d="M 102 28.5  C 105.08 28.5  107.5 30.92  107.5 34  C 107.5 37.08  105.08 39.5  102 39.5  C 98.92 39.5  96.5 37.08  96.5 34  C 96.5 30.92  98.92 28.5  102 28.5  Z " stroke-width="1" stroke="#797979" fill="none" />
  <path d="M 102 37  C 100.32 37  99 35.68  99 34  C 99 32.32  100.32 31  102 31  C 103.68 31  105 32.32  105 34  C 105 35.68  103.68 37  102 37  " fill-rule="nonzero" fill="#797979" stroke="none" />
</svg>