<?xml version="1.0" encoding="utf-8"?>
<svg version="1.1" xmlns:xlink="http://www.w3.org/1999/xlink" width="255px" height="36px" xmlns="http://www.w3.org/2000/svg">
  <g>
    <path d="M 241.124200599334 0.5  C 241.124200599334 0.5  243.946680701494 0.699233889564206  243.946680701494 0.699233889564206  C 243.946680701494 0.699233889564206  254.475786568227 18  254.475786568227 18  C 254.475786568227 18  243.946680701494 35.3007661104358  243.946680701494 35.3007661104358  C 243.946680701494 35.3007661104358  241.124200599334 35.5  241.124200599334 35.5  C 241.124200599334 35.5  0.499999999999998 35.5  0.499999999999998 35.5  C 0.499999999999998 35.5  0.5 0.499999999999998  0.5 0.499999999999998  C 0.5 0.499999999999998  241.124200599334 0.5  241.124200599334 0.5  Z " fill-rule="nonzero" fill="#ffffff" stroke="none" />
    <path d="M 241.124200599334 0.5  C 241.124200599334 0.5  243.946680701494 0.699233889564206  243.946680701494 0.699233889564206  C 243.946680701494 0.699233889564206  254.475786568227 18  254.475786568227 18  C 254.475786568227 18  243.946680701494 35.3007661104358  243.946680701494 35.3007661104358  C 243.946680701494 35.3007661104358  241.124200599334 35.5  241.124200599334 35.5  C 241.124200599334 35.5  0.499999999999998 35.5  0.499999999999998 35.5  C 0.499999999999998 35.5  0.5 0.499999999999998  0.5 0.499999999999998  C 0.5 0.499999999999998  241.124200599334 0.5  241.124200599334 0.5  Z " stroke-width="1" stroke="#aeaeae" fill="none" />
  </g>
</svg>