<?xml version="1.0" encoding="utf-8"?>
<svg version="1.1" xmlns:xlink="http://www.w3.org/1999/xlink" width="12px" height="12px" viewBox="161 455  12 12" xmlns="http://www.w3.org/2000/svg">
  <path d="M 167 455  C 170.36 455  173 457.64  173 461  C 173 464.36  170.36 467  167 467  C 163.64 467  161 464.36  161 461  C 161 457.64  163.64 455  167 455  Z " fill-rule="nonzero" fill="#ffffff" stroke="none" />
  <path d="M 167 455.5  C 170.08 455.5  172.5 457.92  172.5 461  C 172.5 464.08  170.08 466.5  167 466.5  C 163.92 466.5  161.5 464.08  161.5 461  C 161.5 457.92  163.92 455.5  167 455.5  Z " stroke-width="1" stroke="#797979" fill="none" />
  <path d="M 167 464  C 165.32 464  164 462.68  164 461  C 164 459.32  165.32 458  167 458  C 168.68 458  170 459.32  170 461  C 170 462.68  168.68 464  167 464  " fill-rule="nonzero" fill="#797979" stroke="none" />
</svg>