<?xml version="1.0" encoding="utf-8"?>
<svg version="1.1" xmlns:xlink="http://www.w3.org/1999/xlink" width="255px" height="36px" xmlns="http://www.w3.org/2000/svg">
  <g transform="matrix(1 0 0 1 -269 0 )">
    <path d="M 510.124200599334 0.5  C 510.124200599334 0.5  512.946680701494 0.699233889564206  512.946680701494 0.699233889564206  C 512.946680701494 0.699233889564206  523.475786568227 18  523.475786568227 18  C 523.475786568227 18  512.946680701494 35.3007661104358  512.946680701494 35.3007661104358  C 512.946680701494 35.3007661104358  510.124200599334 35.5  510.124200599334 35.5  C 510.124200599334 35.5  269.5 35.5  269.5 35.5  C 269.5 35.5  269.5 0.499999999999998  269.5 0.499999999999998  C 269.5 0.499999999999998  510.124200599334 0.5  510.124200599334 0.5  Z " fill-rule="nonzero" fill="#c9c9c9" stroke="none" />
    <path d="M 510.124200599334 0.5  C 510.124200599334 0.5  512.946680701494 0.699233889564206  512.946680701494 0.699233889564206  C 512.946680701494 0.699233889564206  523.475786568227 18  523.475786568227 18  C 523.475786568227 18  512.946680701494 35.3007661104358  512.946680701494 35.3007661104358  C 512.946680701494 35.3007661104358  510.124200599334 35.5  510.124200599334 35.5  C 510.124200599334 35.5  269.5 35.5  269.5 35.5  C 269.5 35.5  269.5 0.499999999999998  269.5 0.499999999999998  C 269.5 0.499999999999998  510.124200599334 0.5  510.124200599334 0.5  Z " stroke-width="1" stroke="#aeaeae" fill="none" />
  </g>
</svg>