<?xml version="1.0" encoding="utf-8"?>
<svg version="1.1" xmlns:xlink="http://www.w3.org/1999/xlink" width="12px" height="12px" viewBox="270 178  12 12" xmlns="http://www.w3.org/2000/svg">
  <path d="M 276 178  C 279.36 178  282 180.64  282 184  C 282 187.36  279.36 190  276 190  C 272.64 190  270 187.36  270 184  C 270 180.64  272.64 178  276 178  Z " fill-rule="nonzero" fill="#ffffff" stroke="none" />
  <path d="M 276 178.5  C 279.08 178.5  281.5 180.92  281.5 184  C 281.5 187.08  279.08 189.5  276 189.5  C 272.92 189.5  270.5 187.08  270.5 184  C 270.5 180.92  272.92 178.5  276 178.5  Z " stroke-width="1" stroke="#797979" fill="none" />
  <path d="M 276 187  C 274.32 187  273 185.68  273 184  C 273 182.32  274.32 181  276 181  C 277.68 181  279 182.32  279 184  C 279 185.68  277.68 187  276 187  " fill-rule="nonzero" fill="#797979" stroke="none" />
</svg>