<?xml version="1.0" encoding="utf-8"?>
<svg version="1.1" xmlns:xlink="http://www.w3.org/1999/xlink" width="12px" height="12px" viewBox="246 449  12 12" xmlns="http://www.w3.org/2000/svg">
  <path d="M 252 449  C 255.36 449  258 451.64  258 455  C 258 458.36  255.36 461  252 461  C 248.64 461  246 458.36  246 455  C 246 451.64  248.64 449  252 449  Z " fill-rule="nonzero" fill="#ffffff" stroke="none" />
  <path d="M 252 449.5  C 255.08 449.5  257.5 451.92  257.5 455  C 257.5 458.08  255.08 460.5  252 460.5  C 248.92 460.5  246.5 458.08  246.5 455  C 246.5 451.92  248.92 449.5  252 449.5  Z " stroke-width="1" stroke="#797979" fill="none" />
  <path d="M 252 458  C 250.32 458  249 456.68  249 455  C 249 453.32  250.32 452  252 452  C 253.68 452  255 453.32  255 455  C 255 456.68  253.68 458  252 458  " fill-rule="nonzero" fill="#797979" stroke="none" />
</svg>