<?xml version="1.0" encoding="utf-8"?>
<svg version="1.1" xmlns:xlink="http://www.w3.org/1999/xlink" width="12px" height="12px" viewBox="155 449  12 12" xmlns="http://www.w3.org/2000/svg">
  <path d="M 161 449  C 164.36 449  167 451.64  167 455  C 167 458.36  164.36 461  161 461  C 157.64 461  155 458.36  155 455  C 155 451.64  157.64 449  161 449  Z " fill-rule="nonzero" fill="#ffffff" stroke="none" />
  <path d="M 161 449.5  C 164.08 449.5  166.5 451.92  166.5 455  C 166.5 458.08  164.08 460.5  161 460.5  C 157.92 460.5  155.5 458.08  155.5 455  C 155.5 451.92  157.92 449.5  161 449.5  Z " stroke-width="1" stroke="#797979" fill="none" />
  <path d="M 161 458  C 159.32 458  158 456.68  158 455  C 158 453.32  159.32 452  161 452  C 162.68 452  164 453.32  164 455  C 164 456.68  162.68 458  161 458  " fill-rule="nonzero" fill="#797979" stroke="none" />
</svg>