<?xml version="1.0" encoding="utf-8"?>
<svg version="1.1" xmlns:xlink="http://www.w3.org/1999/xlink" width="12px" height="12px" viewBox="246 489  12 12" xmlns="http://www.w3.org/2000/svg">
  <path d="M 252 489  C 255.36 489  258 491.64  258 495  C 258 498.36  255.36 501  252 501  C 248.64 501  246 498.36  246 495  C 246 491.64  248.64 489  252 489  Z " fill-rule="nonzero" fill="#ffffff" stroke="none" />
  <path d="M 252 489.5  C 255.08 489.5  257.5 491.92  257.5 495  C 257.5 498.08  255.08 500.5  252 500.5  C 248.92 500.5  246.5 498.08  246.5 495  C 246.5 491.92  248.92 489.5  252 489.5  Z " stroke-width="1" stroke="#797979" fill="none" />
  <path d="M 252 498  C 250.32 498  249 496.68  249 495  C 249 493.32  250.32 492  252 492  C 253.68 492  255 493.32  255 495  C 255 496.68  253.68 498  252 498  " fill-rule="nonzero" fill="#797979" stroke="none" />
</svg>