<?xml version="1.0" encoding="utf-8"?>
<svg version="1.1" xmlns:xlink="http://www.w3.org/1999/xlink" width="12px" height="12px" viewBox="155 489  12 12" xmlns="http://www.w3.org/2000/svg">
  <path d="M 161 489  C 164.36 489  167 491.64  167 495  C 167 498.36  164.36 501  161 501  C 157.64 501  155 498.36  155 495  C 155 491.64  157.64 489  161 489  Z " fill-rule="nonzero" fill="#ffffff" stroke="none" />
  <path d="M 161 489.5  C 164.08 489.5  166.5 491.92  166.5 495  C 166.5 498.08  164.08 500.5  161 500.5  C 157.92 500.5  155.5 498.08  155.5 495  C 155.5 491.92  157.92 489.5  161 489.5  Z " stroke-width="1" stroke="#797979" fill="none" />
  <path d="M 161 498  C 159.32 498  158 496.68  158 495  C 158 493.32  159.32 492  161 492  C 162.68 492  164 493.32  164 495  C 164 496.68  162.68 498  161 498  " fill-rule="nonzero" fill="#797979" stroke="none" />
</svg>