<?xml version="1.0" encoding="utf-8"?>
<svg version="1.1" xmlns:xlink="http://www.w3.org/1999/xlink" width="45px" height="45px" xmlns="http://www.w3.org/2000/svg">
  <g transform="matrix(1 0 0 1 -86 -230 )">
    <path d="M 108.5 230  C 121.1 230  131 239.9  131 252.5  C 131 265.1  121.1 275  108.5 275  C 95.9 275  86 265.1  86 252.5  C 86 239.9  95.9 230  108.5 230  Z " fill-rule="nonzero" fill="#ffffff" stroke="none" />
    <path d="M 108.5 230.5  C 120.82 230.5  130.5 240.18  130.5 252.5  C 130.5 264.82  120.82 274.5  108.5 274.5  C 96.18 274.5  86.5 264.82  86.5 252.5  C 86.5 240.18  96.18 230.5  108.5 230.5  Z " stroke-width="1" stroke="#797979" fill="none" />
  </g>
</svg>