<?xml version="1.0" encoding="utf-8"?>
<svg version="1.1" xmlns:xlink="http://www.w3.org/1999/xlink" width="26px" height="29px" xmlns="http://www.w3.org/2000/svg">
  <g transform="matrix(1 0 0 1 -155 -13 )">
    <path d="M 19.6354166666667 26.374145785877  C 19.7708333333333 26.2420273348519  19.8103298611111 26.08238420653  19.75390625 25.8952164009112  C 19.6974826388889 25.6860288534548  19.5620659722222 25.6585041761579  19.34765625 25.8126423690205  C 19.0091145833333 26.0548595292331  18.5182291666667 26.2695520121488  17.875 26.4567198177677  C 17.2317708333333 26.6438876233865  16.4926215277778 26.7374715261959  15.6575520833333 26.7374715261959  C 14.2018229166667 26.7374715261959  13.1128472222222 26.4677296886864  12.390625 25.9282460136674  C 12.3342013888889 25.8842065299924  12.2608506944445 25.8621867881549  12.1705729166667 25.8621867881549  C 12.0464409722222 25.8621867881549  11.8997395833333 25.9282460136674  11.73046875 26.0603644646925  C 11.6514756944445 26.126423690205  11.6091579861111 26.214502657555  11.603515625 26.3246013667426  C 11.5978732638889 26.4347000759301  11.6401909722222 26.5447987851177  11.73046875 26.6548974943052  C 12.1141493055555 27.0072133637054  12.6078559027778 27.2604403948367  13.2115885416667 27.4145785876993  C 13.8153211805555 27.5687167805619  14.3936631944445 27.6375284738041  14.9466145833333 27.621013667426  C 15.4995659722222 27.6044988610478  16.0581597222222 27.5797266514806  16.6223958333333 27.5466970387244  C 17.0850694444445 27.5026575550494  17.5618489583333 27.3898063781321  18.052734375 27.2081435079727  C 18.5436197916667 27.0264806378132  18.9103732638889 26.8613325740319  19.1529947916667 26.7126993166287  C 19.3956163194445 26.5640660592255  19.5564236111111 26.4512148823083  19.6354166666667 26.374145785877  Z M 18.8567708333333 24.5575170842825  C 19.1163194444445 24.4253986332574  19.1953125 24.2382308276386  19.09375 23.996013667426  C 18.8793402777778 23.4785497342445  18.6592881944445 23.1427486712225  18.43359375 22.9886104783599  C 18.1740451388889 22.8234624145786  17.7452256944445 22.7408883826879  17.1471354166667 22.7408883826879  C 16.6167534722222 22.7408883826879  16.2161458333333 22.7959377372817  15.9453125 22.9060364464692  C 15.6180555555555 23.0381548974943  15.1779513888889 23.3464312832194  14.625 23.8308656036446  C 14.3315972222222 24.0951025056948  14.2638888888889 24.3373196659074  14.421875 24.5575170842825  C 14.5234375 24.6455960516325  14.6221788194445 24.6703682611997  14.7180989583333 24.6318337129841  C 14.8140190972222 24.5932991647684  14.9917534722222 24.463933181473  15.2513020833333 24.2437357630979  C 15.28515625 24.2217160212604  15.3444010416667 24.1749240698557  15.4290364583333 24.1033599088838  C 15.513671875 24.0317957479119  15.5729166666667 23.9850037965072  15.6067708333333 23.9629840546697  C 15.640625 23.9409643128322  15.6970486111111 23.9024297646165  15.7760416666667 23.8473804100228  C 15.8550347222222 23.792331055429  15.919921875 23.7537965072134  15.970703125 23.7317767653759  C 16.021484375 23.7097570235383  16.0920138888889 23.6822323462415  16.1822916666667 23.6492027334852  C 16.2725694444445 23.6161731207289  16.3572048611111 23.5914009111617  16.4361979166667 23.5748861047836  C 16.5151909722222 23.5583712984055  16.6082899305555 23.544608959757  16.7154947916667 23.5335990888383  C 16.8226996527778 23.5225892179195  16.9383680555555 23.5170842824601  17.0625 23.5170842824601  C 17.3671875 23.5170842824601  17.6182725694445 23.5583712984055  17.8157552083333 23.6409453302961  C 18.0132378472222 23.7235193621868  18.1430121527778 23.8033409263478  18.205078125 23.880410022779  C 18.2671440972222 23.9574791192103  18.3433159722222 24.0785876993166  18.43359375 24.2437357630979  C 18.5464409722222 24.4309035687168  18.6169704861111 24.5410022779043  18.6451822916667 24.5740318906606  C 18.6733940972222 24.6070615034169  18.7439236111111 24.6015565679575  18.8567708333333 24.5575170842825  Z M 24.857421875 21.1059225512528  C 25.0210503472222 20.4453302961276  25.1028645833333 19.8618071374336  25.1028645833333 19.3553530751708  C 25.1028645833333 19.1131359149582  25.0746527777778 18.8681662870159  25.0182291666667 18.620444191344  C 24.9618055555555 18.372722095672  24.8687065972222 18.125  24.7389322916667 17.877277904328  C 24.6091579861111 17.629555808656  24.4173177083333 17.4286256643888  24.1634114583333 17.2744874715262  C 23.9095052083333 17.1203492786636  23.61328125 17.0432801822323  23.2747395833333 17.0432801822323  C 22.90234375 17.0432801822323  22.3550347222222 17.2717350037965  21.6328125 17.7286446469248  C 20.9105902777778 18.1855542900532  20.1827256944445 18.6452164009112  19.44921875 19.1076309794989  C 18.7157118055555 19.5700455580866  18.1458333333333 19.8012528473804  17.7395833333333 19.8012528473804  C 17.4348958333333 19.8122627182992  17.0766059027778 19.707668944571  16.6647135416667 19.4874715261959  C 16.2528211805555 19.2672741078208  15.8240017361111 18.9975322703113  15.3782552083333 18.6782460136674  C 14.9325086805555 18.3589597570235  14.4613715277778 18.0396735003796  13.96484375 17.7203872437358  C 13.4683159722222 17.4011009870919  12.9040798611111 17.1313591495824  12.2721354166667 16.9111617312073  C 11.6401909722222 16.6909643128322  11.0138888888889 16.586370539104  10.3932291666667 16.5973804100228  C 9.09548611111111 16.6083902809415  7.98394097222223 17.0405277145027  7.05859375 17.8937927107061  C 6.13324652777777 18.7470577069096  5.65928819444446 19.7296886864085  5.63671875 20.8416856492027  C 5.61414930555554 22.0747911921033  6.03168402777777 22.9776006074412  6.88932291666666 23.5501138952164  C 7.21657986111111 23.7703113135915  7.56922743055554 23.9272019741838  7.947265625 24.0207858769932  C 8.32530381944446 24.1143697798026  8.90928819444446 24.1611617312073  9.69921875 24.1611617312073  C 10.3424479166667 24.1611617312073  11.0872395833333 23.9822513287775  11.93359375 23.624430523918  C 12.7799479166667 23.2666097190585  13.5360243055555 22.8757593014427  14.2018229166667 22.4518792710706  C 14.8676215277778 22.0279992406986  15.5447048611111 21.6399012908125  16.2330729166667 21.2875854214123  C 16.9214409722222 20.9352695520121  17.4461805555555 20.7646165527715  17.8072916666667 20.7756264236902  C 18.1006944444445 20.786636294609  18.4674479166667 20.9600417615793  18.9075520833333 21.2958428246014  C 19.34765625 21.6316438876234  19.7510850694445 22.0004745634017  20.1178385416667 22.4023348519362  C 20.4845920138889 22.8041951404708  20.8682725694445 23.1757782839787  21.2688802083333 23.5170842824601  C 21.6694878472222 23.8583902809415  21.9826388888889 24.0345482156416  22.2083333333333 24.0455580865604  C 22.6032986111111 24.0785876993166  22.9333767361111 24.0015186028853  23.1985677083333 23.8143507972665  C 23.4637586805555 23.6271829916477  23.7769097222222 23.2803720577069  24.1380208333333 22.7739179954442  C 24.4539930555555 22.3225132877752  24.6937934027778 21.7665148063781  24.857421875 21.1059225512528  Z M 25.669921875 13.7816059225513  C 25.8899739583333 14.7229498861048  26 15.7000759301443  26 16.7129840546697  C 26 18.5186028853455  25.6501736111111 20.1948557327259  24.9505208333333 21.7417425968109  C 24.2508680555555 23.288629460896  23.3142361111111 24.587794229309  22.140625 25.6392369020501  C 20.9670138888889 26.6906795747912  19.5987413194445 27.5136674259681  18.0358072916667 28.1082004555809  C 16.4728732638889 28.7027334851936  14.8337673611111 29  13.1184895833333 29  C 11.4032118055555 29  9.75 28.6834662110858  8.15885416666666 28.0503986332574  C 6.56770833333334 27.417331055429  5.17122395833334 26.5530561883068  3.96940104166666 25.4575740318907  C 2.767578125 24.3620918754746  1.80555555555554 23.0326499620349  1.08333333333334 21.4692482915718  C 0.361111111111114 19.9058466211086  0 18.2433561123766  0 16.4817767653759  C 0 15.5018982536067  0.110026041666657 14.5522968868641  0.330078125 13.6329726651481  C 0.550130208333343 12.713648443432  0.826605902777771 11.9126803340926  1.15950520833334 11.2300683371298  C 1.49240451388889 10.547456340167  1.89019097222223 9.89512148823083  2.35286458333334 9.27306378132118  C 2.81553819444446 8.65100607441154  3.25846354166666 8.13354214123007  3.681640625 7.72067198177676  C 4.10481770833334 7.30780182232346  4.54774305555554 6.92520880789673  5.01041666666666 6.57289293849659  C 5.47309027777777 6.22057706909643  5.83702256944446 5.96459757023538  6.10221354166666 5.80495444191344  C 6.36740451388889 5.64531131359149  7.73285590277777 9.42444950645406  7.947265625 9.31435079726651  C 8.10525173611111 9.22627182991647  7.26736111111111 5.16638192862566  7.68489583333334 4.9626993166287  C 8.10243055555554 4.75901670463173  8.40993923611111 4.60212604403948  8.607421875 4.49202733485193  C 8.80490451388889 4.38192862566439  9.07573784722223 4.21678056188307  9.419921875 3.99658314350797  C 9.76410590277777 3.77638572513288  10.10546875 3.53416856492028  10.4440104166667 3.26993166287016  C 10.8502604166667 2.96165527714503  11.1775173611111 2.56254745634016  11.42578125 2.07260820045558  C 11.6740451388889 1.58266894457099  11.8433159722222 0.891799544419134  11.93359375 0  C 13.3893229166667 1.70652999240698  14.4388020833333 2.76898253606682  15.08203125 3.1873576309795  C 15.5785590277778 3.50664388762338  16.3120659722222 3.88097949886105  17.2825520833333 4.31036446469248  C 18.2530381944445 4.73974943052392  18.9809027777778 5.10307517084282  19.4661458333333 5.4003416856492  C 19.703125 5.54347000759302  19.9231770833333 5.68109339407745  20.1263020833333 5.81321184510251  C 20.3294270833333 5.94533029612757  20.6707899305555 6.20130979498861  21.150390625 6.58115034168565  C 21.6299913194445 6.96099088838269  22.0588107638889 7.34908883826879  22.4368489583333 7.74544419134396  C 22.8148871527778 8.14179954441914  23.2380642361111 8.66476841305998  23.7063802083333 9.31435079726651  C 24.1746961805555 9.96393318147305  24.5640190972222 10.6355353075171  24.8743489583333 11.3291571753986  C 25.1846788194445 12.0227790432802  25.4498697916667 12.8402619589977  25.669921875 13.7816059225513  Z " fill-rule="nonzero" fill="#00cc99" stroke="none" transform="matrix(1 0 0 1 155 13 )" />
  </g>
</svg>