<?xml version="1.0" encoding="utf-8"?>
<svg version="1.1" xmlns:xlink="http://www.w3.org/1999/xlink" width="24px" height="26px" xmlns="http://www.w3.org/2000/svg">
  <g transform="matrix(1 0 0 1 -1149 -18 )">
    <path d="M 23.9403409090909 19.8639322916667  C 23.9801136363636 20.4338107638889  24 21.0177951388889  24 21.6158854166667  C 24 22.9700520833333  23.5852272727273 24.0392795138889  22.7556818181818 24.8235677083333  C 21.9261363636364 25.6078559027778  20.8238636363636 26  19.4488636363636 26  L 4.55113636363636 26  C 3.17613636363636 26  2.07386363636364 25.6078559027778  1.24431818181818 24.8235677083333  C 0.414772727272727 24.0392795138889  0 22.9700520833333  0 21.6158854166667  C 0 21.0177951388889  0.0198863636363636 20.4338107638889  0.0596590909090909 19.8639322916667  C 0.0994318181818182 19.2940538194444  0.178977272727273 18.6790364583333  0.298295454545455 18.0188802083333  C 0.417613636363636 17.3587239583333  0.568181818181818 16.7465277777778  0.75 16.1822916666667  C 0.931818181818182 15.6180555555556  1.17613636363636 15.0679253472222  1.48295454545455 14.5319010416667  C 1.78977272727273 13.9958767361111  2.14204545454546 13.5388454861111  2.53977272727273 13.1608072916667  C 2.9375 12.7827690972222  3.42329545454545 12.4809027777778  3.99715909090909 12.2552083333333  C 4.57102272727273 12.0295138888889  5.20454545454546 11.9166666666667  5.89772727272727 11.9166666666667  C 6 11.9166666666667  6.23863636363636 12.0379774305556  6.61363636363636 12.2805989583333  C 6.98863636363636 12.5232204861111  7.41193181818182 12.7940538194444  7.88352272727273 13.0930989583333  C 8.35511363636364 13.3921440972222  8.96875 13.6629774305556  9.72443181818182 13.9055989583333  C 10.4801136363636 14.1482204861111  11.2386363636364 14.26953125  12 14.26953125  C 12.7613636363636 14.26953125  13.5198863636364 14.1482204861111  14.2755681818182 13.9055989583333  C 15.03125 13.6629774305556  15.6448863636364 13.3921440972222  16.1164772727273 13.0930989583333  C 16.5880681818182 12.7940538194444  17.0113636363636 12.5232204861111  17.3863636363636 12.2805989583333  C 17.7613636363636 12.0379774305556  18 11.9166666666667  18.1022727272727 11.9166666666667  C 18.7954545454545 11.9166666666667  19.4289772727273 12.0295138888889  20.0028409090909 12.2552083333333  C 20.5767045454545 12.4809027777778  21.0625 12.7827690972222  21.4602272727273 13.1608072916667  C 21.8579545454545 13.5388454861111  22.2102272727273 13.9958767361111  22.5170454545455 14.5319010416667  C 22.8238636363636 15.0679253472222  23.0681818181818 15.6180555555556  23.25 16.1822916666667  C 23.4318181818182 16.7465277777778  23.5823863636364 17.3587239583333  23.7017045454545 18.0188802083333  C 23.8210227272727 18.6790364583333  23.9005681818182 19.2940538194444  23.9403409090909 19.8639322916667  Z M 16.6278409090909 1.904296875  C 17.90625 3.173828125  18.5454545454545 4.70572916666667  18.5454545454545 6.5  C 18.5454545454545 8.29427083333333  17.90625 9.826171875  16.6278409090909 11.095703125  C 15.3494318181818 12.365234375  13.8068181818182 13  12 13  C 10.1931818181818 13  8.65056818181818 12.365234375  7.37215909090909 11.095703125  C 6.09375 9.826171875  5.45454545454545 8.29427083333333  5.45454545454545 6.5  C 5.45454545454545 4.70572916666667  6.09375 3.173828125  7.37215909090909 1.904296875  C 8.65056818181818 0.634765625  10.1931818181818 0  12 0  C 13.8068181818182 0  15.3494318181818 0.634765625  16.6278409090909 1.904296875  Z " fill-rule="nonzero" fill="#ffffff" stroke="none" transform="matrix(1 0 0 1 1149 18 )" />
  </g>
</svg>