<?xml version="1.0" encoding="utf-8"?>
<svg version="1.1" xmlns:xlink="http://www.w3.org/1999/xlink" width="24px" height="24px" xmlns="http://www.w3.org/2000/svg">
  <g transform="matrix(1 0 0 1 -1084 -19 )">
    <path d="M 23.046875 7.34375  C 23.6822916666667 8.82291666666667  24 10.375  24 12  C 24 13.625  23.6822916666667 15.1770833333333  23.046875 16.65625  C 22.4114583333333 18.1354166666667  21.5572916666667 19.4114583333333  20.484375 20.484375  C 19.4114583333333 21.5572916666667  18.1354166666667 22.4114583333333  16.65625 23.046875  C 15.1770833333333 23.6822916666667  13.625 24  12 24  C 10.2083333333333 24  8.50520833333333 23.6223958333333  6.890625 22.8671875  C 5.27604166666667 22.1119791666667  3.90104166666667 21.046875  2.765625 19.671875  C 2.69270833333333 19.5677083333333  2.65885416666667 19.4505208333333  2.6640625 19.3203125  C 2.66927083333333 19.1901041666667  2.71354166666667 19.0833333333333  2.796875 19  L 4.9375 16.84375  C 5.04166666666667 16.75  5.171875 16.703125  5.328125 16.703125  C 5.49479166666667 16.7239583333333  5.61458333333333 16.7864583333333  5.6875 16.890625  C 6.44791666666667 17.8802083333333  7.38020833333333 18.6458333333333  8.484375 19.1875  C 9.58854166666667 19.7291666666667  10.7604166666667 20  12 20  C 13.0833333333333 20  14.1171875 19.7890625  15.1015625 19.3671875  C 16.0859375 18.9453125  16.9375 18.375  17.65625 17.65625  C 18.375 16.9375  18.9453125 16.0859375  19.3671875 15.1015625  C 19.7890625 14.1171875  20 13.0833333333333  20 12  C 20 10.9166666666667  19.7890625 9.8828125  19.3671875 8.8984375  C 18.9453125 7.9140625  18.375 7.0625  17.65625 6.34375  C 16.9375 5.625  16.0859375 5.0546875  15.1015625 4.6328125  C 14.1171875 4.2109375  13.0833333333333 4  12 4  C 10.9791666666667 4  10 4.18489583333333  9.0625 4.5546875  C 8.125 4.92447916666666  7.29166666666667 5.453125  6.5625 6.140625  L 8.703125 8.296875  C 9.02604166666667 8.609375  9.09895833333333 8.96875  8.921875 9.375  C 8.74479166666667 9.79166666666667  8.4375 10  8 10  L 1 10  C 0.729166666666667 10  0.494791666666667 9.90104166666667  0.296875 9.703125  C 0.0989583333333333 9.50520833333333  0 9.27083333333333  0 9  L 0 2  C 0 1.5625  0.208333333333333 1.25520833333333  0.625 1.078125  C 1.03125 0.901041666666664  1.390625 0.973958333333333  1.703125 1.296875  L 3.734375 3.3125  C 4.84895833333333 2.26041666666666  6.12239583333333 1.4453125  7.5546875 0.8671875  C 8.98697916666667 0.289062500000001  10.46875 0  12 0  C 13.625 0  15.1770833333333 0.317708333333333  16.65625 0.953124999999999  C 18.1354166666667 1.58854166666667  19.4114583333333 2.44270833333333  20.484375 3.515625  C 21.5572916666667 4.58854166666667  22.4114583333333 5.86458333333333  23.046875 7.34375  Z " fill-rule="nonzero" fill="#999999" stroke="none" transform="matrix(1 0 0 1 1084 19 )" />
  </g>
</svg>