<?xml version="1.0" encoding="utf-8"?>
<svg version="1.1" xmlns:xlink="http://www.w3.org/1999/xlink" width="24px" height="20px" xmlns="http://www.w3.org/2000/svg">
  <g transform="matrix(1 0 0 1 -1029 -21 )">
    <path d="M 22.6607142857143 7.68465909090909  C 23.1696428571429 7.31534090909091  23.6160714285714 6.90340909090909  24 6.44886363636363  L 24 17.7272727272727  C 24 18.3522727272727  23.7901785714286 18.8873106060606  23.3705357142857 19.3323863636364  C 22.9508928571429 19.7774621212121  22.4464285714286 20  21.8571428571429 20  L 2.14285714285714 20  C 1.55357142857143 20  1.04910714285714 19.7774621212121  0.629464285714286 19.3323863636364  C 0.209821428571429 18.8873106060606  0 18.3522727272727  0 17.7272727272727  L 0 6.44886363636363  C 0.392857142857143 6.91287878787879  0.84375 7.3248106060606  1.35267857142857 7.68465909090909  C 4.58482142857143 10.0142045454545  6.80357142857143 11.6477272727273  8.00892857142857 12.5852272727273  C 8.51785714285714 12.9829545454545  8.93080357142857 13.2930871212121  9.24776785714286 13.515625  C 9.56473214285714 13.7381628787879  9.98660714285714 13.9654356060606  10.5133928571429 14.1974431818182  C 11.0401785714286 14.4294507575758  11.53125 14.5454545454545  11.9866071428571 14.5454545454545  L 12 14.5454545454545  L 12.0133928571429 14.5454545454545  C 12.46875 14.5454545454545  12.9598214285714 14.4294507575758  13.4866071428571 14.1974431818182  C 14.0133928571429 13.9654356060606  14.4352678571429 13.7381628787879  14.7522321428571 13.515625  C 15.0691964285714 13.2930871212121  15.4821428571429 12.9829545454545  15.9910714285714 12.5852272727273  C 17.5089285714286 11.4204545454545  19.7321428571429 9.78693181818182  22.6607142857143 7.68465909090909  Z M 23.3638392857143 0.667613636363635  C 23.7879464285714 1.11268939393939  24 1.64772727272727  24 2.27272727272727  C 24 3.02083333333333  23.78125 3.73579545454545  23.34375 4.41761363636363  C 22.90625 5.09943181818182  22.3616071428571 5.68181818181818  21.7098214285714 6.16477272727273  C 18.3526785714286 8.63636363636363  16.2633928571429 10.1751893939394  15.4419642857143 10.78125  C 15.3526785714286 10.8475378787879  15.1629464285714 10.9919507575758  14.8727678571429 11.2144886363636  C 14.5825892857143 11.4370265151515  14.3415178571429 11.6169507575758  14.1495535714286 11.7542613636364  C 13.9575892857143 11.891571969697  13.7254464285714 12.0454545454545  13.453125 12.2159090909091  C 13.1808035714286 12.3863636363636  12.9241071428571 12.5142045454545  12.6830357142857 12.5994318181818  C 12.4419642857143 12.6846590909091  12.21875 12.7272727272727  12.0133928571429 12.7272727272727  L 12 12.7272727272727  L 11.9866071428571 12.7272727272727  C 11.78125 12.7272727272727  11.5580357142857 12.6846590909091  11.3169642857143 12.5994318181818  C 11.0758928571429 12.5142045454545  10.8191964285714 12.3863636363636  10.546875 12.2159090909091  C 10.2745535714286 12.0454545454545  10.0424107142857 11.891571969697  9.85044642857143 11.7542613636364  C 9.65848214285714 11.6169507575758  9.41741071428572 11.4370265151515  9.12723214285714 11.2144886363636  C 8.83705357142857 10.9919507575758  8.64732142857143 10.8475378787879  8.55803571428572 10.78125  C 7.74553571428571 10.1751893939394  6.57589285714286 9.31107954545455  5.04910714285714 8.18892045454545  C 3.52232142857143 7.06676136363636  2.60714285714286 6.39204545454545  2.30357142857143 6.16477272727273  C 1.75 5.76704545454545  1.22767857142857 5.22017045454545  0.736607142857143 4.52414772727273  C 0.245535714285714 3.828125  0 3.18181818181818  0 2.58522727272727  C 0 1.84659090909091  0.185267857142857 1.2310606060606  0.555803571428571 0.738636363636365  C 0.926339285714286 0.246212121212119  1.45535714285714 0  2.14285714285714 0  L 21.8571428571429 0  C 22.4375 0  22.9397321428571 0.222537878787876  23.3638392857143 0.667613636363635  Z " fill-rule="nonzero" fill="#999999" stroke="none" transform="matrix(1 0 0 1 1029 21 )" />
  </g>
</svg>