<?xml version="1.0" encoding="utf-8"?>
<svg version="1.1" xmlns:xlink="http://www.w3.org/1999/xlink" width="5px" height="5px" xmlns="http://www.w3.org/2000/svg">
  <g transform="matrix(1 0 0 1 -270 -232 )">
    <path d="M 272.5 232  C 273.9 232  275 233.1  275 234.5  C 275 235.9  273.9 237  272.5 237  C 271.1 237  270 235.9  270 234.5  C 270 233.1  271.1 232  272.5 232  Z " fill-rule="nonzero" fill="#ffffff" stroke="none" fill-opacity="0" />
    <path d="M 272.5 232.5  C 273.62 232.5  274.5 233.38  274.5 234.5  C 274.5 235.62  273.62 236.5  272.5 236.5  C 271.38 236.5  270.5 235.62  270.5 234.5  C 270.5 233.38  271.38 232.5  272.5 232.5  Z " stroke-width="1" stroke="#ffffff" fill="none" />
  </g>
</svg>