<?xml version="1.0" encoding="utf-8"?>
<svg version="1.1" xmlns:xlink="http://www.w3.org/1999/xlink" width="12px" height="12px" viewBox="125 37  12 12" xmlns="http://www.w3.org/2000/svg">
  <path d="M 131 37  C 134.36 37  137 39.64  137 43  C 137 46.36  134.36 49  131 49  C 127.64 49  125 46.36  125 43  C 125 39.64  127.64 37  131 37  Z " fill-rule="nonzero" fill="#ffffff" stroke="none" />
  <path d="M 131 37.5  C 134.08 37.5  136.5 39.92  136.5 43  C 136.5 46.08  134.08 48.5  131 48.5  C 127.92 48.5  125.5 46.08  125.5 43  C 125.5 39.92  127.92 37.5  131 37.5  Z " stroke-width="1" stroke="#797979" fill="none" />
  <path d="M 131 46  C 129.32 46  128 44.68  128 43  C 128 41.32  129.32 40  131 40  C 132.68 40  134 41.32  134 43  C 134 44.68  132.68 46  131 46  " fill-rule="nonzero" fill="#797979" stroke="none" />
</svg>