<?xml version="1.0" encoding="utf-8"?>
<svg version="1.1" xmlns:xlink="http://www.w3.org/1999/xlink" width="12px" height="12px" viewBox="233 37  12 12" xmlns="http://www.w3.org/2000/svg">
  <path d="M 239 37  C 242.36 37  245 39.64  245 43  C 245 46.36  242.36 49  239 49  C 235.64 49  233 46.36  233 43  C 233 39.64  235.64 37  239 37  Z " fill-rule="nonzero" fill="#ffffff" stroke="none" />
  <path d="M 239 37.5  C 242.08 37.5  244.5 39.92  244.5 43  C 244.5 46.08  242.08 48.5  239 48.5  C 235.92 48.5  233.5 46.08  233.5 43  C 233.5 39.92  235.92 37.5  239 37.5  Z " stroke-width="1" stroke="#797979" fill="none" />
  <path d="M 239 46  C 237.32 46  236 44.68  236 43  C 236 41.32  237.32 40  239 40  C 240.68 40  242 41.32  242 43  C 242 44.68  240.68 46  239 46  " fill-rule="nonzero" fill="#797979" stroke="none" />
</svg>