<?xml version="1.0" encoding="utf-8"?>
<svg version="1.1" xmlns:xlink="http://www.w3.org/1999/xlink" width="12px" height="12px" viewBox="33 101  12 12" xmlns="http://www.w3.org/2000/svg">
  <path d="M 39 101  C 42.36 101  45 103.64  45 107  C 45 110.36  42.36 113  39 113  C 35.64 113  33 110.36  33 107  C 33 103.64  35.64 101  39 101  Z " fill-rule="nonzero" fill="#ffffff" stroke="none" />
  <path d="M 39 101.5  C 42.08 101.5  44.5 103.92  44.5 107  C 44.5 110.08  42.08 112.5  39 112.5  C 35.92 112.5  33.5 110.08  33.5 107  C 33.5 103.92  35.92 101.5  39 101.5  Z " stroke-width="1" stroke="#797979" fill="none" />
  <path d="M 39 110  C 37.32 110  36 108.68  36 107  C 36 105.32  37.32 104  39 104  C 40.68 104  42 105.32  42 107  C 42 108.68  40.68 110  39 110  " fill-rule="nonzero" fill="#797979" stroke="none" />
</svg>