<?xml version="1.0" encoding="utf-8"?>
<svg version="1.1" xmlns:xlink="http://www.w3.org/1999/xlink" width="12px" height="12px" viewBox="33 129  12 12" xmlns="http://www.w3.org/2000/svg">
  <path d="M 39 129  C 42.36 129  45 131.64  45 135  C 45 138.36  42.36 141  39 141  C 35.64 141  33 138.36  33 135  C 33 131.64  35.64 129  39 129  Z " fill-rule="nonzero" fill="#ffffff" stroke="none" />
  <path d="M 39 129.5  C 42.08 129.5  44.5 131.92  44.5 135  C 44.5 138.08  42.08 140.5  39 140.5  C 35.92 140.5  33.5 138.08  33.5 135  C 33.5 131.92  35.92 129.5  39 129.5  Z " stroke-width="1" stroke="#797979" fill="none" />
  <path d="M 39 138  C 37.32 138  36 136.68  36 135  C 36 133.32  37.32 132  39 132  C 40.68 132  42 133.32  42 135  C 42 136.68  40.68 138  39 138  " fill-rule="nonzero" fill="#797979" stroke="none" />
</svg>