<?xml version="1.0" encoding="utf-8"?>
<svg version="1.1" xmlns:xlink="http://www.w3.org/1999/xlink" width="12px" height="12px" viewBox="33 157  12 12" xmlns="http://www.w3.org/2000/svg">
  <path d="M 39 157  C 42.36 157  45 159.64  45 163  C 45 166.36  42.36 169  39 169  C 35.64 169  33 166.36  33 163  C 33 159.64  35.64 157  39 157  Z " fill-rule="nonzero" fill="#ffffff" stroke="none" />
  <path d="M 39 157.5  C 42.08 157.5  44.5 159.92  44.5 163  C 44.5 166.08  42.08 168.5  39 168.5  C 35.92 168.5  33.5 166.08  33.5 163  C 33.5 159.92  35.92 157.5  39 157.5  Z " stroke-width="1" stroke="#797979" fill="none" />
  <path d="M 39 166  C 37.32 166  36 164.68  36 163  C 36 161.32  37.32 160  39 160  C 40.68 160  42 161.32  42 163  C 42 164.68  40.68 166  39 166  " fill-rule="nonzero" fill="#797979" stroke="none" />
</svg>