<?xml version="1.0" encoding="utf-8"?>
<svg version="1.1" xmlns:xlink="http://www.w3.org/1999/xlink" width="8px" height="14px" xmlns="http://www.w3.org/2000/svg">
  <g transform="matrix(1 0 0 1 -174 -15 )">
    <path d="M 7.86254295532646 6.67735470941884  C 7.95418098510882 6.77087508350033  8 6.87842351369405  8 7  C 8 7.12157648630594  7.95418098510882 7.22912491649967  7.86254295532646 7.32264529058116  L 1.45704467353952 13.8597194388778  C 1.36540664375716 13.9532398129593  1.26002290950745 14  1.14089347079038 14  C 1.02176403207331 14  0.916380297823597 13.9532398129593  0.824742268041237 13.8597194388778  L 0.13745704467354 13.1583166332665  C 0.0458190148911799 13.064796259185  0 12.9572478289913  0 12.8356713426854  C 0 12.7140948563794  0.0458190148911799 12.6065464261857  0.13745704467354 12.5130260521042  L 5.53951890034364 7  L 0.13745704467354 1.48697394789579  C 0.0458190148911799 1.39345357381429  0 1.28590514362057  0 1.16432865731463  C 0 1.04275217100868  0.0458190148911799 0.935203740814962  0.13745704467354 0.841683366733466  L 0.824742268041237 0.140280561122245  C 0.916380297823597 0.0467601870407477  1.02176403207331 0  1.14089347079038 0  C 1.26002290950745 0  1.36540664375716 0.0467601870407477  1.45704467353952 0.140280561122245  L 7.86254295532646 6.67735470941884  Z " fill-rule="nonzero" fill="#d0e2ff" stroke="none" transform="matrix(1 0 0 1 174 15 )" />
  </g>
</svg>