<?xml version="1.0" encoding="utf-8"?>
<svg version="1.1" xmlns:xlink="http://www.w3.org/1999/xlink" width="12px" height="12px" viewBox="358 37  12 12" xmlns="http://www.w3.org/2000/svg">
  <path d="M 364 37  C 367.36 37  370 39.64  370 43  C 370 46.36  367.36 49  364 49  C 360.64 49  358 46.36  358 43  C 358 39.64  360.64 37  364 37  Z " fill-rule="nonzero" fill="#ffffff" stroke="none" />
  <path d="M 364 37.5  C 367.08 37.5  369.5 39.92  369.5 43  C 369.5 46.08  367.08 48.5  364 48.5  C 360.92 48.5  358.5 46.08  358.5 43  C 358.5 39.92  360.92 37.5  364 37.5  Z " stroke-width="1" stroke="#797979" fill="none" />
  <path d="M 364 46  C 362.32 46  361 44.68  361 43  C 361 41.32  362.32 40  364 40  C 365.68 40  367 41.32  367 43  C 367 44.68  365.68 46  364 46  " fill-rule="nonzero" fill="#797979" stroke="none" />
</svg>