<?xml version="1.0" encoding="utf-8"?>
<svg version="1.1" xmlns:xlink="http://www.w3.org/1999/xlink" width="12px" height="12px" viewBox="200 37  12 12" xmlns="http://www.w3.org/2000/svg">
  <path d="M 206 37  C 209.36 37  212 39.64  212 43  C 212 46.36  209.36 49  206 49  C 202.64 49  200 46.36  200 43  C 200 39.64  202.64 37  206 37  Z " fill-rule="nonzero" fill="#ffffff" stroke="none" />
  <path d="M 206 37.5  C 209.08 37.5  211.5 39.92  211.5 43  C 211.5 46.08  209.08 48.5  206 48.5  C 202.92 48.5  200.5 46.08  200.5 43  C 200.5 39.92  202.92 37.5  206 37.5  Z " stroke-width="1" stroke="#797979" fill="none" />
  <path d="M 206 46  C 204.32 46  203 44.68  203 43  C 203 41.32  204.32 40  206 40  C 207.68 40  209 41.32  209 43  C 209 44.68  207.68 46  206 46  " fill-rule="nonzero" fill="#797979" stroke="none" />
</svg>