<?xml version="1.0" encoding="utf-8"?>
<svg version="1.1" xmlns:xlink="http://www.w3.org/1999/xlink" width="12px" height="12px" viewBox="200 507  12 12" xmlns="http://www.w3.org/2000/svg">
  <path d="M 206 507  C 209.36 507  212 509.64  212 513  C 212 516.36  209.36 519  206 519  C 202.64 519  200 516.36  200 513  C 200 509.64  202.64 507  206 507  Z " fill-rule="nonzero" fill="#ffffff" stroke="none" />
  <path d="M 206 507.5  C 209.08 507.5  211.5 509.92  211.5 513  C 211.5 516.08  209.08 518.5  206 518.5  C 202.92 518.5  200.5 516.08  200.5 513  C 200.5 509.92  202.92 507.5  206 507.5  Z " stroke-width="1" stroke="#797979" fill="none" />
  <path d="M 206 516  C 204.32 516  203 514.68  203 513  C 203 511.32  204.32 510  206 510  C 207.68 510  209 511.32  209 513  C 209 514.68  207.68 516  206 516  " fill-rule="nonzero" fill="#797979" stroke="none" />
</svg>