<?xml version="1.0" encoding="utf-8"?>
<svg version="1.1" xmlns:xlink="http://www.w3.org/1999/xlink" width="12px" height="12px" viewBox="200 87  12 12" xmlns="http://www.w3.org/2000/svg">
  <path d="M 206 87  C 209.36 87  212 89.64  212 93  C 212 96.36  209.36 99  206 99  C 202.64 99  200 96.36  200 93  C 200 89.64  202.64 87  206 87  Z " fill-rule="nonzero" fill="#ffffff" stroke="none" />
  <path d="M 206 87.5  C 209.08 87.5  211.5 89.92  211.5 93  C 211.5 96.08  209.08 98.5  206 98.5  C 202.92 98.5  200.5 96.08  200.5 93  C 200.5 89.92  202.92 87.5  206 87.5  Z " stroke-width="1" stroke="#797979" fill="none" />
  <path d="M 206 96  C 204.32 96  203 94.68  203 93  C 203 91.32  204.32 90  206 90  C 207.68 90  209 91.32  209 93  C 209 94.68  207.68 96  206 96  " fill-rule="nonzero" fill="#797979" stroke="none" />
</svg>