<?xml version="1.0" encoding="utf-8"?>
<svg version="1.1" xmlns:xlink="http://www.w3.org/1999/xlink" width="12px" height="12px" viewBox="358 507  12 12" xmlns="http://www.w3.org/2000/svg">
  <path d="M 364 507  C 367.36 507  370 509.64  370 513  C 370 516.36  367.36 519  364 519  C 360.64 519  358 516.36  358 513  C 358 509.64  360.64 507  364 507  Z " fill-rule="nonzero" fill="#ffffff" stroke="none" />
  <path d="M 364 507.5  C 367.08 507.5  369.5 509.92  369.5 513  C 369.5 516.08  367.08 518.5  364 518.5  C 360.92 518.5  358.5 516.08  358.5 513  C 358.5 509.92  360.92 507.5  364 507.5  Z " stroke-width="1" stroke="#797979" fill="none" />
  <path d="M 364 516  C 362.32 516  361 514.68  361 513  C 361 511.32  362.32 510  364 510  C 365.68 510  367 511.32  367 513  C 367 514.68  365.68 516  364 516  " fill-rule="nonzero" fill="#797979" stroke="none" />
</svg>