<?xml version="1.0" encoding="utf-8"?>
<svg version="1.1" xmlns:xlink="http://www.w3.org/1999/xlink" width="12px" height="12px" viewBox="438 37  12 12" xmlns="http://www.w3.org/2000/svg">
  <path d="M 444 37  C 447.36 37  450 39.64  450 43  C 450 46.36  447.36 49  444 49  C 440.64 49  438 46.36  438 43  C 438 39.64  440.64 37  444 37  Z " fill-rule="nonzero" fill="#ffffff" stroke="none" />
  <path d="M 444 37.5  C 447.08 37.5  449.5 39.92  449.5 43  C 449.5 46.08  447.08 48.5  444 48.5  C 440.92 48.5  438.5 46.08  438.5 43  C 438.5 39.92  440.92 37.5  444 37.5  Z " stroke-width="1" stroke="#797979" fill="none" />
  <path d="M 444 46  C 442.32 46  441 44.68  441 43  C 441 41.32  442.32 40  444 40  C 445.68 40  447 41.32  447 43  C 447 44.68  445.68 46  444 46  " fill-rule="nonzero" fill="#797979" stroke="none" />
</svg>