<?xml version="1.0" encoding="utf-8"?>
<svg version="1.1" xmlns:xlink="http://www.w3.org/1999/xlink" width="30px" height="37px" xmlns="http://www.w3.org/2000/svg">
  <defs>
    <filter x="329px" y="147px" width="30px" height="37px" filterUnits="userSpaceOnUse" id="filter42">
      <feOffset dx="1" dy="1" in="SourceAlpha" result="shadowOffsetInner" />
      <feGaussianBlur stdDeviation="2.5" in="shadowOffsetInner" result="shadowGaussian" />
      <feComposite in2="shadowGaussian" operator="atop" in="SourceAlpha" result="shadowComposite" />
      <feColorMatrix type="matrix" values="0 0 0 0 0  0 0 0 0 0  0 0 0 0 0  0 0 0 0.698039215686274 0  " in="shadowComposite" />
    </filter>
    <g id="widget43">
      <path d="M 343 177.028794418255  C 339.2 170.652335026619  333.5 166.826459391637  333.5 160.45  C 333.5 157.125714285714  335.4 151.5  343 151.5  C 350.6 151.5  352.5 157.125714285714  352.5 160.45  C 352.5 166.826459391637  346.8 170.652335026619  343 177.028794418255  Z " fill-rule="nonzero" fill="#009dd9" stroke="none" />
      <path d="M 343 178  C 339 171.25  333 167.2  333 160.45  C 333 156.94  335 151  343 151  C 351 151  353 156.94  353 160.45  C 353 167.2  347 171.25  343 178  Z M 343 176.05758883651  C 346.6 170.054670053237  352 166.452918783273  352 160.45  C 352 157.311428571429  350.2 152  343 152  C 335.8 152  334 157.311428571429  334 160.45  C 334 166.452918783273  339.4 170.054670053237  343 176.05758883651  Z " fill-rule="nonzero" fill="#ffffff" stroke="none" />
    </g>
  </defs>
  <g transform="matrix(1 0 0 1 -329 -147 )">
    <use xlink:href="#widget43" filter="url(#filter42)" />
    <use xlink:href="#widget43" />
  </g>
</svg>