<?xml version="1.0" encoding="utf-8"?>
<svg version="1.1" xmlns:xlink="http://www.w3.org/1999/xlink" width="12px" height="12px" viewBox="40 392  12 12" xmlns="http://www.w3.org/2000/svg">
  <path d="M 46 392  C 49.36 392  52 394.64  52 398  C 52 401.36  49.36 404  46 404  C 42.64 404  40 401.36  40 398  C 40 394.64  42.64 392  46 392  Z " fill-rule="nonzero" fill="#ffffff" stroke="none" />
  <path d="M 46 392.5  C 49.08 392.5  51.5 394.92  51.5 398  C 51.5 401.08  49.08 403.5  46 403.5  C 42.92 403.5  40.5 401.08  40.5 398  C 40.5 394.92  42.92 392.5  46 392.5  Z " stroke-width="1" stroke="#797979" fill="none" />
  <path d="M 46 401  C 44.32 401  43 399.68  43 398  C 43 396.32  44.32 395  46 395  C 47.68 395  49 396.32  49 398  C 49 399.68  47.68 401  46 401  " fill-rule="nonzero" fill="#797979" stroke="none" />
</svg>