<?xml version="1.0" encoding="utf-8"?>
<svg version="1.1" xmlns:xlink="http://www.w3.org/1999/xlink" width="12px" height="12px" viewBox="369 392  12 12" xmlns="http://www.w3.org/2000/svg">
  <path d="M 375 392  C 378.36 392  381 394.64  381 398  C 381 401.36  378.36 404  375 404  C 371.64 404  369 401.36  369 398  C 369 394.64  371.64 392  375 392  Z " fill-rule="nonzero" fill="#ffffff" stroke="none" />
  <path d="M 375 392.5  C 378.08 392.5  380.5 394.92  380.5 398  C 380.5 401.08  378.08 403.5  375 403.5  C 371.92 403.5  369.5 401.08  369.5 398  C 369.5 394.92  371.92 392.5  375 392.5  Z " stroke-width="1" stroke="#797979" fill="none" />
  <path d="M 375 401  C 373.32 401  372 399.68  372 398  C 372 396.32  373.32 395  375 395  C 376.68 395  378 396.32  378 398  C 378 399.68  376.68 401  375 401  " fill-rule="nonzero" fill="#797979" stroke="none" />
</svg>