<?xml version="1.0" encoding="utf-8"?>
<svg version="1.1" xmlns:xlink="http://www.w3.org/1999/xlink" width="12px" height="12px" viewBox="204 392  12 12" xmlns="http://www.w3.org/2000/svg">
  <path d="M 210 392  C 213.36 392  216 394.64  216 398  C 216 401.36  213.36 404  210 404  C 206.64 404  204 401.36  204 398  C 204 394.64  206.64 392  210 392  Z " fill-rule="nonzero" fill="#ffffff" stroke="none" />
  <path d="M 210 392.5  C 213.08 392.5  215.5 394.92  215.5 398  C 215.5 401.08  213.08 403.5  210 403.5  C 206.92 403.5  204.5 401.08  204.5 398  C 204.5 394.92  206.92 392.5  210 392.5  Z " stroke-width="1" stroke="#797979" fill="none" />
  <path d="M 210 401  C 208.32 401  207 399.68  207 398  C 207 396.32  208.32 395  210 395  C 211.68 395  213 396.32  213 398  C 213 399.68  211.68 401  210 401  " fill-rule="nonzero" fill="#797979" stroke="none" />
</svg>