<?xml version="1.0" encoding="utf-8"?>
<svg version="1.1" xmlns:xlink="http://www.w3.org/1999/xlink" width="40px" height="40px" xmlns="http://www.w3.org/2000/svg">
  <g transform="matrix(1 0 0 1 -195 -60 )">
    <path d="M 12.1666666666667 8.125  C 12.9444444444444 9.09722222222222  13.3333333333333 10.2777777777778  13.3333333333333 11.6666666666667  C 13.3333333333333 13.0555555555556  12.9444444444444 14.2361111111111  12.1666666666667 15.2083333333333  C 11.3888888888889 16.1805555555556  10.4444444444444 16.6666666666667  9.33333333333333 16.6666666666667  C 8.22222222222222 16.6666666666667  7.27777777777778 16.1805555555556  6.5 15.2083333333333  C 5.72222222222222 14.2361111111111  5.33333333333333 13.0555555555556  5.33333333333333 11.6666666666667  C 5.33333333333333 10.2777777777778  5.72222222222222 9.09722222222222  6.5 8.125  C 7.27777777777778 7.15277777777777  8.22222222222222 6.66666666666667  9.33333333333333 6.66666666666667  C 10.4444444444444 6.66666666666667  11.3888888888889 7.15277777777777  12.1666666666667 8.125  Z M 26 10.8333333333333  L 34 21.6666666666667  L 34 33  L 5.33333333333333 33  L 5.33333333333333 28.3333333333333  L 12 20  L 15.3333333333333 24.1666666666667  L 26 10.8333333333333  Z M 37.1354166666667 3.58072916666667  C 37.0034722222222 3.41579861111111  36.8472222222222 3.33333333333333  36.6666666666667 4  L 3.33333333333333 4  C 3.15277777777778 3.33333333333333  2.99652777777778 3.41579861111111  2.86458333333333 3.58072916666667  C 2.73263888888889 3.74565972222222  2.66666666666667 3.94097222222222  3 4.16666666666667  L 3 35.8333333333333  C 2.66666666666667 36.0590277777778  2.73263888888889 36.2543402777778  2.86458333333333 36.4192708333333  C 2.99652777777778 36.5842013888889  3.15277777777778 36.6666666666667  3.33333333333333 36  L 36.6666666666667 36  C 36.8472222222222 36.6666666666667  37.0034722222222 36.5842013888889  37.1354166666667 36.4192708333333  C 37.2673611111111 36.2543402777778  37.3333333333333 36.0590277777778  37 35.8333333333333  L 37 4.16666666666667  C 37.3333333333333 3.94097222222222  37.2673611111111 3.74565972222222  37.1354166666667 3.58072916666667  Z M 39.0208333333333 1.22395833333333  C 39.6736111111111 2.03993055555555  40 3.02083333333333  40 4.16666666666667  L 40 35.8333333333333  C 40 36.9791666666667  39.6736111111111 37.9600694444444  39.0208333333333 38.7760416666667  C 38.3680555555556 39.5920138888889  37.5833333333333 40  36.6666666666667 40  L 3.33333333333333 40  C 2.41666666666667 40  1.63194444444444 39.5920138888889  0.979166666666667 38.7760416666667  C 0.326388888888889 37.9600694444444  0 36.9791666666667  0 35.8333333333333  L 0 4.16666666666667  C 0 3.02083333333333  0.326388888888889 2.03993055555555  0.979166666666667 1.22395833333333  C 1.63194444444444 0.407986111111107  2.41666666666667 0  3.33333333333333 0  L 36.6666666666667 0  C 37.5833333333333 0  38.3680555555556 0.407986111111107  39.0208333333333 1.22395833333333  Z " fill-rule="nonzero" fill="#cccccc" stroke="none" transform="matrix(1 0 0 1 195 60 )" />
  </g>
</svg>