<?xml version="1.0" encoding="utf-8"?>
<svg version="1.1" xmlns:xlink="http://www.w3.org/1999/xlink" width="12px" height="12px" viewBox="390 295  12 12" xmlns="http://www.w3.org/2000/svg">
  <path d="M 396 295  C 399.36 295  402 297.64  402 301  C 402 304.36  399.36 307  396 307  C 392.64 307  390 304.36  390 301  C 390 297.64  392.64 295  396 295  Z " fill-rule="nonzero" fill="#ffffff" stroke="none" />
  <path d="M 396 295.5  C 399.08 295.5  401.5 297.92  401.5 301  C 401.5 304.08  399.08 306.5  396 306.5  C 392.92 306.5  390.5 304.08  390.5 301  C 390.5 297.92  392.92 295.5  396 295.5  Z " stroke-width="1" stroke="#797979" fill="none" />
  <path d="M 396 304  C 394.32 304  393 302.68  393 301  C 393 299.32  394.32 298  396 298  C 397.68 298  399 299.32  399 301  C 399 302.68  397.68 304  396 304  " fill-rule="nonzero" fill="#797979" stroke="none" />
</svg>