<?xml version="1.0" encoding="utf-8"?>
<svg version="1.1" xmlns:xlink="http://www.w3.org/1999/xlink" width="12px" height="12px" viewBox="312 267  12 12" xmlns="http://www.w3.org/2000/svg">
  <path d="M 318 267  C 321.36 267  324 269.64  324 273  C 324 276.36  321.36 279  318 279  C 314.64 279  312 276.36  312 273  C 312 269.64  314.64 267  318 267  Z " fill-rule="nonzero" fill="#ffffff" stroke="none" />
  <path d="M 318 267.5  C 321.08 267.5  323.5 269.92  323.5 273  C 323.5 276.08  321.08 278.5  318 278.5  C 314.92 278.5  312.5 276.08  312.5 273  C 312.5 269.92  314.92 267.5  318 267.5  Z " stroke-width="1" stroke="#797979" fill="none" />
  <path d="M 318 276  C 316.32 276  315 274.68  315 273  C 315 271.32  316.32 270  318 270  C 319.68 270  321 271.32  321 273  C 321 274.68  319.68 276  318 276  " fill-rule="nonzero" fill="#797979" stroke="none" />
</svg>