<?xml version="1.0" encoding="utf-8"?>
<svg version="1.1" xmlns:xlink="http://www.w3.org/1999/xlink" width="12px" height="12px" viewBox="312 587  12 12" xmlns="http://www.w3.org/2000/svg">
  <path d="M 318 587  C 321.36 587  324 589.64  324 593  C 324 596.36  321.36 599  318 599  C 314.64 599  312 596.36  312 593  C 312 589.64  314.64 587  318 587  Z " fill-rule="nonzero" fill="#ffffff" stroke="none" />
  <path d="M 318 587.5  C 321.08 587.5  323.5 589.92  323.5 593  C 323.5 596.08  321.08 598.5  318 598.5  C 314.92 598.5  312.5 596.08  312.5 593  C 312.5 589.92  314.92 587.5  318 587.5  Z " stroke-width="1" stroke="#797979" fill="none" />
  <path d="M 318 596  C 316.32 596  315 594.68  315 593  C 315 591.32  316.32 590  318 590  C 319.68 590  321 591.32  321 593  C 321 594.68  319.68 596  318 596  " fill-rule="nonzero" fill="#797979" stroke="none" />
</svg>