<?xml version="1.0" encoding="utf-8"?>
<svg version="1.1" xmlns:xlink="http://www.w3.org/1999/xlink" width="40px" height="33px" xmlns="http://www.w3.org/2000/svg">
  <g transform="matrix(1 0 0 1 -467 -156 )">
    <path d="M 10.83984375 9.18974820143885  C 11.1653645833333 8.8666067146283  11.328125 8.43465227817746  11.328125 7.89388489208633  C 11.328125 7.3531175059952  11.1653645833333 6.91786570743405  10.83984375 6.58812949640288  C 10.5143229166667 6.2583932853717  10.0846354166667 6.09352517985611  9.55078125 6.09352517985611  C 8.99088541666667 6.09352517985611  8.49609375 6.26169064748202  8.06640625 6.59802158273381  C 7.63671875 6.93435251798561  7.421875 7.36630695443645  7.421875 7.89388489208633  C 7.421875 8.40827338129496  7.63671875 8.83363309352518  8.06640625 9.16996402877698  C 8.49609375 9.50629496402878  8.99088541666667 9.67446043165467  9.55078125 9.67446043165467  C 10.0846354166667 9.67446043165467  10.5143229166667 9.5128896882494  10.83984375 9.18974820143885  Z M 25.341796875 18.9334532374101  C 25.673828125 18.6432853717026  25.83984375 18.3069544364508  25.83984375 17.9244604316547  C 25.83984375 17.5551558752998  25.673828125 17.2254196642686  25.341796875 16.9352517985611  C 25.009765625 16.6450839328537  24.5833333333333 16.5  24.0625 16.5  C 23.7109375 16.5  23.388671875 16.648381294964  23.095703125 16.9451438848921  C 22.802734375 17.2419064748201  22.65625 17.568345323741  22.65625 17.9244604316547  C 22.65625 18.2937649880096  22.802734375 18.6267985611511  23.095703125 18.9235611510791  C 23.388671875 19.2203237410072  23.7109375 19.3687050359712  24.0625 19.3687050359712  C 24.5833333333333 19.3687050359712  25.009765625 19.2236211031175  25.341796875 18.9334532374101  Z M 20.751953125 9.18974820143885  C 21.0709635416667 8.8666067146283  21.23046875 8.43465227817746  21.23046875 7.89388489208633  C 21.23046875 7.3531175059952  21.0709635416667 6.91786570743405  20.751953125 6.58812949640288  C 20.4329427083333 6.2583932853717  20.0065104166667 6.09352517985611  19.47265625 6.09352517985611  C 18.9127604166667 6.09352517985611  18.41796875 6.26169064748202  17.98828125 6.59802158273381  C 17.55859375 6.93435251798561  17.34375 7.36630695443645  17.34375 7.89388489208633  C 17.34375 8.40827338129496  17.55859375 8.83363309352518  17.98828125 9.16996402877698  C 18.41796875 9.50629496402878  18.9127604166667 9.67446043165467  19.47265625 9.67446043165467  C 20.0065104166667 9.67446043165467  20.4329427083333 9.5128896882494  20.751953125 9.18974820143885  Z M 33.125 18.9334532374101  C 33.4635416666667 18.6432853717026  33.6328125 18.3069544364508  33.6328125 17.9244604316547  C 33.6328125 17.5551558752998  33.4635416666667 17.2254196642686  33.125 16.9352517985611  C 32.7864583333333 16.6450839328537  32.36328125 16.5  31.85546875 16.5  C 31.50390625 16.5  31.181640625 16.648381294964  30.888671875 16.9451438848921  C 30.595703125 17.2419064748201  30.44921875 17.568345323741  30.44921875 17.9244604316547  C 30.44921875 18.2937649880096  30.595703125 18.6267985611511  30.888671875 18.9235611510791  C 31.181640625 19.2203237410072  31.50390625 19.3687050359712  31.85546875 19.3687050359712  C 32.36328125 19.3687050359712  32.7864583333333 19.2236211031175  33.125 18.9334532374101  Z M 25.771484375 4.91636690647482  C 27.1451822916667 6.45293764988009  28.0338541666667 8.17086330935252  28.4375 10.0701438848921  C 28.0338541666667 10.0173860911271  27.578125 9.9910071942446  27.0703125 9.9910071942446  C 24.8697916666667 9.9910071942446  22.8450520833333 10.4988009592326  20.99609375 11.5143884892086  C 19.1471354166667 12.5299760191846  17.6920572916667 13.9049760191847  16.630859375 15.6393884892086  C 15.5696614583333 17.3738009592326  15.0390625 19.2697841726619  15.0390625 21.3273381294964  C 15.0390625 22.3561151079137  15.1888020833333 23.3585131894484  15.48828125 24.3345323741007  C 15.0325520833333 24.3741007194245  14.58984375 24.3938848920863  14.16015625 24.3938848920863  C 13.8216145833333 24.3938848920863  13.49609375 24.3839928057554  13.18359375 24.3642086330935  C 12.87109375 24.3444244604317  12.5130208333333 24.3015587529976  12.109375 24.2356115107914  C 11.7057291666667 24.1696642685851  11.416015625 24.1235011990408  11.240234375 24.0971223021583  C 11.064453125 24.0707434052758  10.7096354166667 24.0014988009592  10.17578125 23.8893884892086  C 9.64192708333334 23.777278177458  9.31640625 23.7080335731415  9.19921875 23.681654676259  L 4.2578125 26.1942446043165  L 5.6640625 21.8812949640288  C 1.88802083333333 19.2038369304556  0 15.9724220623501  0 12.1870503597122  C 0 9.95803357314149  0.634765625 7.90707434052757  1.904296875 6.0341726618705  C 3.173828125 4.16127098321343  4.892578125 2.68735011990407  7.060546875 1.61241007194245  C 9.228515625 0.537470023980813  11.5950520833333 0  14.16015625 0  C 16.4518229166667 0  18.6165364583333 0.435251798561152  20.654296875 1.30575539568345  C 22.6920572916667 2.17625899280576  24.3977864583333 3.37979616306954  25.771484375 4.91636690647482  Z M 38.330078125 15.9559352517986  C 39.443359375 17.5584532374101  40 19.2961630695444  40 21.1690647482014  C 40 22.7122302158273  39.5540364583333 24.1861510791367  38.662109375 25.5908273381295  C 37.7701822916667 26.9955035971223  36.5625 28.2715827338129  35.0390625 29.4190647482014  L 36.11328125 33  L 32.2265625 30.8435251798561  C 30.2734375 31.3315347721823  28.8541666666667 31.5755395683453  27.96875 31.5755395683453  C 25.7682291666667 31.5755395683453  23.7434895833333 31.1106115107914  21.89453125 30.1807553956835  C 20.0455729166667 29.2508992805755  18.5904947916667 27.9880095923261  17.529296875 26.3920863309353  C 16.4680989583333 24.7961630695444  15.9375 23.0551558752998  15.9375 21.1690647482014  C 15.9375 19.2829736211031  16.4680989583333 17.5419664268585  17.529296875 15.9460431654676  C 18.5904947916667 14.3501199040767  20.0455729166667 13.0872302158273  21.89453125 12.1573741007194  C 23.7434895833333 11.2275179856115  25.7682291666667 10.7625899280576  27.96875 10.7625899280576  C 30.0651041666667 10.7625899280576  32.0377604166667 11.2275179856115  33.88671875 12.1573741007194  C 35.7356770833333 13.0872302158273  37.216796875 14.353417266187  38.330078125 15.9559352517986  Z " fill-rule="nonzero" fill="#09bb07" stroke="none" transform="matrix(1 0 0 1 467 156 )" />
  </g>
</svg>