<?xml version="1.0" encoding="utf-8"?>
<svg version="1.1" xmlns:xlink="http://www.w3.org/1999/xlink" width="50px" height="50px" xmlns="http://www.w3.org/2000/svg">
  <g transform="matrix(1 0 0 1 -58 -601 )">
    <path d="M 83 601  C 97 601  108 612  108 626  C 108 640  97 651  83 651  C 69 651  58 640  58 626  C 58 612  69 601  83 601  Z " fill-rule="nonzero" fill="#ffffff" stroke="none" />
    <path d="M 83 601.5  C 96.72 601.5  107.5 612.28  107.5 626  C 107.5 639.72  96.72 650.5  83 650.5  C 69.28 650.5  58.5 639.72  58.5 626  C 58.5 612.28  69.28 601.5  83 601.5  Z " stroke-width="1" stroke="#797979" fill="none" />
  </g>
</svg>